<?xml version="1.0" encoding="UTF-8" standalone="no"?><svg xmlns="http://www.w3.org/2000/svg" xmlns:xlink="http://www.w3.org/1999/xlink" contentScriptType="application/ecmascript" contentStyleType="text/css" height="684px" preserveAspectRatio="none" style="width:2031px;height:684px;" version="1.1" viewBox="0 0 2031 684" width="2031px" zoomAndPan="magnify"><defs><filter height="300%" id="f3193dkn9ll1i" width="300%" x="-1" y="-1"><feGaussianBlur result="blurOut" stdDeviation="2.0"/><feColorMatrix in="blurOut" result="blurOut2" type="matrix" values="0 0 0 0 0 0 0 0 0 0 0 0 0 0 0 0 0 0 .4 0"/><feOffset dx="4.0" dy="4.0" in="blurOut2" result="blurOut3"/><feBlend in="SourceGraphic" in2="blurOut3" mode="normal"/></filter></defs><g><!--class Zombie--><rect fill="#FEFECE" filter="url(#f3193dkn9ll1i)" height="124.8281" id="Zombie" style="stroke: #A80036; stroke-width: 1.5;" width="204" x="721" y="542.5"/><ellipse cx="795.25" cy="558.5" fill="#ADD1B2" rx="11" ry="11" style="stroke: #A80036; stroke-width: 1.0;"/><path d="M797.5938,554.1719 L797.7656,554.25 C797.9844,553.9375 798.1875,553.8438 798.4844,553.8438 C798.7813,553.8438 799.0625,553.9844 799.2188,554.25 C799.3125,554.4063 799.3281,554.5313 799.3281,554.9688 L799.3281,556.3906 C799.3281,556.8125 799.2969,557 799.1875,557.1563 C799.0156,557.375 798.75,557.5156 798.4844,557.5156 C798.2656,557.5156 798.0313,557.4063 797.8906,557.2656 C797.75,557.1406 797.7188,557.0156 797.6563,556.6094 C797.5625,556.2031 797.3906,555.9844 796.9063,555.7031 C796.4375,555.4531 795.8281,555.2969 795.25,555.2969 C793.5156,555.2969 792.2656,556.6094 792.2656,558.3906 L792.2656,559.4844 C792.2656,561.1875 793.5625,562.2813 795.6094,562.2813 C796.375,562.2813 797.0625,562.1563 797.4844,561.8906 C797.6719,561.7969 797.6719,561.7969 798.125,561.3125 C798.3125,561.125 798.5156,561.0469 798.7344,561.0469 C799.2031,561.0469 799.5938,561.4375 799.5938,561.8906 C799.5938,562.2813 799.2656,562.7344 798.6875,563.1406 C797.9375,563.6875 796.7813,563.9844 795.5625,563.9844 C792.6719,563.9844 790.5625,562.0938 790.5625,559.5156 L790.5625,558.3906 C790.5625,555.6719 792.5625,553.5938 795.1875,553.5938 C796.0625,553.5938 796.6563,553.7344 797.5938,554.1719 Z "/><text fill="#000000" font-family="sans-serif" font-size="12" lengthAdjust="spacingAndGlyphs" textLength="47" x="815.75" y="562.6543">Zombie</text><line style="stroke: #A80036; stroke-width: 1.5;" x1="722" x2="924" y1="574.5" y2="574.5"/><ellipse cx="732" cy="586.4023" fill="none" rx="3" ry="3" style="stroke: #038048; stroke-width: 1.0;"/><text fill="#000000" font-family="sans-serif" font-size="11" lengthAdjust="spacingAndGlyphs" textLength="149" x="741" y="588.7104">kind: "zombie" | undefined</text><ellipse cx="732" cy="599.207" fill="none" rx="3" ry="3" style="stroke: #038048; stroke-width: 1.0;"/><text fill="#000000" font-family="sans-serif" font-size="11" lengthAdjust="spacingAndGlyphs" textLength="178" x="741" y="601.5151">widthHeight: [number, number]</text><ellipse cx="732" cy="612.0117" fill="none" rx="3" ry="3" style="stroke: #038048; stroke-width: 1.0;"/><text fill="#000000" font-family="sans-serif" font-size="11" lengthAdjust="spacingAndGlyphs" textLength="154" x="741" y="614.3198">image: HTMLImageElement</text><ellipse cx="732" cy="624.8164" fill="none" rx="3" ry="3" style="stroke: #038048; stroke-width: 1.0;"/><text fill="#000000" font-family="sans-serif" font-size="11" lengthAdjust="spacingAndGlyphs" textLength="157" x="741" y="627.1245">position: [number, number]</text><line style="stroke: #A80036; stroke-width: 1.5;" x1="722" x2="924" y1="633.7188" y2="633.7188"/><ellipse cx="732" cy="645.6211" fill="#84BE84" rx="3" ry="3" style="stroke: #038048; stroke-width: 1.0;"/><text fill="#000000" font-family="sans-serif" font-size="11" lengthAdjust="spacingAndGlyphs" textLength="78" x="741" y="647.9292">update(): void</text><rect fill="#F24D5C" height="6" style="stroke: #C82930; stroke-width: 1.0;" width="6" x="729" y="655.4258"/><text fill="#000000" font-family="sans-serif" font-size="11" lengthAdjust="spacingAndGlyphs" textLength="130" x="741" y="660.7339">randomStumble(): void</text><!--class BitmapCharacter--><rect fill="#FEFECE" filter="url(#f3193dkn9ll1i)" height="86.4141" id="BitmapCharacter" style="stroke: #A80036; stroke-width: 1.5;" width="274" x="686" y="390"/><ellipse cx="766.25" cy="406" fill="#A9DCDF" rx="11" ry="11" style="stroke: #A80036; stroke-width: 1.0;"/><path d="M767.8281,407.8125 L763.7813,407.8125 L763.3906,408.7969 L763.7813,408.7969 C764.2344,408.7969 764.375,408.8281 764.5469,408.9531 C764.7656,409.125 764.8906,409.375 764.8906,409.6563 C764.8906,409.9375 764.75,410.2344 764.4844,410.375 C764.3594,410.4688 764.1406,410.5 763.7813,410.5 L761.5156,410.5 C760.7656,410.5 760.3906,410.2188 760.3906,409.6563 C760.3906,409.3594 760.5469,409.0781 760.7969,408.9219 C760.9531,408.8125 761.1094,408.7969 761.5313,408.7969 L764.1719,402.2813 L763.0938,402.2813 C762.6563,402.2813 762.4844,402.25 762.3125,402.1406 C762.0938,401.9688 761.9531,401.7188 761.9531,401.4375 C761.9531,401.1563 762.1094,400.875 762.3594,400.7031 C762.5156,400.6094 762.6406,400.5938 763.0938,400.5938 L766.7656,400.5938 L770.1563,408.7969 C770.625,408.7969 770.7813,408.8281 770.9531,408.9688 C771.1719,409.125 771.3125,409.375 771.3125,409.6563 C771.3125,409.9375 771.1563,410.2344 770.9063,410.375 C770.7656,410.4688 770.5469,410.5 770.1875,410.5 L767.8281,410.5 C767.4063,410.5 767.2031,410.4531 767.0625,410.3281 C766.8438,410.1719 766.7031,409.9219 766.7031,409.6563 C766.7031,409.3594 766.8594,409.0781 767.1094,408.9219 C767.2656,408.8125 767.375,408.7969 767.8281,408.7969 L768.2188,408.7969 Z M767.125,406.1094 L765.7969,402.8438 L764.4531,406.1094 Z "/><text fill="#000000" font-family="sans-serif" font-size="12" font-style="italic" lengthAdjust="spacingAndGlyphs" textLength="105" x="786.75" y="410.1543">BitmapCharacter</text><line style="stroke: #A80036; stroke-width: 1.5;" x1="687" x2="959" y1="422" y2="422"/><ellipse cx="697" cy="433.9023" fill="none" rx="3" ry="3" style="stroke: #038048; stroke-width: 1.0;"/><text fill="#000000" font-family="sans-serif" font-size="11" font-style="italic" lengthAdjust="spacingAndGlyphs" textLength="154" x="706" y="436.2104">image: HTMLImageElement</text><ellipse cx="697" cy="446.707" fill="none" rx="3" ry="3" style="stroke: #038048; stroke-width: 1.0;"/><text fill="#000000" font-family="sans-serif" font-size="11" font-style="italic" lengthAdjust="spacingAndGlyphs" textLength="178" x="706" y="449.0151">widthHeight: [number, number]</text><line style="stroke: #A80036; stroke-width: 1.5;" x1="687" x2="959" y1="455.6094" y2="455.6094"/><ellipse cx="697" cy="467.5117" fill="#84BE84" rx="3" ry="3" style="stroke: #038048; stroke-width: 1.0;"/><text fill="#000000" font-family="sans-serif" font-size="11" lengthAdjust="spacingAndGlyphs" textLength="248" x="706" y="469.8198">draw(ctx: CanvasRenderingContext2D): void</text><!--class Bullet--><rect fill="#FEFECE" filter="url(#f3193dkn9ll1i)" height="112.0234" id="Bullet" style="stroke: #A80036; stroke-width: 1.5;" width="204" x="995" y="549"/><ellipse cx="1075.25" cy="565" fill="#ADD1B2" rx="11" ry="11" style="stroke: #A80036; stroke-width: 1.0;"/><path d="M1077.5938,560.6719 L1077.7656,560.75 C1077.9844,560.4375 1078.1875,560.3438 1078.4844,560.3438 C1078.7813,560.3438 1079.0625,560.4844 1079.2188,560.75 C1079.3125,560.9063 1079.3281,561.0313 1079.3281,561.4688 L1079.3281,562.8906 C1079.3281,563.3125 1079.2969,563.5 1079.1875,563.6563 C1079.0156,563.875 1078.75,564.0156 1078.4844,564.0156 C1078.2656,564.0156 1078.0313,563.9063 1077.8906,563.7656 C1077.75,563.6406 1077.7188,563.5156 1077.6563,563.1094 C1077.5625,562.7031 1077.3906,562.4844 1076.9063,562.2031 C1076.4375,561.9531 1075.8281,561.7969 1075.25,561.7969 C1073.5156,561.7969 1072.2656,563.1094 1072.2656,564.8906 L1072.2656,565.9844 C1072.2656,567.6875 1073.5625,568.7813 1075.6094,568.7813 C1076.375,568.7813 1077.0625,568.6563 1077.4844,568.3906 C1077.6719,568.2969 1077.6719,568.2969 1078.125,567.8125 C1078.3125,567.625 1078.5156,567.5469 1078.7344,567.5469 C1079.2031,567.5469 1079.5938,567.9375 1079.5938,568.3906 C1079.5938,568.7813 1079.2656,569.2344 1078.6875,569.6406 C1077.9375,570.1875 1076.7813,570.4844 1075.5625,570.4844 C1072.6719,570.4844 1070.5625,568.5938 1070.5625,566.0156 L1070.5625,564.8906 C1070.5625,562.1719 1072.5625,560.0938 1075.1875,560.0938 C1076.0625,560.0938 1076.6563,560.2344 1077.5938,560.6719 Z "/><text fill="#000000" font-family="sans-serif" font-size="12" lengthAdjust="spacingAndGlyphs" textLength="35" x="1095.75" y="569.1543">Bullet</text><line style="stroke: #A80036; stroke-width: 1.5;" x1="996" x2="1198" y1="581" y2="581"/><ellipse cx="1006" cy="592.9023" fill="none" rx="3" ry="3" style="stroke: #038048; stroke-width: 1.0;"/><text fill="#000000" font-family="sans-serif" font-size="11" lengthAdjust="spacingAndGlyphs" textLength="140" x="1015" y="595.2104">kind: "bullet" | undefined</text><ellipse cx="1006" cy="605.707" fill="none" rx="3" ry="3" style="stroke: #038048; stroke-width: 1.0;"/><text fill="#000000" font-family="sans-serif" font-size="11" lengthAdjust="spacingAndGlyphs" textLength="178" x="1015" y="608.0151">widthHeight: [number, number]</text><ellipse cx="1006" cy="618.5117" fill="none" rx="3" ry="3" style="stroke: #038048; stroke-width: 1.0;"/><text fill="#000000" font-family="sans-serif" font-size="11" lengthAdjust="spacingAndGlyphs" textLength="69" x="1015" y="620.8198">color: string</text><ellipse cx="1006" cy="631.3164" fill="none" rx="3" ry="3" style="stroke: #038048; stroke-width: 1.0;"/><text fill="#000000" font-family="sans-serif" font-size="11" lengthAdjust="spacingAndGlyphs" textLength="157" x="1015" y="633.6245">position: [number, number]</text><line style="stroke: #A80036; stroke-width: 1.5;" x1="996" x2="1198" y1="640.2188" y2="640.2188"/><ellipse cx="1006" cy="652.1211" fill="#84BE84" rx="3" ry="3" style="stroke: #038048; stroke-width: 1.0;"/><text fill="#000000" font-family="sans-serif" font-size="11" lengthAdjust="spacingAndGlyphs" textLength="78" x="1015" y="654.4292">update(): void</text><!--class VectorCharacter--><rect fill="#FEFECE" filter="url(#f3193dkn9ll1i)" height="86.4141" id="VectorCharacter" style="stroke: #A80036; stroke-width: 1.5;" width="274" x="995" y="390"/><ellipse cx="1076.25" cy="406" fill="#A9DCDF" rx="11" ry="11" style="stroke: #A80036; stroke-width: 1.0;"/><path d="M1077.8281,407.8125 L1073.7813,407.8125 L1073.3906,408.7969 L1073.7813,408.7969 C1074.2344,408.7969 1074.375,408.8281 1074.5469,408.9531 C1074.7656,409.125 1074.8906,409.375 1074.8906,409.6563 C1074.8906,409.9375 1074.75,410.2344 1074.4844,410.375 C1074.3594,410.4688 1074.1406,410.5 1073.7813,410.5 L1071.5156,410.5 C1070.7656,410.5 1070.3906,410.2188 1070.3906,409.6563 C1070.3906,409.3594 1070.5469,409.0781 1070.7969,408.9219 C1070.9531,408.8125 1071.1094,408.7969 1071.5313,408.7969 L1074.1719,402.2813 L1073.0938,402.2813 C1072.6563,402.2813 1072.4844,402.25 1072.3125,402.1406 C1072.0938,401.9688 1071.9531,401.7188 1071.9531,401.4375 C1071.9531,401.1563 1072.1094,400.875 1072.3594,400.7031 C1072.5156,400.6094 1072.6406,400.5938 1073.0938,400.5938 L1076.7656,400.5938 L1080.1563,408.7969 C1080.625,408.7969 1080.7813,408.8281 1080.9531,408.9688 C1081.1719,409.125 1081.3125,409.375 1081.3125,409.6563 C1081.3125,409.9375 1081.1563,410.2344 1080.9063,410.375 C1080.7656,410.4688 1080.5469,410.5 1080.1875,410.5 L1077.8281,410.5 C1077.4063,410.5 1077.2031,410.4531 1077.0625,410.3281 C1076.8438,410.1719 1076.7031,409.9219 1076.7031,409.6563 C1076.7031,409.3594 1076.8594,409.0781 1077.1094,408.9219 C1077.2656,408.8125 1077.375,408.7969 1077.8281,408.7969 L1078.2188,408.7969 Z M1077.125,406.1094 L1075.7969,402.8438 L1074.4531,406.1094 Z "/><text fill="#000000" font-family="sans-serif" font-size="12" font-style="italic" lengthAdjust="spacingAndGlyphs" textLength="103" x="1096.75" y="410.1543">VectorCharacter</text><line style="stroke: #A80036; stroke-width: 1.5;" x1="996" x2="1268" y1="422" y2="422"/><ellipse cx="1006" cy="433.9023" fill="none" rx="3" ry="3" style="stroke: #038048; stroke-width: 1.0;"/><text fill="#000000" font-family="sans-serif" font-size="11" font-style="italic" lengthAdjust="spacingAndGlyphs" textLength="68" x="1015" y="436.2104">color: string</text><ellipse cx="1006" cy="446.707" fill="none" rx="3" ry="3" style="stroke: #038048; stroke-width: 1.0;"/><text fill="#000000" font-family="sans-serif" font-size="11" font-style="italic" lengthAdjust="spacingAndGlyphs" textLength="178" x="1015" y="449.0151">widthHeight: [number, number]</text><line style="stroke: #A80036; stroke-width: 1.5;" x1="996" x2="1268" y1="455.6094" y2="455.6094"/><ellipse cx="1006" cy="467.5117" fill="#84BE84" rx="3" ry="3" style="stroke: #038048; stroke-width: 1.0;"/><text fill="#000000" font-family="sans-serif" font-size="11" lengthAdjust="spacingAndGlyphs" textLength="248" x="1015" y="469.8198">draw(ctx: CanvasRenderingContext2D): void</text><!--class Drawable--><rect fill="#FEFECE" filter="url(#f3193dkn9ll1i)" height="73.6094" id="Drawable" style="stroke: #A80036; stroke-width: 1.5;" width="274" x="710" y="46"/><ellipse cx="813.25" cy="62" fill="#B4A7E5" rx="11" ry="11" style="stroke: #A80036; stroke-width: 1.0;"/><path d="M814.2031,58.7813 L814.2031,65.2969 L815.9219,65.2969 C816.375,65.2969 816.5156,65.3281 816.6875,65.4531 C816.9219,65.625 817.0313,65.875 817.0313,66.1563 C817.0313,66.7188 816.6719,67 815.9219,67 L810.7813,67 C810.375,67 810.1719,66.9531 810.0156,66.8281 C809.7969,66.6719 809.6563,66.4063 809.6563,66.1563 C809.6563,65.8594 809.8125,65.5781 810.0625,65.4219 C810.2188,65.3125 810.3438,65.2969 810.7813,65.2969 L812.5,65.2969 L812.5,58.7813 L810.7813,58.7813 C810.3594,58.7813 810.1719,58.75 810.0156,58.6406 C809.7969,58.4688 809.6563,58.2188 809.6563,57.9375 C809.6563,57.6563 809.8125,57.3594 810.0625,57.2031 C810.2188,57.1094 810.3438,57.0938 810.7813,57.0938 L815.9219,57.0938 C816.375,57.0938 816.5156,57.125 816.6875,57.2344 C816.9219,57.4063 817.0313,57.6719 817.0313,57.9375 C817.0313,58.2344 816.8906,58.5156 816.625,58.6719 C816.5,58.75 816.3125,58.7813 815.9219,58.7813 Z "/><text fill="#000000" font-family="sans-serif" font-size="12" font-style="italic" lengthAdjust="spacingAndGlyphs" textLength="59" x="833.75" y="66.1543">Drawable</text><line style="stroke: #A80036; stroke-width: 1.5;" x1="711" x2="983" y1="78" y2="78"/><line style="stroke: #A80036; stroke-width: 1.5;" x1="711" x2="983" y1="86" y2="86"/><ellipse cx="721" cy="97.9023" fill="#84BE84" rx="3" ry="3" style="stroke: #038048; stroke-width: 1.0;"/><text fill="#000000" font-family="sans-serif" font-size="11" lengthAdjust="spacingAndGlyphs" textLength="141" x="730" y="100.2104">update(state?: any): void</text><ellipse cx="721" cy="110.707" fill="#84BE84" rx="3" ry="3" style="stroke: #038048; stroke-width: 1.0;"/><text fill="#000000" font-family="sans-serif" font-size="11" lengthAdjust="spacingAndGlyphs" textLength="248" x="730" y="113.0151">draw(ctx: CanvasRenderingContext2D): void</text><!--class GameObject--><rect fill="#FEFECE" filter="url(#f3193dkn9ll1i)" height="112.0234" id="GameObject" style="stroke: #A80036; stroke-width: 1.5;" width="182" x="1019" y="27"/><ellipse cx="1068.25" cy="43" fill="#A9DCDF" rx="11" ry="11" style="stroke: #A80036; stroke-width: 1.0;"/><path d="M1069.8281,44.8125 L1065.7813,44.8125 L1065.3906,45.7969 L1065.7813,45.7969 C1066.2344,45.7969 1066.375,45.8281 1066.5469,45.9531 C1066.7656,46.125 1066.8906,46.375 1066.8906,46.6563 C1066.8906,46.9375 1066.75,47.2344 1066.4844,47.375 C1066.3594,47.4688 1066.1406,47.5 1065.7813,47.5 L1063.5156,47.5 C1062.7656,47.5 1062.3906,47.2188 1062.3906,46.6563 C1062.3906,46.3594 1062.5469,46.0781 1062.7969,45.9219 C1062.9531,45.8125 1063.1094,45.7969 1063.5313,45.7969 L1066.1719,39.2813 L1065.0938,39.2813 C1064.6563,39.2813 1064.4844,39.25 1064.3125,39.1406 C1064.0938,38.9688 1063.9531,38.7188 1063.9531,38.4375 C1063.9531,38.1563 1064.1094,37.875 1064.3594,37.7031 C1064.5156,37.6094 1064.6406,37.5938 1065.0938,37.5938 L1068.7656,37.5938 L1072.1563,45.7969 C1072.625,45.7969 1072.7813,45.8281 1072.9531,45.9688 C1073.1719,46.125 1073.3125,46.375 1073.3125,46.6563 C1073.3125,46.9375 1073.1563,47.2344 1072.9063,47.375 C1072.7656,47.4688 1072.5469,47.5 1072.1875,47.5 L1069.8281,47.5 C1069.4063,47.5 1069.2031,47.4531 1069.0625,47.3281 C1068.8438,47.1719 1068.7031,46.9219 1068.7031,46.6563 C1068.7031,46.3594 1068.8594,46.0781 1069.1094,45.9219 C1069.2656,45.8125 1069.375,45.7969 1069.8281,45.7969 L1070.2188,45.7969 Z M1069.125,43.1094 L1067.7969,39.8438 L1066.4531,43.1094 Z "/><text fill="#000000" font-family="sans-serif" font-size="12" font-style="italic" lengthAdjust="spacingAndGlyphs" textLength="75" x="1088.75" y="47.1543">GameObject</text><line style="stroke: #A80036; stroke-width: 1.5;" x1="1020" x2="1200" y1="59" y2="59"/><ellipse cx="1030" cy="70.9023" fill="none" rx="3" ry="3" style="stroke: #038048; stroke-width: 1.0;"/><text fill="#000000" font-family="sans-serif" font-size="11" lengthAdjust="spacingAndGlyphs" textLength="96" x="1039" y="73.2104">rotation: number</text><ellipse cx="1030" cy="83.707" fill="none" rx="3" ry="3" style="stroke: #038048; stroke-width: 1.0;"/><text fill="#000000" font-family="sans-serif" font-size="11" lengthAdjust="spacingAndGlyphs" textLength="142" x="1039" y="86.0151">scale: [number, number]</text><ellipse cx="1030" cy="96.5117" fill="none" rx="3" ry="3" style="stroke: #038048; stroke-width: 1.0;"/><text fill="#000000" font-family="sans-serif" font-size="11" font-style="italic" lengthAdjust="spacingAndGlyphs" textLength="156" x="1039" y="98.8198">position: [number, number]</text><ellipse cx="1030" cy="109.3164" fill="none" rx="3" ry="3" style="stroke: #038048; stroke-width: 1.0;"/><text fill="#000000" font-family="sans-serif" font-size="11" lengthAdjust="spacingAndGlyphs" textLength="58" x="1039" y="111.6245">x: number</text><ellipse cx="1030" cy="122.1211" fill="none" rx="3" ry="3" style="stroke: #038048; stroke-width: 1.0;"/><text fill="#000000" font-family="sans-serif" font-size="11" lengthAdjust="spacingAndGlyphs" textLength="58" x="1039" y="124.4292">y: number</text><line style="stroke: #A80036; stroke-width: 1.5;" x1="1020" x2="1200" y1="131.0234" y2="131.0234"/><!--class BaseCharacter--><rect fill="#FEFECE" filter="url(#f3193dkn9ll1i)" height="112.0234" id="BaseCharacter" style="stroke: #A80036; stroke-width: 1.5;" width="337" x="809.5" y="218"/><ellipse cx="927.75" cy="234" fill="#A9DCDF" rx="11" ry="11" style="stroke: #A80036; stroke-width: 1.0;"/><path d="M929.3281,235.8125 L925.2813,235.8125 L924.8906,236.7969 L925.2813,236.7969 C925.7344,236.7969 925.875,236.8281 926.0469,236.9531 C926.2656,237.125 926.3906,237.375 926.3906,237.6563 C926.3906,237.9375 926.25,238.2344 925.9844,238.375 C925.8594,238.4688 925.6406,238.5 925.2813,238.5 L923.0156,238.5 C922.2656,238.5 921.8906,238.2188 921.8906,237.6563 C921.8906,237.3594 922.0469,237.0781 922.2969,236.9219 C922.4531,236.8125 922.6094,236.7969 923.0313,236.7969 L925.6719,230.2813 L924.5938,230.2813 C924.1563,230.2813 923.9844,230.25 923.8125,230.1406 C923.5938,229.9688 923.4531,229.7188 923.4531,229.4375 C923.4531,229.1563 923.6094,228.875 923.8594,228.7031 C924.0156,228.6094 924.1406,228.5938 924.5938,228.5938 L928.2656,228.5938 L931.6563,236.7969 C932.125,236.7969 932.2813,236.8281 932.4531,236.9688 C932.6719,237.125 932.8125,237.375 932.8125,237.6563 C932.8125,237.9375 932.6563,238.2344 932.4063,238.375 C932.2656,238.4688 932.0469,238.5 931.6875,238.5 L929.3281,238.5 C928.9063,238.5 928.7031,238.4531 928.5625,238.3281 C928.3438,238.1719 928.2031,237.9219 928.2031,237.6563 C928.2031,237.3594 928.3594,237.0781 928.6094,236.9219 C928.7656,236.8125 928.875,236.7969 929.3281,236.7969 L929.7188,236.7969 Z M928.625,234.1094 L927.2969,230.8438 L925.9531,234.1094 Z "/><text fill="#000000" font-family="sans-serif" font-size="12" font-style="italic" lengthAdjust="spacingAndGlyphs" textLength="92" x="948.25" y="238.1543">BaseCharacter</text><line style="stroke: #A80036; stroke-width: 1.5;" x1="810.5" x2="1145.5" y1="250" y2="250"/><ellipse cx="820.5" cy="261.9023" fill="none" rx="3" ry="3" style="stroke: #038048; stroke-width: 1.0;"/><text fill="#000000" font-family="sans-serif" font-size="11" lengthAdjust="spacingAndGlyphs" textLength="78" x="829.5" y="264.2104">lives: number</text><ellipse cx="820.5" cy="274.707" fill="none" rx="3" ry="3" style="stroke: #038048; stroke-width: 1.0;"/><text fill="#000000" font-family="sans-serif" font-size="11" lengthAdjust="spacingAndGlyphs" textLength="154" x="829.5" y="277.0151">velocity: [number, number]</text><line style="stroke: #A80036; stroke-width: 1.5;" x1="810.5" x2="1145.5" y1="283.6094" y2="283.6094"/><ellipse cx="820.5" cy="295.5117" fill="#84BE84" rx="3" ry="3" style="stroke: #038048; stroke-width: 1.0;"/><text fill="#000000" font-family="sans-serif" font-size="11" lengthAdjust="spacingAndGlyphs" textLength="141" x="829.5" y="297.8198">update(state?: any): void</text><ellipse cx="820.5" cy="308.3164" fill="#84BE84" rx="3" ry="3" style="stroke: #038048; stroke-width: 1.0;"/><text fill="#000000" font-family="sans-serif" font-size="11" lengthAdjust="spacingAndGlyphs" textLength="311" x="829.5" y="310.6245">directTowards(targetPosition: [number, number]): void</text><ellipse cx="820.5" cy="321.1211" fill="#84BE84" rx="3" ry="3" style="stroke: #038048; stroke-width: 1.0;"/><text fill="#000000" font-family="sans-serif" font-size="11" font-style="italic" lengthAdjust="spacingAndGlyphs" textLength="252" x="829.5" y="323.4292">draw(ctx: CanvasRenderingContext2D): void</text><!--class Hero--><rect fill="#FEFECE" filter="url(#f3193dkn9ll1i)" height="137.6328" id="Hero" style="stroke: #A80036; stroke-width: 1.5;" width="204" x="1234" y="536"/><ellipse cx="1316.75" cy="552" fill="#ADD1B2" rx="11" ry="11" style="stroke: #A80036; stroke-width: 1.0;"/><path d="M1319.0938,547.6719 L1319.2656,547.75 C1319.4844,547.4375 1319.6875,547.3438 1319.9844,547.3438 C1320.2813,547.3438 1320.5625,547.4844 1320.7188,547.75 C1320.8125,547.9063 1320.8281,548.0313 1320.8281,548.4688 L1320.8281,549.8906 C1320.8281,550.3125 1320.7969,550.5 1320.6875,550.6563 C1320.5156,550.875 1320.25,551.0156 1319.9844,551.0156 C1319.7656,551.0156 1319.5313,550.9063 1319.3906,550.7656 C1319.25,550.6406 1319.2188,550.5156 1319.1563,550.1094 C1319.0625,549.7031 1318.8906,549.4844 1318.4063,549.2031 C1317.9375,548.9531 1317.3281,548.7969 1316.75,548.7969 C1315.0156,548.7969 1313.7656,550.1094 1313.7656,551.8906 L1313.7656,552.9844 C1313.7656,554.6875 1315.0625,555.7813 1317.1094,555.7813 C1317.875,555.7813 1318.5625,555.6563 1318.9844,555.3906 C1319.1719,555.2969 1319.1719,555.2969 1319.625,554.8125 C1319.8125,554.625 1320.0156,554.5469 1320.2344,554.5469 C1320.7031,554.5469 1321.0938,554.9375 1321.0938,555.3906 C1321.0938,555.7813 1320.7656,556.2344 1320.1875,556.6406 C1319.4375,557.1875 1318.2813,557.4844 1317.0625,557.4844 C1314.1719,557.4844 1312.0625,555.5938 1312.0625,553.0156 L1312.0625,551.8906 C1312.0625,549.1719 1314.0625,547.0938 1316.6875,547.0938 C1317.5625,547.0938 1318.1563,547.2344 1319.0938,547.6719 Z "/><text fill="#000000" font-family="sans-serif" font-size="12" lengthAdjust="spacingAndGlyphs" textLength="30" x="1337.25" y="556.1543">Hero</text><line style="stroke: #A80036; stroke-width: 1.5;" x1="1235" x2="1437" y1="568" y2="568"/><ellipse cx="1245" cy="579.9023" fill="none" rx="3" ry="3" style="stroke: #038048; stroke-width: 1.0;"/><text fill="#000000" font-family="sans-serif" font-size="11" lengthAdjust="spacingAndGlyphs" textLength="135" x="1254" y="582.2104">kind: "hero" | undefined</text><ellipse cx="1245" cy="592.707" fill="none" rx="3" ry="3" style="stroke: #038048; stroke-width: 1.0;"/><text fill="#000000" font-family="sans-serif" font-size="11" lengthAdjust="spacingAndGlyphs" textLength="78" x="1254" y="595.0151">lives: number</text><ellipse cx="1245" cy="605.5117" fill="none" rx="3" ry="3" style="stroke: #038048; stroke-width: 1.0;"/><text fill="#000000" font-family="sans-serif" font-size="11" lengthAdjust="spacingAndGlyphs" textLength="178" x="1254" y="607.8198">widthHeight: [number, number]</text><ellipse cx="1245" cy="618.3164" fill="none" rx="3" ry="3" style="stroke: #038048; stroke-width: 1.0;"/><text fill="#000000" font-family="sans-serif" font-size="11" lengthAdjust="spacingAndGlyphs" textLength="69" x="1254" y="620.6245">color: string</text><ellipse cx="1245" cy="631.1211" fill="none" rx="3" ry="3" style="stroke: #038048; stroke-width: 1.0;"/><text fill="#000000" font-family="sans-serif" font-size="11" lengthAdjust="spacingAndGlyphs" textLength="114" x="1254" y="633.4292">firePaused: boolean</text><ellipse cx="1245" cy="643.9258" fill="none" rx="3" ry="3" style="stroke: #038048; stroke-width: 1.0;"/><text fill="#000000" font-family="sans-serif" font-size="11" lengthAdjust="spacingAndGlyphs" textLength="157" x="1254" y="646.2339">position: [number, number]</text><line style="stroke: #A80036; stroke-width: 1.5;" x1="1235" x2="1437" y1="652.8281" y2="652.8281"/><ellipse cx="1245" cy="664.7305" fill="#84BE84" rx="3" ry="3" style="stroke: #038048; stroke-width: 1.0;"/><text fill="#000000" font-family="sans-serif" font-size="11" lengthAdjust="spacingAndGlyphs" textLength="135" x="1254" y="667.0386">update(state: any): void</text><!--class State--><rect fill="#FEFECE" filter="url(#f3193dkn9ll1i)" height="99.2188" id="State" style="stroke: #A80036; stroke-width: 1.5;" width="251" x="1349.5" y="33.5"/><ellipse cx="1453.75" cy="49.5" fill="#B4A7E5" rx="11" ry="11" style="stroke: #A80036; stroke-width: 1.0;"/><path d="M1454.7031,46.2813 L1454.7031,52.7969 L1456.4219,52.7969 C1456.875,52.7969 1457.0156,52.8281 1457.1875,52.9531 C1457.4219,53.125 1457.5313,53.375 1457.5313,53.6563 C1457.5313,54.2188 1457.1719,54.5 1456.4219,54.5 L1451.2813,54.5 C1450.875,54.5 1450.6719,54.4531 1450.5156,54.3281 C1450.2969,54.1719 1450.1563,53.9063 1450.1563,53.6563 C1450.1563,53.3594 1450.3125,53.0781 1450.5625,52.9219 C1450.7188,52.8125 1450.8438,52.7969 1451.2813,52.7969 L1453,52.7969 L1453,46.2813 L1451.2813,46.2813 C1450.8594,46.2813 1450.6719,46.25 1450.5156,46.1406 C1450.2969,45.9688 1450.1563,45.7188 1450.1563,45.4375 C1450.1563,45.1563 1450.3125,44.8594 1450.5625,44.7031 C1450.7188,44.6094 1450.8438,44.5938 1451.2813,44.5938 L1456.4219,44.5938 C1456.875,44.5938 1457.0156,44.625 1457.1875,44.7344 C1457.4219,44.9063 1457.5313,45.1719 1457.5313,45.4375 C1457.5313,45.7344 1457.3906,46.0156 1457.125,46.1719 C1457,46.25 1456.8125,46.2813 1456.4219,46.2813 Z "/><text fill="#000000" font-family="sans-serif" font-size="12" font-style="italic" lengthAdjust="spacingAndGlyphs" textLength="34" x="1474.25" y="53.6543">State</text><line style="stroke: #A80036; stroke-width: 1.5;" x1="1350.5" x2="1599.5" y1="65.5" y2="65.5"/><line style="stroke: #A80036; stroke-width: 1.5;" x1="1350.5" x2="1599.5" y1="73.5" y2="73.5"/><ellipse cx="1360.5" cy="85.4023" fill="#84BE84" rx="3" ry="3" style="stroke: #038048; stroke-width: 1.0;"/><text fill="#000000" font-family="sans-serif" font-size="11" lengthAdjust="spacingAndGlyphs" textLength="219" x="1369.5" y="87.7104">transition(context: GameContext): void</text><ellipse cx="1360.5" cy="98.207" fill="#84BE84" rx="3" ry="3" style="stroke: #038048; stroke-width: 1.0;"/><text fill="#000000" font-family="sans-serif" font-size="11" lengthAdjust="spacingAndGlyphs" textLength="225" x="1369.5" y="100.5151">keyHandler(event: KeyboardEvent): void</text><ellipse cx="1360.5" cy="111.0117" fill="#84BE84" rx="3" ry="3" style="stroke: #038048; stroke-width: 1.0;"/><text fill="#000000" font-family="sans-serif" font-size="11" lengthAdjust="spacingAndGlyphs" textLength="204" x="1369.5" y="113.3198">update(context: GameContext): void</text><ellipse cx="1360.5" cy="123.8164" fill="#84BE84" rx="3" ry="3" style="stroke: #038048; stroke-width: 1.0;"/><text fill="#000000" font-family="sans-serif" font-size="11" lengthAdjust="spacingAndGlyphs" textLength="216" x="1369.5" y="126.1245">renderAll(context: GameContext): void</text><!--class InGameKeys--><rect fill="#FEFECE" filter="url(#f3193dkn9ll1i)" height="112.0234" id="InGameKeys" style="stroke: #A80036; stroke-width: 1.5;" width="161" x="27.5" y="27"/><ellipse cx="65.9" cy="43" fill="#B4A7E5" rx="11" ry="11" style="stroke: #A80036; stroke-width: 1.0;"/><path d="M66.8531,39.7813 L66.8531,46.2969 L68.5719,46.2969 C69.025,46.2969 69.1656,46.3281 69.3375,46.4531 C69.5719,46.625 69.6813,46.875 69.6813,47.1563 C69.6813,47.7188 69.3219,48 68.5719,48 L63.4313,48 C63.025,48 62.8219,47.9531 62.6656,47.8281 C62.4469,47.6719 62.3063,47.4063 62.3063,47.1563 C62.3063,46.8594 62.4625,46.5781 62.7125,46.4219 C62.8688,46.3125 62.9938,46.2969 63.4313,46.2969 L65.15,46.2969 L65.15,39.7813 L63.4313,39.7813 C63.0094,39.7813 62.8219,39.75 62.6656,39.6406 C62.4469,39.4688 62.3063,39.2188 62.3063,38.9375 C62.3063,38.6563 62.4625,38.3594 62.7125,38.2031 C62.8688,38.1094 62.9938,38.0938 63.4313,38.0938 L68.5719,38.0938 C69.025,38.0938 69.1656,38.125 69.3375,38.2344 C69.5719,38.4063 69.6813,38.6719 69.6813,38.9375 C69.6813,39.2344 69.5406,39.5156 69.275,39.6719 C69.15,39.75 68.9625,39.7813 68.5719,39.7813 Z "/><text fill="#000000" font-family="sans-serif" font-size="12" font-style="italic" lengthAdjust="spacingAndGlyphs" textLength="77" x="85.1" y="47.1543">InGameKeys</text><line style="stroke: #A80036; stroke-width: 1.5;" x1="28.5" x2="187.5" y1="59" y2="59"/><ellipse cx="38.5" cy="70.9023" fill="none" rx="3" ry="3" style="stroke: #038048; stroke-width: 1.0;"/><text fill="#000000" font-family="sans-serif" font-size="11" lengthAdjust="spacingAndGlyphs" textLength="127" x="47.5" y="73.2104">startPressed: boolean</text><ellipse cx="38.5" cy="83.707" fill="none" rx="3" ry="3" style="stroke: #038048; stroke-width: 1.0;"/><text fill="#000000" font-family="sans-serif" font-size="11" lengthAdjust="spacingAndGlyphs" textLength="119" x="47.5" y="86.0151">firePressed: boolean</text><ellipse cx="38.5" cy="96.5117" fill="none" rx="3" ry="3" style="stroke: #038048; stroke-width: 1.0;"/><text fill="#000000" font-family="sans-serif" font-size="11" lengthAdjust="spacingAndGlyphs" textLength="118" x="47.5" y="98.8198">leftPressed: boolean</text><ellipse cx="38.5" cy="109.3164" fill="none" rx="3" ry="3" style="stroke: #038048; stroke-width: 1.0;"/><text fill="#000000" font-family="sans-serif" font-size="11" lengthAdjust="spacingAndGlyphs" textLength="126" x="47.5" y="111.6245">rightPressed: boolean</text><ellipse cx="38.5" cy="122.1211" fill="none" rx="3" ry="3" style="stroke: #038048; stroke-width: 1.0;"/><text fill="#000000" font-family="sans-serif" font-size="11" lengthAdjust="spacingAndGlyphs" textLength="135" x="47.5" y="124.4292">pausePressed: boolean</text><line style="stroke: #A80036; stroke-width: 1.5;" x1="28.5" x2="187.5" y1="131.0234" y2="131.0234"/><!--class Base--><rect fill="#FEFECE" filter="url(#f3193dkn9ll1i)" height="99.2188" id="Base" style="stroke: #A80036; stroke-width: 1.5;" width="251" x="1635.5" y="33.5"/><ellipse cx="1741.75" cy="49.5" fill="#A9DCDF" rx="11" ry="11" style="stroke: #A80036; stroke-width: 1.0;"/><path d="M1743.3281,51.3125 L1739.2813,51.3125 L1738.8906,52.2969 L1739.2813,52.2969 C1739.7344,52.2969 1739.875,52.3281 1740.0469,52.4531 C1740.2656,52.625 1740.3906,52.875 1740.3906,53.1563 C1740.3906,53.4375 1740.25,53.7344 1739.9844,53.875 C1739.8594,53.9688 1739.6406,54 1739.2813,54 L1737.0156,54 C1736.2656,54 1735.8906,53.7188 1735.8906,53.1563 C1735.8906,52.8594 1736.0469,52.5781 1736.2969,52.4219 C1736.4531,52.3125 1736.6094,52.2969 1737.0313,52.2969 L1739.6719,45.7813 L1738.5938,45.7813 C1738.1563,45.7813 1737.9844,45.75 1737.8125,45.6406 C1737.5938,45.4688 1737.4531,45.2188 1737.4531,44.9375 C1737.4531,44.6563 1737.6094,44.375 1737.8594,44.2031 C1738.0156,44.1094 1738.1406,44.0938 1738.5938,44.0938 L1742.2656,44.0938 L1745.6563,52.2969 C1746.125,52.2969 1746.2813,52.3281 1746.4531,52.4688 C1746.6719,52.625 1746.8125,52.875 1746.8125,53.1563 C1746.8125,53.4375 1746.6563,53.7344 1746.4063,53.875 C1746.2656,53.9688 1746.0469,54 1745.6875,54 L1743.3281,54 C1742.9063,54 1742.7031,53.9531 1742.5625,53.8281 C1742.3438,53.6719 1742.2031,53.4219 1742.2031,53.1563 C1742.2031,52.8594 1742.3594,52.5781 1742.6094,52.4219 C1742.7656,52.3125 1742.875,52.2969 1743.3281,52.2969 L1743.7188,52.2969 Z M1742.625,49.6094 L1741.2969,46.3438 L1739.9531,49.6094 Z "/><text fill="#000000" font-family="sans-serif" font-size="12" font-style="italic" lengthAdjust="spacingAndGlyphs" textLength="30" x="1762.25" y="53.6543">Base</text><line style="stroke: #A80036; stroke-width: 1.5;" x1="1636.5" x2="1885.5" y1="65.5" y2="65.5"/><ellipse cx="1646.5" cy="77.4023" fill="none" rx="3" ry="3" style="stroke: #038048; stroke-width: 1.0;"/><text fill="#000000" font-family="sans-serif" font-size="11" lengthAdjust="spacingAndGlyphs" textLength="213" x="1655.5" y="79.7104">entities: { [key: string]: Drawable[]; }</text><polygon fill="none" points="1646.5,85.207,1650.5,89.207,1646.5,93.207,1642.5,89.207" style="stroke: #B38D22; stroke-width: 1.0;"/><text fill="#000000" font-family="sans-serif" font-size="11" lengthAdjust="spacingAndGlyphs" textLength="150" x="1655.5" y="92.5151">inGameKeys: InGameKeys</text><line style="stroke: #A80036; stroke-width: 1.5;" x1="1636.5" x2="1885.5" y1="99.1094" y2="99.1094"/><ellipse cx="1646.5" cy="111.0117" fill="#84BE84" rx="3" ry="3" style="stroke: #038048; stroke-width: 1.0;"/><text fill="#000000" font-family="sans-serif" font-size="11" lengthAdjust="spacingAndGlyphs" textLength="216" x="1655.5" y="113.3198">renderAll(context: GameContext): void</text><ellipse cx="1646.5" cy="123.8164" fill="#84BE84" rx="3" ry="3" style="stroke: #038048; stroke-width: 1.0;"/><text fill="#000000" font-family="sans-serif" font-size="11" lengthAdjust="spacingAndGlyphs" textLength="225" x="1655.5" y="126.1245">keyHandler(event: KeyboardEvent): void</text><!--class GameContext--><rect fill="#FEFECE" filter="url(#f3193dkn9ll1i)" height="150.4375" id="GameContext" style="stroke: #A80036; stroke-width: 1.5;" width="233" x="223.5" y="8"/><ellipse cx="293.75" cy="24" fill="#ADD1B2" rx="11" ry="11" style="stroke: #A80036; stroke-width: 1.0;"/><path d="M296.0938,19.6719 L296.2656,19.75 C296.4844,19.4375 296.6875,19.3438 296.9844,19.3438 C297.2813,19.3438 297.5625,19.4844 297.7188,19.75 C297.8125,19.9063 297.8281,20.0313 297.8281,20.4688 L297.8281,21.8906 C297.8281,22.3125 297.7969,22.5 297.6875,22.6563 C297.5156,22.875 297.25,23.0156 296.9844,23.0156 C296.7656,23.0156 296.5313,22.9063 296.3906,22.7656 C296.25,22.6406 296.2188,22.5156 296.1563,22.1094 C296.0625,21.7031 295.8906,21.4844 295.4063,21.2031 C294.9375,20.9531 294.3281,20.7969 293.75,20.7969 C292.0156,20.7969 290.7656,22.1094 290.7656,23.8906 L290.7656,24.9844 C290.7656,26.6875 292.0625,27.7813 294.1094,27.7813 C294.875,27.7813 295.5625,27.6563 295.9844,27.3906 C296.1719,27.2969 296.1719,27.2969 296.625,26.8125 C296.8125,26.625 297.0156,26.5469 297.2344,26.5469 C297.7031,26.5469 298.0938,26.9375 298.0938,27.3906 C298.0938,27.7813 297.7656,28.2344 297.1875,28.6406 C296.4375,29.1875 295.2813,29.4844 294.0625,29.4844 C291.1719,29.4844 289.0625,27.5938 289.0625,25.0156 L289.0625,23.8906 C289.0625,21.1719 291.0625,19.0938 293.6875,19.0938 C294.5625,19.0938 295.1563,19.2344 296.0938,19.6719 Z "/><text fill="#000000" font-family="sans-serif" font-size="12" lengthAdjust="spacingAndGlyphs" textLength="84" x="314.25" y="28.1543">GameContext</text><line style="stroke: #A80036; stroke-width: 1.5;" x1="224.5" x2="455.5" y1="40" y2="40"/><rect fill="none" height="6" style="stroke: #C82930; stroke-width: 1.0;" width="6" x="231.5" y="48.9023"/><text fill="#000000" font-family="sans-serif" font-size="11" lengthAdjust="spacingAndGlyphs" textLength="67" x="243.5" y="54.2104">state: State</text><ellipse cx="234.5" cy="64.707" fill="none" rx="3" ry="3" style="stroke: #038048; stroke-width: 1.0;"/><text fill="#000000" font-family="sans-serif" font-size="11" lengthAdjust="spacingAndGlyphs" textLength="181" x="243.5" y="67.0151">ctx: CanvasRenderingContext2D</text><ellipse cx="234.5" cy="77.5117" fill="none" rx="3" ry="3" style="stroke: #038048; stroke-width: 1.0;"/><text fill="#000000" font-family="sans-serif" font-size="11" lengthAdjust="spacingAndGlyphs" textLength="68" x="243.5" y="79.8198">State: State</text><ellipse cx="234.5" cy="90.3164" fill="none" rx="3" ry="3" style="stroke: #038048; stroke-width: 1.0;"/><text fill="#000000" font-family="sans-serif" font-size="11" lengthAdjust="spacingAndGlyphs" textLength="68" x="243.5" y="92.6245">State: State</text><line style="stroke: #A80036; stroke-width: 1.5;" x1="224.5" x2="455.5" y1="99.2188" y2="99.2188"/><ellipse cx="234.5" cy="111.1211" fill="#84BE84" rx="3" ry="3" style="stroke: #038048; stroke-width: 1.0;"/><text fill="#000000" font-family="sans-serif" font-size="11" lengthAdjust="spacingAndGlyphs" textLength="93" x="243.5" y="113.4292">transition(): void</text><ellipse cx="234.5" cy="123.9258" fill="#84BE84" rx="3" ry="3" style="stroke: #038048; stroke-width: 1.0;"/><text fill="#000000" font-family="sans-serif" font-size="11" lengthAdjust="spacingAndGlyphs" textLength="207" x="243.5" y="126.2339">keyHandler(ev: KeyboardEvent): void</text><ellipse cx="234.5" cy="136.7305" fill="#84BE84" rx="3" ry="3" style="stroke: #038048; stroke-width: 1.0;"/><text fill="#000000" font-family="sans-serif" font-size="11" lengthAdjust="spacingAndGlyphs" textLength="78" x="243.5" y="139.0386">update(): void</text><ellipse cx="234.5" cy="149.5352" fill="#84BE84" rx="3" ry="3" style="stroke: #038048; stroke-width: 1.0;"/><text fill="#000000" font-family="sans-serif" font-size="11" lengthAdjust="spacingAndGlyphs" textLength="90" x="243.5" y="151.8433">renderAll(): void</text><!--class LevelOne--><rect fill="#FEFECE" filter="url(#f3193dkn9ll1i)" height="73.6094" id="LevelOne" style="stroke: #A80036; stroke-width: 1.5;" width="245" x="1181.5" y="237"/><ellipse cx="1271.75" cy="253" fill="#ADD1B2" rx="11" ry="11" style="stroke: #A80036; stroke-width: 1.0;"/><path d="M1274.0938,248.6719 L1274.2656,248.75 C1274.4844,248.4375 1274.6875,248.3438 1274.9844,248.3438 C1275.2813,248.3438 1275.5625,248.4844 1275.7188,248.75 C1275.8125,248.9063 1275.8281,249.0313 1275.8281,249.4688 L1275.8281,250.8906 C1275.8281,251.3125 1275.7969,251.5 1275.6875,251.6563 C1275.5156,251.875 1275.25,252.0156 1274.9844,252.0156 C1274.7656,252.0156 1274.5313,251.9063 1274.3906,251.7656 C1274.25,251.6406 1274.2188,251.5156 1274.1563,251.1094 C1274.0625,250.7031 1273.8906,250.4844 1273.4063,250.2031 C1272.9375,249.9531 1272.3281,249.7969 1271.75,249.7969 C1270.0156,249.7969 1268.7656,251.1094 1268.7656,252.8906 L1268.7656,253.9844 C1268.7656,255.6875 1270.0625,256.7813 1272.1094,256.7813 C1272.875,256.7813 1273.5625,256.6563 1273.9844,256.3906 C1274.1719,256.2969 1274.1719,256.2969 1274.625,255.8125 C1274.8125,255.625 1275.0156,255.5469 1275.2344,255.5469 C1275.7031,255.5469 1276.0938,255.9375 1276.0938,256.3906 C1276.0938,256.7813 1275.7656,257.2344 1275.1875,257.6406 C1274.4375,258.1875 1273.2813,258.4844 1272.0625,258.4844 C1269.1719,258.4844 1267.0625,256.5938 1267.0625,254.0156 L1267.0625,252.8906 C1267.0625,250.1719 1269.0625,248.0938 1271.6875,248.0938 C1272.5625,248.0938 1273.1563,248.2344 1274.0938,248.6719 Z "/><text fill="#000000" font-family="sans-serif" font-size="12" lengthAdjust="spacingAndGlyphs" textLength="56" x="1292.25" y="257.1543">LevelOne</text><line style="stroke: #A80036; stroke-width: 1.5;" x1="1182.5" x2="1425.5" y1="269" y2="269"/><line style="stroke: #A80036; stroke-width: 1.5;" x1="1182.5" x2="1425.5" y1="277" y2="277"/><ellipse cx="1192.5" cy="288.9023" fill="#84BE84" rx="3" ry="3" style="stroke: #038048; stroke-width: 1.0;"/><text fill="#000000" font-family="sans-serif" font-size="11" lengthAdjust="spacingAndGlyphs" textLength="219" x="1201.5" y="291.2104">transition(context: GameContext): void</text><ellipse cx="1192.5" cy="301.707" fill="#84BE84" rx="3" ry="3" style="stroke: #038048; stroke-width: 1.0;"/><text fill="#000000" font-family="sans-serif" font-size="11" lengthAdjust="spacingAndGlyphs" textLength="204" x="1201.5" y="304.0151">update(context: GameContext): void</text><!--class StartScreen--><rect fill="#FEFECE" filter="url(#f3193dkn9ll1i)" height="86.4141" id="StartScreen" style="stroke: #A80036; stroke-width: 1.5;" width="251" x="1461.5" y="231"/><ellipse cx="1545.25" cy="247" fill="#ADD1B2" rx="11" ry="11" style="stroke: #A80036; stroke-width: 1.0;"/><path d="M1547.5938,242.6719 L1547.7656,242.75 C1547.9844,242.4375 1548.1875,242.3438 1548.4844,242.3438 C1548.7813,242.3438 1549.0625,242.4844 1549.2188,242.75 C1549.3125,242.9063 1549.3281,243.0313 1549.3281,243.4688 L1549.3281,244.8906 C1549.3281,245.3125 1549.2969,245.5 1549.1875,245.6563 C1549.0156,245.875 1548.75,246.0156 1548.4844,246.0156 C1548.2656,246.0156 1548.0313,245.9063 1547.8906,245.7656 C1547.75,245.6406 1547.7188,245.5156 1547.6563,245.1094 C1547.5625,244.7031 1547.3906,244.4844 1546.9063,244.2031 C1546.4375,243.9531 1545.8281,243.7969 1545.25,243.7969 C1543.5156,243.7969 1542.2656,245.1094 1542.2656,246.8906 L1542.2656,247.9844 C1542.2656,249.6875 1543.5625,250.7813 1545.6094,250.7813 C1546.375,250.7813 1547.0625,250.6563 1547.4844,250.3906 C1547.6719,250.2969 1547.6719,250.2969 1548.125,249.8125 C1548.3125,249.625 1548.5156,249.5469 1548.7344,249.5469 C1549.2031,249.5469 1549.5938,249.9375 1549.5938,250.3906 C1549.5938,250.7813 1549.2656,251.2344 1548.6875,251.6406 C1547.9375,252.1875 1546.7813,252.4844 1545.5625,252.4844 C1542.6719,252.4844 1540.5625,250.5938 1540.5625,248.0156 L1540.5625,246.8906 C1540.5625,244.1719 1542.5625,242.0938 1545.1875,242.0938 C1546.0625,242.0938 1546.6563,242.2344 1547.5938,242.6719 Z "/><text fill="#000000" font-family="sans-serif" font-size="12" lengthAdjust="spacingAndGlyphs" textLength="75" x="1565.75" y="251.1543">StartScreen</text><line style="stroke: #A80036; stroke-width: 1.5;" x1="1462.5" x2="1711.5" y1="263" y2="263"/><line style="stroke: #A80036; stroke-width: 1.5;" x1="1462.5" x2="1711.5" y1="271" y2="271"/><ellipse cx="1472.5" cy="282.9023" fill="#84BE84" rx="3" ry="3" style="stroke: #038048; stroke-width: 1.0;"/><text fill="#000000" font-family="sans-serif" font-size="11" lengthAdjust="spacingAndGlyphs" textLength="219" x="1481.5" y="285.2104">transition(context: GameContext): void</text><ellipse cx="1472.5" cy="295.707" fill="#84BE84" rx="3" ry="3" style="stroke: #038048; stroke-width: 1.0;"/><text fill="#000000" font-family="sans-serif" font-size="11" lengthAdjust="spacingAndGlyphs" textLength="225" x="1481.5" y="298.0151">keyHandler(event: KeyboardEvent): void</text><ellipse cx="1472.5" cy="308.5117" fill="#84BE84" rx="3" ry="3" style="stroke: #038048; stroke-width: 1.0;"/><text fill="#000000" font-family="sans-serif" font-size="11" lengthAdjust="spacingAndGlyphs" textLength="204" x="1481.5" y="310.8198">update(context: GameContext): void</text><!--class HeroOptions--><rect fill="#FEFECE" filter="url(#f3193dkn9ll1i)" height="60.8047" id="HeroOptions" style="stroke: #A80036; stroke-width: 1.5;" width="183" x="491.5" y="52.5"/><ellipse cx="540.75" cy="68.5" fill="#B4A7E5" rx="11" ry="11" style="stroke: #A80036; stroke-width: 1.0;"/><path d="M541.7031,65.2813 L541.7031,71.7969 L543.4219,71.7969 C543.875,71.7969 544.0156,71.8281 544.1875,71.9531 C544.4219,72.125 544.5313,72.375 544.5313,72.6563 C544.5313,73.2188 544.1719,73.5 543.4219,73.5 L538.2813,73.5 C537.875,73.5 537.6719,73.4531 537.5156,73.3281 C537.2969,73.1719 537.1563,72.9063 537.1563,72.6563 C537.1563,72.3594 537.3125,72.0781 537.5625,71.9219 C537.7188,71.8125 537.8438,71.7969 538.2813,71.7969 L540,71.7969 L540,65.2813 L538.2813,65.2813 C537.8594,65.2813 537.6719,65.25 537.5156,65.1406 C537.2969,64.9688 537.1563,64.7188 537.1563,64.4375 C537.1563,64.1563 537.3125,63.8594 537.5625,63.7031 C537.7188,63.6094 537.8438,63.5938 538.2813,63.5938 L543.4219,63.5938 C543.875,63.5938 544.0156,63.625 544.1875,63.7344 C544.4219,63.9063 544.5313,64.1719 544.5313,64.4375 C544.5313,64.7344 544.3906,65.0156 544.125,65.1719 C544,65.25 543.8125,65.2813 543.4219,65.2813 Z "/><text fill="#000000" font-family="sans-serif" font-size="12" font-style="italic" lengthAdjust="spacingAndGlyphs" textLength="76" x="561.25" y="72.6543">HeroOptions</text><line style="stroke: #A80036; stroke-width: 1.5;" x1="492.5" x2="673.5" y1="84.5" y2="84.5"/><ellipse cx="502.5" cy="96.4023" fill="none" rx="3" ry="3" style="stroke: #038048; stroke-width: 1.0;"/><text fill="#000000" font-family="sans-serif" font-size="11" lengthAdjust="spacingAndGlyphs" textLength="157" x="511.5" y="98.7104">position: [number, number]</text><line style="stroke: #A80036; stroke-width: 1.5;" x1="492.5" x2="673.5" y1="105.3047" y2="105.3047"/><!--class ZombieOptions--><rect fill="#FEFECE" filter="url(#f3193dkn9ll1i)" height="86.4141" id="ZombieOptions" style="stroke: #A80036; stroke-width: 1.5;" width="204" x="6" y="231"/><ellipse cx="57.75" cy="247" fill="#B4A7E5" rx="11" ry="11" style="stroke: #A80036; stroke-width: 1.0;"/><path d="M58.7031,243.7813 L58.7031,250.2969 L60.4219,250.2969 C60.875,250.2969 61.0156,250.3281 61.1875,250.4531 C61.4219,250.625 61.5313,250.875 61.5313,251.1563 C61.5313,251.7188 61.1719,252 60.4219,252 L55.2813,252 C54.875,252 54.6719,251.9531 54.5156,251.8281 C54.2969,251.6719 54.1563,251.4063 54.1563,251.1563 C54.1563,250.8594 54.3125,250.5781 54.5625,250.4219 C54.7188,250.3125 54.8438,250.2969 55.2813,250.2969 L57,250.2969 L57,243.7813 L55.2813,243.7813 C54.8594,243.7813 54.6719,243.75 54.5156,243.6406 C54.2969,243.4688 54.1563,243.2188 54.1563,242.9375 C54.1563,242.6563 54.3125,242.3594 54.5625,242.2031 C54.7188,242.1094 54.8438,242.0938 55.2813,242.0938 L60.4219,242.0938 C60.875,242.0938 61.0156,242.125 61.1875,242.2344 C61.4219,242.4063 61.5313,242.6719 61.5313,242.9375 C61.5313,243.2344 61.3906,243.5156 61.125,243.6719 C61,243.75 60.8125,243.7813 60.4219,243.7813 Z "/><text fill="#000000" font-family="sans-serif" font-size="12" font-style="italic" lengthAdjust="spacingAndGlyphs" textLength="92" x="78.25" y="251.1543">ZombieOptions</text><line style="stroke: #A80036; stroke-width: 1.5;" x1="7" x2="209" y1="263" y2="263"/><ellipse cx="17" cy="274.9023" fill="none" rx="3" ry="3" style="stroke: #038048; stroke-width: 1.0;"/><text fill="#000000" font-family="sans-serif" font-size="11" lengthAdjust="spacingAndGlyphs" textLength="178" x="26" y="277.2104">widthHeight: [number, number]</text><ellipse cx="17" cy="287.707" fill="none" rx="3" ry="3" style="stroke: #038048; stroke-width: 1.0;"/><text fill="#000000" font-family="sans-serif" font-size="11" lengthAdjust="spacingAndGlyphs" textLength="154" x="26" y="290.0151">image: HTMLImageElement</text><ellipse cx="17" cy="300.5117" fill="none" rx="3" ry="3" style="stroke: #038048; stroke-width: 1.0;"/><text fill="#000000" font-family="sans-serif" font-size="11" lengthAdjust="spacingAndGlyphs" textLength="157" x="26" y="302.8198">position: [number, number]</text><line style="stroke: #A80036; stroke-width: 1.5;" x1="7" x2="209" y1="309.4141" y2="309.4141"/><!--class BulletOptions--><rect fill="#FEFECE" filter="url(#f3193dkn9ll1i)" height="73.6094" id="BulletOptions" style="stroke: #A80036; stroke-width: 1.5;" width="183" x="245.5" y="237"/><ellipse cx="292.25" cy="253" fill="#B4A7E5" rx="11" ry="11" style="stroke: #A80036; stroke-width: 1.0;"/><path d="M293.2031,249.7813 L293.2031,256.2969 L294.9219,256.2969 C295.375,256.2969 295.5156,256.3281 295.6875,256.4531 C295.9219,256.625 296.0313,256.875 296.0313,257.1563 C296.0313,257.7188 295.6719,258 294.9219,258 L289.7813,258 C289.375,258 289.1719,257.9531 289.0156,257.8281 C288.7969,257.6719 288.6563,257.4063 288.6563,257.1563 C288.6563,256.8594 288.8125,256.5781 289.0625,256.4219 C289.2188,256.3125 289.3438,256.2969 289.7813,256.2969 L291.5,256.2969 L291.5,249.7813 L289.7813,249.7813 C289.3594,249.7813 289.1719,249.75 289.0156,249.6406 C288.7969,249.4688 288.6563,249.2188 288.6563,248.9375 C288.6563,248.6563 288.8125,248.3594 289.0625,248.2031 C289.2188,248.1094 289.3438,248.0938 289.7813,248.0938 L294.9219,248.0938 C295.375,248.0938 295.5156,248.125 295.6875,248.2344 C295.9219,248.4063 296.0313,248.6719 296.0313,248.9375 C296.0313,249.2344 295.8906,249.5156 295.625,249.6719 C295.5,249.75 295.3125,249.7813 294.9219,249.7813 Z "/><text fill="#000000" font-family="sans-serif" font-size="12" font-style="italic" lengthAdjust="spacingAndGlyphs" textLength="81" x="312.75" y="257.1543">BulletOptions</text><line style="stroke: #A80036; stroke-width: 1.5;" x1="246.5" x2="427.5" y1="269" y2="269"/><ellipse cx="256.5" cy="280.9023" fill="none" rx="3" ry="3" style="stroke: #038048; stroke-width: 1.0;"/><text fill="#000000" font-family="sans-serif" font-size="11" lengthAdjust="spacingAndGlyphs" textLength="157" x="265.5" y="283.2104">position: [number, number]</text><ellipse cx="256.5" cy="293.707" fill="none" rx="3" ry="3" style="stroke: #038048; stroke-width: 1.0;"/><text fill="#000000" font-family="sans-serif" font-size="11" lengthAdjust="spacingAndGlyphs" textLength="96" x="265.5" y="296.0151">rotation: number</text><line style="stroke: #A80036; stroke-width: 1.5;" x1="246.5" x2="427.5" y1="302.6094" y2="302.6094"/><!--class Init--><rect fill="#FEFECE" filter="url(#f3193dkn9ll1i)" height="86.4141" id="Init" style="stroke: #A80036; stroke-width: 1.5;" width="273" x="1747.5" y="231"/><ellipse cx="1870.25" cy="247" fill="#ADD1B2" rx="11" ry="11" style="stroke: #A80036; stroke-width: 1.0;"/><path d="M1872.5938,242.6719 L1872.7656,242.75 C1872.9844,242.4375 1873.1875,242.3438 1873.4844,242.3438 C1873.7813,242.3438 1874.0625,242.4844 1874.2188,242.75 C1874.3125,242.9063 1874.3281,243.0313 1874.3281,243.4688 L1874.3281,244.8906 C1874.3281,245.3125 1874.2969,245.5 1874.1875,245.6563 C1874.0156,245.875 1873.75,246.0156 1873.4844,246.0156 C1873.2656,246.0156 1873.0313,245.9063 1872.8906,245.7656 C1872.75,245.6406 1872.7188,245.5156 1872.6563,245.1094 C1872.5625,244.7031 1872.3906,244.4844 1871.9063,244.2031 C1871.4375,243.9531 1870.8281,243.7969 1870.25,243.7969 C1868.5156,243.7969 1867.2656,245.1094 1867.2656,246.8906 L1867.2656,247.9844 C1867.2656,249.6875 1868.5625,250.7813 1870.6094,250.7813 C1871.375,250.7813 1872.0625,250.6563 1872.4844,250.3906 C1872.6719,250.2969 1872.6719,250.2969 1873.125,249.8125 C1873.3125,249.625 1873.5156,249.5469 1873.7344,249.5469 C1874.2031,249.5469 1874.5938,249.9375 1874.5938,250.3906 C1874.5938,250.7813 1874.2656,251.2344 1873.6875,251.6406 C1872.9375,252.1875 1871.7813,252.4844 1870.5625,252.4844 C1867.6719,252.4844 1865.5625,250.5938 1865.5625,248.0156 L1865.5625,246.8906 C1865.5625,244.1719 1867.5625,242.0938 1870.1875,242.0938 C1871.0625,242.0938 1871.6563,242.2344 1872.5938,242.6719 Z "/><text fill="#000000" font-family="sans-serif" font-size="12" lengthAdjust="spacingAndGlyphs" textLength="19" x="1890.75" y="251.1543">Init</text><line style="stroke: #A80036; stroke-width: 1.5;" x1="1748.5" x2="2019.5" y1="263" y2="263"/><line style="stroke: #A80036; stroke-width: 1.5;" x1="1748.5" x2="2019.5" y1="271" y2="271"/><ellipse cx="1758.5" cy="282.9023" fill="#84BE84" rx="3" ry="3" style="stroke: #038048; stroke-width: 1.0;"/><text fill="#000000" font-family="sans-serif" font-size="11" lengthAdjust="spacingAndGlyphs" textLength="219" x="1767.5" y="285.2104">transition(context: GameContext): void</text><ellipse cx="1758.5" cy="295.707" fill="#84BE84" rx="3" ry="3" style="stroke: #038048; stroke-width: 1.0;"/><text fill="#000000" font-family="sans-serif" font-size="11" lengthAdjust="spacingAndGlyphs" textLength="204" x="1767.5" y="298.0151">update(context: GameContext): void</text><ellipse cx="1758.5" cy="308.5117" fill="#84BE84" rx="3" ry="3" style="stroke: #038048; stroke-width: 1.0;"/><text fill="#000000" font-family="sans-serif" font-size="11" lengthAdjust="spacingAndGlyphs" textLength="247" x="1767.5" y="310.8198">init(context: GameContext): Promise&lt;void&gt;</text><!--link BitmapCharacter to Zombie--><path d="M823,496.05 C823,511.103 823,527.194 823,542.234 " fill="none" id="BitmapCharacter-Zombie" style="stroke: #A80036; stroke-width: 1.0;"/><polygon fill="none" points="816,496.023,823,476.022,830,496.022,816,496.023" style="stroke: #A80036; stroke-width: 1.0;"/><!--link VectorCharacter to Bullet--><path d="M1119.31,495.65 C1115.72,513.093 1111.83,531.958 1108.33,548.982 " fill="none" id="VectorCharacter-Bullet" style="stroke: #A80036; stroke-width: 1.0;"/><polygon fill="none" points="1112.46,494.2,1123.35,476.022,1126.17,497.023,1112.46,494.2" style="stroke: #A80036; stroke-width: 1.0;"/><!--link GameObject to BaseCharacter--><path d="M1059.97,155.635 C1045.6,176.214 1030.15,198.331 1016.58,217.757 " fill="none" id="GameObject-BaseCharacter" style="stroke: #A80036; stroke-width: 1.0;"/><polygon fill="none" points="1054.27,151.563,1071.47,139.175,1065.75,159.58,1054.27,151.563" style="stroke: #A80036; stroke-width: 1.0;"/><!--link Drawable to BaseCharacter--><path d="M883.712,136.966 C901.159,162.137 922.007,192.216 939.658,217.682 " fill="none" id="Drawable-BaseCharacter" style="stroke: #A80036; stroke-width: 1.0; stroke-dasharray: 7.0,7.0;"/><polygon fill="none" points="877.898,140.866,872.258,120.441,889.405,132.891,877.898,140.866" style="stroke: #A80036; stroke-width: 1.0;"/><!--link BaseCharacter to VectorCharacter--><path d="M1046.55,344.886 C1061.64,360.269 1077.17,376.099 1090.78,389.974 " fill="none" id="BaseCharacter-VectorCharacter" style="stroke: #A80036; stroke-width: 1.0;"/><polygon fill="none" points="1041.3,349.532,1032.29,330.352,1051.3,339.728,1041.3,349.532" style="stroke: #A80036; stroke-width: 1.0;"/><!--link BaseCharacter to BitmapCharacter--><path d="M909.004,344.886 C893.817,360.269 878.189,376.099 864.491,389.974 " fill="none" id="BaseCharacter-BitmapCharacter" style="stroke: #A80036; stroke-width: 1.0;"/><polygon fill="none" points="904.32,339.667,923.353,330.352,914.283,349.503,904.32,339.667" style="stroke: #A80036; stroke-width: 1.0;"/><!--link VectorCharacter to Hero--><path d="M1197.95,488.96 C1215.82,503.847 1235.37,520.146 1254.01,535.672 " fill="none" id="VectorCharacter-Hero" style="stroke: #A80036; stroke-width: 1.0;"/><polygon fill="none" points="1193.31,494.204,1182.43,476.022,1202.27,483.449,1193.31,494.204" style="stroke: #A80036; stroke-width: 1.0;"/><!--link Base to LevelOne--><path d="M1653.91,141.536 C1641.91,147.346 1629.77,152.956 1618,158 C1542.81,190.216 1520.75,189.705 1444,218 C1427.83,223.962 1410.69,230.505 1394.16,236.934 " fill="none" id="Base-LevelOne" style="stroke: #A80036; stroke-width: 1.0;"/><polygon fill="none" points="1650.92,135.208,1671.95,132.611,1657.13,147.756,1650.92,135.208" style="stroke: #A80036; stroke-width: 1.0;"/><!--link State to LevelOne--><path d="M1417.37,147.696 C1390.54,177.355 1359.59,211.56 1336.81,236.732 " fill="none" id="State-LevelOne" style="stroke: #A80036; stroke-width: 1.0; stroke-dasharray: 7.0,7.0;"/><polygon fill="none" points="1412.35,142.807,1430.96,132.672,1422.74,152.199,1412.35,142.807" style="stroke: #A80036; stroke-width: 1.0;"/><!--link Base to StartScreen--><path d="M1702.57,147.468 C1677.27,174.954 1648.33,206.379 1625.75,230.912 " fill="none" id="Base-StartScreen" style="stroke: #A80036; stroke-width: 1.0;"/><polygon fill="none" points="1697.49,142.645,1716.19,132.672,1707.79,152.127,1697.49,142.645" style="stroke: #A80036; stroke-width: 1.0;"/><!--link State to StartScreen--><path d="M1514.2,150.152 C1530.1,176.983 1547.99,207.174 1562.06,230.912 " fill="none" id="State-StartScreen" style="stroke: #A80036; stroke-width: 1.0; stroke-dasharray: 7.0,7.0;"/><polygon fill="none" points="1508.02,153.447,1503.84,132.672,1520.06,146.309,1508.02,153.447" style="stroke: #A80036; stroke-width: 1.0;"/><!--link Base to Init--><path d="M1803.8,149.767 C1821.32,176.694 1841.09,207.06 1856.61,230.912 " fill="none" id="Base-Init" style="stroke: #A80036; stroke-width: 1.0;"/><polygon fill="none" points="1797.72,153.253,1792.68,132.672,1809.45,145.617,1797.72,153.253" style="stroke: #A80036; stroke-width: 1.0;"/><!--link State to Init--><path d="M1584.6,141.695 C1595.83,147.311 1607.11,152.835 1618,158 C1671.64,183.437 1732.35,209.858 1782.21,230.951 " fill="none" id="State-Init" style="stroke: #A80036; stroke-width: 1.0; stroke-dasharray: 7.0,7.0;"/><polygon fill="none" points="1581.15,147.791,1566.45,132.521,1587.46,135.297,1581.15,147.791" style="stroke: #A80036; stroke-width: 1.0;"/><!--link InGameKeys to GameContext--><!--link GameContext to HeroOptions--><!--link InGameKeys to ZombieOptions--><!--link ZombieOptions to BulletOptions--><!--
@startuml
class Zombie extends BitmapCharacter {
    +kind: "zombie" | undefined
    +widthHeight: [number, number]
    +image: HTMLImageElement
    +position: [number, number]
    +update(): void
    -randomStumble(): void
}
class Bullet extends VectorCharacter {
    +kind: "bullet" | undefined
    +widthHeight: [number, number]
    +color: string
    +position: [number, number]
    +update(): void
}
interface Drawable {
    +update(state?: any): void
    +draw(ctx: CanvasRenderingContext2D): void
}
abstract class GameObject {
    +rotation: number
    +scale: [number, number]
    +{abstract} position: [number, number]
    +x: number
    +y: number
}
abstract class BaseCharacter extends GameObject implements Drawable {
    +lives: number
    +velocity: [number, number]
    +update(state?: any): void
    +directTowards(targetPosition: [number, number]): void
    +{abstract} draw(ctx: CanvasRenderingContext2D): void
}
abstract class VectorCharacter extends BaseCharacter {
    +draw(ctx: CanvasRenderingContext2D): void
    +{abstract} color: string
    +{abstract} widthHeight: [number, number]
}
abstract class BitmapCharacter extends BaseCharacter {
    +draw(ctx: CanvasRenderingContext2D): void
    +{abstract} image: HTMLImageElement
    +{abstract} widthHeight: [number, number]
}
class Hero extends VectorCharacter {
    +kind: "hero" | undefined
    +lives: number
    +widthHeight: [number, number]
    +color: string
    +firePaused: boolean
    +position: [number, number]
    +update(state: any): void
}
interface State {
    +transition(context: GameContext): void
    +keyHandler(event: KeyboardEvent): void
    +update(context: GameContext): void
    +renderAll(context: GameContext): void
}
interface InGameKeys {
    +startPressed: boolean
    +firePressed: boolean
    +leftPressed: boolean
    +rightPressed: boolean
    +pausePressed: boolean
}
abstract class Base {
    +entities: { [key: string]: Drawable[]; }
    #inGameKeys: InGameKeys
    +renderAll(context: GameContext): void
    +keyHandler(event: KeyboardEvent): void
}
class GameContext {
    -state: State
    +ctx: CanvasRenderingContext2D
    +State: State
    +State: State
    +transition(): void
    +keyHandler(ev: KeyboardEvent): void
    +update(): void
    +renderAll(): void
}
class LevelOne extends Base implements State {
    +transition(context: GameContext): void
    +update(context: GameContext): void
}
class StartScreen extends Base implements State {
    +transition(context: GameContext): void
    +keyHandler(event: KeyboardEvent): void
    +update(context: GameContext): void
}
interface HeroOptions {
    +position: [number, number]
}
interface ZombieOptions {
    +widthHeight: [number, number]
    +image: HTMLImageElement
    +position: [number, number]
}
interface BulletOptions {
    +position: [number, number]
    +rotation: number
}
class Init extends Base implements State {
    +transition(context: GameContext): void
    +update(context: GameContext): void
    +init(context: GameContext): Promise<void>
}
@enduml

PlantUML version 1.2019.07beta1(Unknown compile time)
(GPL source distribution)
Java Runtime: Java(TM) SE Runtime Environment
JVM: Java HotSpot(TM) 64-Bit Server VM
Java Version: 1.7.0_25-b15
Operating System: Linux
Default Encoding: UTF-8
Language: en
Country: US
--></g></svg>