<?xml version="1.0" encoding="UTF-8" standalone="no"?><svg xmlns="http://www.w3.org/2000/svg" xmlns:xlink="http://www.w3.org/1999/xlink" contentScriptType="application/ecmascript" contentStyleType="text/css" height="774px" preserveAspectRatio="none" style="width:3095px;height:774px;" version="1.1" viewBox="0 0 3095 774" width="3095px" zoomAndPan="magnify"><defs><filter height="300%" id="f1gje4smkq9ny5" width="300%" x="-1" y="-1"><feGaussianBlur result="blurOut" stdDeviation="2.0"/><feColorMatrix in="blurOut" result="blurOut2" type="matrix" values="0 0 0 0 0 0 0 0 0 0 0 0 0 0 0 0 0 0 .4 0"/><feOffset dx="4.0" dy="4.0" in="blurOut2" result="blurOut3"/><feBlend in="SourceGraphic" in2="blurOut3" mode="normal"/></filter></defs><g><!--class Drawable--><rect fill="#FEFECE" filter="url(#f1gje4smkq9ny5)" height="73.6094" id="Drawable" style="stroke: #A80036; stroke-width: 1.5;" width="349" x="1605" y="218"/><ellipse cx="1745.75" cy="234" fill="#B4A7E5" rx="11" ry="11" style="stroke: #A80036; stroke-width: 1.0;"/><path d="M1746.7031,230.7813 L1746.7031,237.2969 L1748.4219,237.2969 C1748.875,237.2969 1749.0156,237.3281 1749.1875,237.4531 C1749.4219,237.625 1749.5313,237.875 1749.5313,238.1563 C1749.5313,238.7188 1749.1719,239 1748.4219,239 L1743.2813,239 C1742.875,239 1742.6719,238.9531 1742.5156,238.8281 C1742.2969,238.6719 1742.1563,238.4063 1742.1563,238.1563 C1742.1563,237.8594 1742.3125,237.5781 1742.5625,237.4219 C1742.7188,237.3125 1742.8438,237.2969 1743.2813,237.2969 L1745,237.2969 L1745,230.7813 L1743.2813,230.7813 C1742.8594,230.7813 1742.6719,230.75 1742.5156,230.6406 C1742.2969,230.4688 1742.1563,230.2188 1742.1563,229.9375 C1742.1563,229.6563 1742.3125,229.3594 1742.5625,229.2031 C1742.7188,229.1094 1742.8438,229.0938 1743.2813,229.0938 L1748.4219,229.0938 C1748.875,229.0938 1749.0156,229.125 1749.1875,229.2344 C1749.4219,229.4063 1749.5313,229.6719 1749.5313,229.9375 C1749.5313,230.2344 1749.3906,230.5156 1749.125,230.6719 C1749,230.75 1748.8125,230.7813 1748.4219,230.7813 Z "/><text fill="#000000" font-family="sans-serif" font-size="12" font-style="italic" lengthAdjust="spacingAndGlyphs" textLength="59" x="1766.25" y="238.1543">Drawable</text><line style="stroke: #A80036; stroke-width: 1.5;" x1="1606" x2="1953" y1="250" y2="250"/><line style="stroke: #A80036; stroke-width: 1.5;" x1="1606" x2="1953" y1="258" y2="258"/><ellipse cx="1616" cy="269.9023" fill="#84BE84" rx="3" ry="3" style="stroke: #038048; stroke-width: 1.0;"/><text fill="#000000" font-family="sans-serif" font-size="11" lengthAdjust="spacingAndGlyphs" textLength="323" x="1625" y="272.2104">updatePosition(context?: GameContext | undefined): void</text><ellipse cx="1616" cy="282.707" fill="#84BE84" rx="3" ry="3" style="stroke: #038048; stroke-width: 1.0;"/><text fill="#000000" font-family="sans-serif" font-size="11" lengthAdjust="spacingAndGlyphs" textLength="248" x="1625" y="285.0151">draw(ctx: CanvasRenderingContext2D): void</text><!--class GameObject--><rect fill="#FEFECE" filter="url(#f1gje4smkq9ny5)" height="99.2188" id="GameObject" style="stroke: #A80036; stroke-width: 1.5;" width="182" x="1545.5" y="8"/><ellipse cx="1594.75" cy="24" fill="#A9DCDF" rx="11" ry="11" style="stroke: #A80036; stroke-width: 1.0;"/><path d="M1596.3281,25.8125 L1592.2813,25.8125 L1591.8906,26.7969 L1592.2813,26.7969 C1592.7344,26.7969 1592.875,26.8281 1593.0469,26.9531 C1593.2656,27.125 1593.3906,27.375 1593.3906,27.6563 C1593.3906,27.9375 1593.25,28.2344 1592.9844,28.375 C1592.8594,28.4688 1592.6406,28.5 1592.2813,28.5 L1590.0156,28.5 C1589.2656,28.5 1588.8906,28.2188 1588.8906,27.6563 C1588.8906,27.3594 1589.0469,27.0781 1589.2969,26.9219 C1589.4531,26.8125 1589.6094,26.7969 1590.0313,26.7969 L1592.6719,20.2813 L1591.5938,20.2813 C1591.1563,20.2813 1590.9844,20.25 1590.8125,20.1406 C1590.5938,19.9688 1590.4531,19.7188 1590.4531,19.4375 C1590.4531,19.1563 1590.6094,18.875 1590.8594,18.7031 C1591.0156,18.6094 1591.1406,18.5938 1591.5938,18.5938 L1595.2656,18.5938 L1598.6563,26.7969 C1599.125,26.7969 1599.2813,26.8281 1599.4531,26.9688 C1599.6719,27.125 1599.8125,27.375 1599.8125,27.6563 C1599.8125,27.9375 1599.6563,28.2344 1599.4063,28.375 C1599.2656,28.4688 1599.0469,28.5 1598.6875,28.5 L1596.3281,28.5 C1595.9063,28.5 1595.7031,28.4531 1595.5625,28.3281 C1595.3438,28.1719 1595.2031,27.9219 1595.2031,27.6563 C1595.2031,27.3594 1595.3594,27.0781 1595.6094,26.9219 C1595.7656,26.8125 1595.875,26.7969 1596.3281,26.7969 L1596.7188,26.7969 Z M1595.625,24.1094 L1594.2969,20.8438 L1592.9531,24.1094 Z "/><text fill="#000000" font-family="sans-serif" font-size="12" font-style="italic" lengthAdjust="spacingAndGlyphs" textLength="75" x="1615.25" y="28.1543">GameObject</text><line style="stroke: #A80036; stroke-width: 1.5;" x1="1546.5" x2="1726.5" y1="40" y2="40"/><ellipse cx="1556.5" cy="51.9023" fill="none" rx="3" ry="3" style="stroke: #038048; stroke-width: 1.0;"/><text fill="#000000" font-family="sans-serif" font-size="11" lengthAdjust="spacingAndGlyphs" textLength="96" x="1565.5" y="54.2104">rotation: number</text><polygon fill="none" points="1556.5,59.707,1560.5,63.707,1556.5,67.707,1552.5,63.707" style="stroke: #B38D22; stroke-width: 1.0;"/><text fill="#000000" font-family="sans-serif" font-size="11" font-style="italic" lengthAdjust="spacingAndGlyphs" textLength="156" x="1565.5" y="67.0151">position: [number, number]</text><ellipse cx="1556.5" cy="77.5117" fill="none" rx="3" ry="3" style="stroke: #038048; stroke-width: 1.0;"/><text fill="#000000" font-family="sans-serif" font-size="11" lengthAdjust="spacingAndGlyphs" textLength="58" x="1565.5" y="79.8198">x: number</text><ellipse cx="1556.5" cy="90.3164" fill="none" rx="3" ry="3" style="stroke: #038048; stroke-width: 1.0;"/><text fill="#000000" font-family="sans-serif" font-size="11" lengthAdjust="spacingAndGlyphs" textLength="58" x="1565.5" y="92.6245">y: number</text><line style="stroke: #A80036; stroke-width: 1.5;" x1="1546.5" x2="1726.5" y1="99.2188" y2="99.2188"/><!--class BaseCharacter--><rect fill="#FEFECE" filter="url(#f1gje4smkq9ny5)" height="99.2188" id="BaseCharacter" style="stroke: #A80036; stroke-width: 1.5;" width="349" x="1221" y="205.5"/><ellipse cx="1345.25" cy="221.5" fill="#A9DCDF" rx="11" ry="11" style="stroke: #A80036; stroke-width: 1.0;"/><path d="M1346.8281,223.3125 L1342.7813,223.3125 L1342.3906,224.2969 L1342.7813,224.2969 C1343.2344,224.2969 1343.375,224.3281 1343.5469,224.4531 C1343.7656,224.625 1343.8906,224.875 1343.8906,225.1563 C1343.8906,225.4375 1343.75,225.7344 1343.4844,225.875 C1343.3594,225.9688 1343.1406,226 1342.7813,226 L1340.5156,226 C1339.7656,226 1339.3906,225.7188 1339.3906,225.1563 C1339.3906,224.8594 1339.5469,224.5781 1339.7969,224.4219 C1339.9531,224.3125 1340.1094,224.2969 1340.5313,224.2969 L1343.1719,217.7813 L1342.0938,217.7813 C1341.6563,217.7813 1341.4844,217.75 1341.3125,217.6406 C1341.0938,217.4688 1340.9531,217.2188 1340.9531,216.9375 C1340.9531,216.6563 1341.1094,216.375 1341.3594,216.2031 C1341.5156,216.1094 1341.6406,216.0938 1342.0938,216.0938 L1345.7656,216.0938 L1349.1563,224.2969 C1349.625,224.2969 1349.7813,224.3281 1349.9531,224.4688 C1350.1719,224.625 1350.3125,224.875 1350.3125,225.1563 C1350.3125,225.4375 1350.1563,225.7344 1349.9063,225.875 C1349.7656,225.9688 1349.5469,226 1349.1875,226 L1346.8281,226 C1346.4063,226 1346.2031,225.9531 1346.0625,225.8281 C1345.8438,225.6719 1345.7031,225.4219 1345.7031,225.1563 C1345.7031,224.8594 1345.8594,224.5781 1346.1094,224.4219 C1346.2656,224.3125 1346.375,224.2969 1346.8281,224.2969 L1347.2188,224.2969 Z M1346.125,221.6094 L1344.7969,218.3438 L1343.4531,221.6094 Z "/><text fill="#000000" font-family="sans-serif" font-size="12" font-style="italic" lengthAdjust="spacingAndGlyphs" textLength="92" x="1365.75" y="225.6543">BaseCharacter</text><line style="stroke: #A80036; stroke-width: 1.5;" x1="1222" x2="1569" y1="237.5" y2="237.5"/><polygon fill="none" points="1232,244.4023,1236,248.4023,1232,252.4023,1228,248.4023" style="stroke: #B38D22; stroke-width: 1.0;"/><text fill="#000000" font-family="sans-serif" font-size="11" lengthAdjust="spacingAndGlyphs" textLength="78" x="1241" y="251.7104">lives: number</text><polygon fill="none" points="1232,257.207,1236,261.207,1232,265.207,1228,261.207" style="stroke: #B38D22; stroke-width: 1.0;"/><text fill="#000000" font-family="sans-serif" font-size="11" lengthAdjust="spacingAndGlyphs" textLength="154" x="1241" y="264.5151">velocity: [number, number]</text><line style="stroke: #A80036; stroke-width: 1.5;" x1="1222" x2="1569" y1="271.1094" y2="271.1094"/><ellipse cx="1232" cy="283.0117" fill="#84BE84" rx="3" ry="3" style="stroke: #038048; stroke-width: 1.0;"/><text fill="#000000" font-family="sans-serif" font-size="11" lengthAdjust="spacingAndGlyphs" textLength="323" x="1241" y="285.3198">updatePosition(context?: GameContext | undefined): void</text><polygon fill="#FFFF44" points="1232,290.8164,1236,294.8164,1232,298.8164,1228,294.8164" style="stroke: #B38D22; stroke-width: 1.0;"/><text fill="#000000" font-family="sans-serif" font-size="11" lengthAdjust="spacingAndGlyphs" textLength="311" x="1241" y="298.1245">directTowards(targetPosition: [number, number]): void</text><!--class VectorCharacter--><rect fill="#FEFECE" filter="url(#f1gje4smkq9ny5)" height="86.4141" id="VectorCharacter" style="stroke: #A80036; stroke-width: 1.5;" width="274" x="1553.5" y="441.5"/><ellipse cx="1634.75" cy="457.5" fill="#A9DCDF" rx="11" ry="11" style="stroke: #A80036; stroke-width: 1.0;"/><path d="M1636.3281,459.3125 L1632.2813,459.3125 L1631.8906,460.2969 L1632.2813,460.2969 C1632.7344,460.2969 1632.875,460.3281 1633.0469,460.4531 C1633.2656,460.625 1633.3906,460.875 1633.3906,461.1563 C1633.3906,461.4375 1633.25,461.7344 1632.9844,461.875 C1632.8594,461.9688 1632.6406,462 1632.2813,462 L1630.0156,462 C1629.2656,462 1628.8906,461.7188 1628.8906,461.1563 C1628.8906,460.8594 1629.0469,460.5781 1629.2969,460.4219 C1629.4531,460.3125 1629.6094,460.2969 1630.0313,460.2969 L1632.6719,453.7813 L1631.5938,453.7813 C1631.1563,453.7813 1630.9844,453.75 1630.8125,453.6406 C1630.5938,453.4688 1630.4531,453.2188 1630.4531,452.9375 C1630.4531,452.6563 1630.6094,452.375 1630.8594,452.2031 C1631.0156,452.1094 1631.1406,452.0938 1631.5938,452.0938 L1635.2656,452.0938 L1638.6563,460.2969 C1639.125,460.2969 1639.2813,460.3281 1639.4531,460.4688 C1639.6719,460.625 1639.8125,460.875 1639.8125,461.1563 C1639.8125,461.4375 1639.6563,461.7344 1639.4063,461.875 C1639.2656,461.9688 1639.0469,462 1638.6875,462 L1636.3281,462 C1635.9063,462 1635.7031,461.9531 1635.5625,461.8281 C1635.3438,461.6719 1635.2031,461.4219 1635.2031,461.1563 C1635.2031,460.8594 1635.3594,460.5781 1635.6094,460.4219 C1635.7656,460.3125 1635.875,460.2969 1636.3281,460.2969 L1636.7188,460.2969 Z M1635.625,457.6094 L1634.2969,454.3438 L1632.9531,457.6094 Z "/><text fill="#000000" font-family="sans-serif" font-size="12" font-style="italic" lengthAdjust="spacingAndGlyphs" textLength="103" x="1655.25" y="461.6543">VectorCharacter</text><line style="stroke: #A80036; stroke-width: 1.5;" x1="1554.5" x2="1826.5" y1="473.5" y2="473.5"/><polygon fill="none" points="1564.5,480.4023,1568.5,484.4023,1564.5,488.4023,1560.5,484.4023" style="stroke: #B38D22; stroke-width: 1.0;"/><text fill="#000000" font-family="sans-serif" font-size="11" font-style="italic" lengthAdjust="spacingAndGlyphs" textLength="68" x="1573.5" y="487.7104">color: string</text><ellipse cx="1564.5" cy="498.207" fill="none" rx="3" ry="3" style="stroke: #038048; stroke-width: 1.0;"/><text fill="#000000" font-family="sans-serif" font-size="11" font-style="italic" lengthAdjust="spacingAndGlyphs" textLength="178" x="1573.5" y="500.5151">widthHeight: [number, number]</text><line style="stroke: #A80036; stroke-width: 1.5;" x1="1554.5" x2="1826.5" y1="507.1094" y2="507.1094"/><ellipse cx="1564.5" cy="519.0117" fill="#84BE84" rx="3" ry="3" style="stroke: #038048; stroke-width: 1.0;"/><text fill="#000000" font-family="sans-serif" font-size="11" lengthAdjust="spacingAndGlyphs" textLength="248" x="1573.5" y="521.3198">draw(ctx: CanvasRenderingContext2D): void</text><!--class BitmapCharacter--><rect fill="#FEFECE" filter="url(#f1gje4smkq9ny5)" height="86.4141" id="BitmapCharacter" style="stroke: #A80036; stroke-width: 1.5;" width="274" x="1244.5" y="441.5"/><ellipse cx="1324.75" cy="457.5" fill="#A9DCDF" rx="11" ry="11" style="stroke: #A80036; stroke-width: 1.0;"/><path d="M1326.3281,459.3125 L1322.2813,459.3125 L1321.8906,460.2969 L1322.2813,460.2969 C1322.7344,460.2969 1322.875,460.3281 1323.0469,460.4531 C1323.2656,460.625 1323.3906,460.875 1323.3906,461.1563 C1323.3906,461.4375 1323.25,461.7344 1322.9844,461.875 C1322.8594,461.9688 1322.6406,462 1322.2813,462 L1320.0156,462 C1319.2656,462 1318.8906,461.7188 1318.8906,461.1563 C1318.8906,460.8594 1319.0469,460.5781 1319.2969,460.4219 C1319.4531,460.3125 1319.6094,460.2969 1320.0313,460.2969 L1322.6719,453.7813 L1321.5938,453.7813 C1321.1563,453.7813 1320.9844,453.75 1320.8125,453.6406 C1320.5938,453.4688 1320.4531,453.2188 1320.4531,452.9375 C1320.4531,452.6563 1320.6094,452.375 1320.8594,452.2031 C1321.0156,452.1094 1321.1406,452.0938 1321.5938,452.0938 L1325.2656,452.0938 L1328.6563,460.2969 C1329.125,460.2969 1329.2813,460.3281 1329.4531,460.4688 C1329.6719,460.625 1329.8125,460.875 1329.8125,461.1563 C1329.8125,461.4375 1329.6563,461.7344 1329.4063,461.875 C1329.2656,461.9688 1329.0469,462 1328.6875,462 L1326.3281,462 C1325.9063,462 1325.7031,461.9531 1325.5625,461.8281 C1325.3438,461.6719 1325.2031,461.4219 1325.2031,461.1563 C1325.2031,460.8594 1325.3594,460.5781 1325.6094,460.4219 C1325.7656,460.3125 1325.875,460.2969 1326.3281,460.2969 L1326.7188,460.2969 Z M1325.625,457.6094 L1324.2969,454.3438 L1322.9531,457.6094 Z "/><text fill="#000000" font-family="sans-serif" font-size="12" font-style="italic" lengthAdjust="spacingAndGlyphs" textLength="105" x="1345.25" y="461.6543">BitmapCharacter</text><line style="stroke: #A80036; stroke-width: 1.5;" x1="1245.5" x2="1517.5" y1="473.5" y2="473.5"/><polygon fill="none" points="1255.5,480.4023,1259.5,484.4023,1255.5,488.4023,1251.5,484.4023" style="stroke: #B38D22; stroke-width: 1.0;"/><text fill="#000000" font-family="sans-serif" font-size="11" font-style="italic" lengthAdjust="spacingAndGlyphs" textLength="154" x="1264.5" y="487.7104">image: HTMLImageElement</text><polygon fill="none" points="1255.5,493.207,1259.5,497.207,1255.5,501.207,1251.5,497.207" style="stroke: #B38D22; stroke-width: 1.0;"/><text fill="#000000" font-family="sans-serif" font-size="11" font-style="italic" lengthAdjust="spacingAndGlyphs" textLength="178" x="1264.5" y="500.5151">widthHeight: [number, number]</text><line style="stroke: #A80036; stroke-width: 1.5;" x1="1245.5" x2="1517.5" y1="507.1094" y2="507.1094"/><ellipse cx="1255.5" cy="519.0117" fill="#84BE84" rx="3" ry="3" style="stroke: #038048; stroke-width: 1.0;"/><text fill="#000000" font-family="sans-serif" font-size="11" lengthAdjust="spacingAndGlyphs" textLength="248" x="1264.5" y="521.3198">draw(ctx: CanvasRenderingContext2D): void</text><!--class State--><rect fill="#FEFECE" filter="url(#f1gje4smkq9ny5)" height="86.4141" id="State" style="stroke: #A80036; stroke-width: 1.5;" width="409" x="2152" y="14.5"/><ellipse cx="2335.25" cy="30.5" fill="#B4A7E5" rx="11" ry="11" style="stroke: #A80036; stroke-width: 1.0;"/><path d="M2336.2031,27.2813 L2336.2031,33.7969 L2337.9219,33.7969 C2338.375,33.7969 2338.5156,33.8281 2338.6875,33.9531 C2338.9219,34.125 2339.0313,34.375 2339.0313,34.6563 C2339.0313,35.2188 2338.6719,35.5 2337.9219,35.5 L2332.7813,35.5 C2332.375,35.5 2332.1719,35.4531 2332.0156,35.3281 C2331.7969,35.1719 2331.6563,34.9063 2331.6563,34.6563 C2331.6563,34.3594 2331.8125,34.0781 2332.0625,33.9219 C2332.2188,33.8125 2332.3438,33.7969 2332.7813,33.7969 L2334.5,33.7969 L2334.5,27.2813 L2332.7813,27.2813 C2332.3594,27.2813 2332.1719,27.25 2332.0156,27.1406 C2331.7969,26.9688 2331.6563,26.7188 2331.6563,26.4375 C2331.6563,26.1563 2331.8125,25.8594 2332.0625,25.7031 C2332.2188,25.6094 2332.3438,25.5938 2332.7813,25.5938 L2337.9219,25.5938 C2338.375,25.5938 2338.5156,25.625 2338.6875,25.7344 C2338.9219,25.9063 2339.0313,26.1719 2339.0313,26.4375 C2339.0313,26.7344 2338.8906,27.0156 2338.625,27.1719 C2338.5,27.25 2338.3125,27.2813 2337.9219,27.2813 Z "/><text fill="#000000" font-family="sans-serif" font-size="12" font-style="italic" lengthAdjust="spacingAndGlyphs" textLength="34" x="2355.75" y="34.6543">State</text><line style="stroke: #A80036; stroke-width: 1.5;" x1="2153" x2="2560" y1="46.5" y2="46.5"/><line style="stroke: #A80036; stroke-width: 1.5;" x1="2153" x2="2560" y1="54.5" y2="54.5"/><ellipse cx="2163" cy="66.4023" fill="#84BE84" rx="3" ry="3" style="stroke: #038048; stroke-width: 1.0;"/><text fill="#000000" font-family="sans-serif" font-size="11" lengthAdjust="spacingAndGlyphs" textLength="219" x="2172" y="68.7104">transition(context: GameContext): void</text><ellipse cx="2163" cy="79.207" fill="#84BE84" rx="3" ry="3" style="stroke: #038048; stroke-width: 1.0;"/><text fill="#000000" font-family="sans-serif" font-size="11" lengthAdjust="spacingAndGlyphs" textLength="383" x="2172" y="81.5151">keyHandler(event: KeyboardEvent, inGameKeys: InGameKeys): void</text><ellipse cx="2163" cy="92.0117" fill="#84BE84" rx="3" ry="3" style="stroke: #038048; stroke-width: 1.0;"/><text fill="#000000" font-family="sans-serif" font-size="11" lengthAdjust="spacingAndGlyphs" textLength="204" x="2172" y="94.3198">update(context: GameContext): void</text><!--class Base--><rect fill="#FEFECE" filter="url(#f1gje4smkq9ny5)" height="73.6094" id="Base" style="stroke: #A80036; stroke-width: 1.5;" width="409" x="2596" y="20.5"/><ellipse cx="2781.25" cy="36.5" fill="#A9DCDF" rx="11" ry="11" style="stroke: #A80036; stroke-width: 1.0;"/><path d="M2782.8281,38.3125 L2778.7813,38.3125 L2778.3906,39.2969 L2778.7813,39.2969 C2779.2344,39.2969 2779.375,39.3281 2779.5469,39.4531 C2779.7656,39.625 2779.8906,39.875 2779.8906,40.1563 C2779.8906,40.4375 2779.75,40.7344 2779.4844,40.875 C2779.3594,40.9688 2779.1406,41 2778.7813,41 L2776.5156,41 C2775.7656,41 2775.3906,40.7188 2775.3906,40.1563 C2775.3906,39.8594 2775.5469,39.5781 2775.7969,39.4219 C2775.9531,39.3125 2776.1094,39.2969 2776.5313,39.2969 L2779.1719,32.7813 L2778.0938,32.7813 C2777.6563,32.7813 2777.4844,32.75 2777.3125,32.6406 C2777.0938,32.4688 2776.9531,32.2188 2776.9531,31.9375 C2776.9531,31.6563 2777.1094,31.375 2777.3594,31.2031 C2777.5156,31.1094 2777.6406,31.0938 2778.0938,31.0938 L2781.7656,31.0938 L2785.1563,39.2969 C2785.625,39.2969 2785.7813,39.3281 2785.9531,39.4688 C2786.1719,39.625 2786.3125,39.875 2786.3125,40.1563 C2786.3125,40.4375 2786.1563,40.7344 2785.9063,40.875 C2785.7656,40.9688 2785.5469,41 2785.1875,41 L2782.8281,41 C2782.4063,41 2782.2031,40.9531 2782.0625,40.8281 C2781.8438,40.6719 2781.7031,40.4219 2781.7031,40.1563 C2781.7031,39.8594 2781.8594,39.5781 2782.1094,39.4219 C2782.2656,39.3125 2782.375,39.2969 2782.8281,39.2969 L2783.2188,39.2969 Z M2782.125,36.6094 L2780.7969,33.3438 L2779.4531,36.6094 Z "/><text fill="#000000" font-family="sans-serif" font-size="12" font-style="italic" lengthAdjust="spacingAndGlyphs" textLength="30" x="2801.75" y="40.6543">Base</text><line style="stroke: #A80036; stroke-width: 1.5;" x1="2597" x2="3004" y1="52.5" y2="52.5"/><line style="stroke: #A80036; stroke-width: 1.5;" x1="2597" x2="3004" y1="60.5" y2="60.5"/><ellipse cx="2607" cy="72.4023" fill="#84BE84" rx="3" ry="3" style="stroke: #038048; stroke-width: 1.0;"/><text fill="#000000" font-family="sans-serif" font-size="11" lengthAdjust="spacingAndGlyphs" textLength="204" x="2616" y="74.7104">update(context: GameContext): void</text><ellipse cx="2607" cy="85.207" fill="#84BE84" rx="3" ry="3" style="stroke: #038048; stroke-width: 1.0;"/><text fill="#000000" font-family="sans-serif" font-size="11" lengthAdjust="spacingAndGlyphs" textLength="383" x="2616" y="87.5151">keyHandler(event: KeyboardEvent, inGameKeys: InGameKeys): void</text><!--class Bullet--><rect fill="#FEFECE" filter="url(#f1gje4smkq9ny5)" height="112.0234" id="Bullet" style="stroke: #A80036; stroke-width: 1.5;" width="204" x="1571.5" y="639"/><ellipse cx="1651.75" cy="655" fill="#ADD1B2" rx="11" ry="11" style="stroke: #A80036; stroke-width: 1.0;"/><path d="M1654.0938,650.6719 L1654.2656,650.75 C1654.4844,650.4375 1654.6875,650.3438 1654.9844,650.3438 C1655.2813,650.3438 1655.5625,650.4844 1655.7188,650.75 C1655.8125,650.9063 1655.8281,651.0313 1655.8281,651.4688 L1655.8281,652.8906 C1655.8281,653.3125 1655.7969,653.5 1655.6875,653.6563 C1655.5156,653.875 1655.25,654.0156 1654.9844,654.0156 C1654.7656,654.0156 1654.5313,653.9063 1654.3906,653.7656 C1654.25,653.6406 1654.2188,653.5156 1654.1563,653.1094 C1654.0625,652.7031 1653.8906,652.4844 1653.4063,652.2031 C1652.9375,651.9531 1652.3281,651.7969 1651.75,651.7969 C1650.0156,651.7969 1648.7656,653.1094 1648.7656,654.8906 L1648.7656,655.9844 C1648.7656,657.6875 1650.0625,658.7813 1652.1094,658.7813 C1652.875,658.7813 1653.5625,658.6563 1653.9844,658.3906 C1654.1719,658.2969 1654.1719,658.2969 1654.625,657.8125 C1654.8125,657.625 1655.0156,657.5469 1655.2344,657.5469 C1655.7031,657.5469 1656.0938,657.9375 1656.0938,658.3906 C1656.0938,658.7813 1655.7656,659.2344 1655.1875,659.6406 C1654.4375,660.1875 1653.2813,660.4844 1652.0625,660.4844 C1649.1719,660.4844 1647.0625,658.5938 1647.0625,656.0156 L1647.0625,654.8906 C1647.0625,652.1719 1649.0625,650.0938 1651.6875,650.0938 C1652.5625,650.0938 1653.1563,650.2344 1654.0938,650.6719 Z "/><text fill="#000000" font-family="sans-serif" font-size="12" lengthAdjust="spacingAndGlyphs" textLength="35" x="1672.25" y="659.1543">Bullet</text><line style="stroke: #A80036; stroke-width: 1.5;" x1="1572.5" x2="1774.5" y1="671" y2="671"/><ellipse cx="1582.5" cy="682.9023" fill="none" rx="3" ry="3" style="stroke: #038048; stroke-width: 1.0;"/><text fill="#000000" font-family="sans-serif" font-size="11" lengthAdjust="spacingAndGlyphs" textLength="178" x="1591.5" y="685.2104">widthHeight: [number, number]</text><ellipse cx="1582.5" cy="695.707" fill="none" rx="3" ry="3" style="stroke: #038048; stroke-width: 1.0;"/><text fill="#000000" font-family="sans-serif" font-size="11" lengthAdjust="spacingAndGlyphs" textLength="69" x="1591.5" y="698.0151">color: string</text><ellipse cx="1582.5" cy="708.5117" fill="none" rx="3" ry="3" style="stroke: #038048; stroke-width: 1.0;"/><text fill="#000000" font-family="sans-serif" font-size="11" lengthAdjust="spacingAndGlyphs" textLength="157" x="1591.5" y="710.8198">position: [number, number]</text><ellipse cx="1582.5" cy="721.3164" fill="none" rx="3" ry="3" style="stroke: #038048; stroke-width: 1.0;"/><text fill="#000000" font-family="sans-serif" font-size="11" lengthAdjust="spacingAndGlyphs" textLength="96" x="1591.5" y="723.6245">rotation: number</text><line style="stroke: #A80036; stroke-width: 1.5;" x1="1572.5" x2="1774.5" y1="730.2188" y2="730.2188"/><ellipse cx="1582.5" cy="742.1211" fill="#84BE84" rx="3" ry="3" style="stroke: #038048; stroke-width: 1.0;"/><text fill="#000000" font-family="sans-serif" font-size="11" lengthAdjust="spacingAndGlyphs" textLength="123" x="1591.5" y="744.4292">updatePosition(): void</text><!--class Zombie--><rect fill="#FEFECE" filter="url(#f1gje4smkq9ny5)" height="124.8281" id="Zombie" style="stroke: #A80036; stroke-width: 1.5;" width="275" x="1244" y="632.5"/><ellipse cx="1353.75" cy="648.5" fill="#ADD1B2" rx="11" ry="11" style="stroke: #A80036; stroke-width: 1.0;"/><path d="M1356.0938,644.1719 L1356.2656,644.25 C1356.4844,643.9375 1356.6875,643.8438 1356.9844,643.8438 C1357.2813,643.8438 1357.5625,643.9844 1357.7188,644.25 C1357.8125,644.4063 1357.8281,644.5313 1357.8281,644.9688 L1357.8281,646.3906 C1357.8281,646.8125 1357.7969,647 1357.6875,647.1563 C1357.5156,647.375 1357.25,647.5156 1356.9844,647.5156 C1356.7656,647.5156 1356.5313,647.4063 1356.3906,647.2656 C1356.25,647.1406 1356.2188,647.0156 1356.1563,646.6094 C1356.0625,646.2031 1355.8906,645.9844 1355.4063,645.7031 C1354.9375,645.4531 1354.3281,645.2969 1353.75,645.2969 C1352.0156,645.2969 1350.7656,646.6094 1350.7656,648.3906 L1350.7656,649.4844 C1350.7656,651.1875 1352.0625,652.2813 1354.1094,652.2813 C1354.875,652.2813 1355.5625,652.1563 1355.9844,651.8906 C1356.1719,651.7969 1356.1719,651.7969 1356.625,651.3125 C1356.8125,651.125 1357.0156,651.0469 1357.2344,651.0469 C1357.7031,651.0469 1358.0938,651.4375 1358.0938,651.8906 C1358.0938,652.2813 1357.7656,652.7344 1357.1875,653.1406 C1356.4375,653.6875 1355.2813,653.9844 1354.0625,653.9844 C1351.1719,653.9844 1349.0625,652.0938 1349.0625,649.5156 L1349.0625,648.3906 C1349.0625,645.6719 1351.0625,643.5938 1353.6875,643.5938 C1354.5625,643.5938 1355.1563,643.7344 1356.0938,644.1719 Z "/><text fill="#000000" font-family="sans-serif" font-size="12" lengthAdjust="spacingAndGlyphs" textLength="47" x="1374.25" y="652.6543">Zombie</text><line style="stroke: #A80036; stroke-width: 1.5;" x1="1245" x2="1518" y1="664.5" y2="664.5"/><ellipse cx="1255" cy="676.4023" fill="none" rx="3" ry="3" style="stroke: #038048; stroke-width: 1.0;"/><text fill="#000000" font-family="sans-serif" font-size="11" lengthAdjust="spacingAndGlyphs" textLength="178" x="1264" y="678.7104">widthHeight: [number, number]</text><ellipse cx="1255" cy="689.207" fill="none" rx="3" ry="3" style="stroke: #038048; stroke-width: 1.0;"/><text fill="#000000" font-family="sans-serif" font-size="11" lengthAdjust="spacingAndGlyphs" textLength="154" x="1264" y="691.5151">image: HTMLImageElement</text><ellipse cx="1255" cy="702.0117" fill="none" rx="3" ry="3" style="stroke: #038048; stroke-width: 1.0;"/><text fill="#000000" font-family="sans-serif" font-size="11" lengthAdjust="spacingAndGlyphs" textLength="157" x="1264" y="704.3198">position: [number, number]</text><ellipse cx="1255" cy="714.8164" fill="none" rx="3" ry="3" style="stroke: #038048; stroke-width: 1.0;"/><text fill="#000000" font-family="sans-serif" font-size="11" lengthAdjust="spacingAndGlyphs" text-decoration="underline" textLength="210" x="1264" y="717.1245">imagesToLoad: HTMLImageElement[]</text><line style="stroke: #A80036; stroke-width: 1.5;" x1="1245" x2="1518" y1="723.7188" y2="723.7188"/><ellipse cx="1255" cy="735.6211" fill="#84BE84" rx="3" ry="3" style="stroke: #038048; stroke-width: 1.0;"/><text fill="#000000" font-family="sans-serif" font-size="11" lengthAdjust="spacingAndGlyphs" textLength="249" x="1264" y="737.9292">updatePosition(context: GameContext): void</text><rect fill="#F24D5C" height="6" style="stroke: #C82930; stroke-width: 1.0;" width="6" x="1252" y="745.4258"/><text fill="#000000" font-family="sans-serif" font-size="11" lengthAdjust="spacingAndGlyphs" textLength="130" x="1264" y="750.7339">randomStumble(): void</text><!--class HeroOptions--><rect fill="#FEFECE" filter="url(#f1gje4smkq9ny5)" height="60.8047" id="HeroOptions" style="stroke: #A80036; stroke-width: 1.5;" width="183" x="6" y="27"/><ellipse cx="55.25" cy="43" fill="#B4A7E5" rx="11" ry="11" style="stroke: #A80036; stroke-width: 1.0;"/><path d="M56.2031,39.7813 L56.2031,46.2969 L57.9219,46.2969 C58.375,46.2969 58.5156,46.3281 58.6875,46.4531 C58.9219,46.625 59.0313,46.875 59.0313,47.1563 C59.0313,47.7188 58.6719,48 57.9219,48 L52.7813,48 C52.375,48 52.1719,47.9531 52.0156,47.8281 C51.7969,47.6719 51.6563,47.4063 51.6563,47.1563 C51.6563,46.8594 51.8125,46.5781 52.0625,46.4219 C52.2188,46.3125 52.3438,46.2969 52.7813,46.2969 L54.5,46.2969 L54.5,39.7813 L52.7813,39.7813 C52.3594,39.7813 52.1719,39.75 52.0156,39.6406 C51.7969,39.4688 51.6563,39.2188 51.6563,38.9375 C51.6563,38.6563 51.8125,38.3594 52.0625,38.2031 C52.2188,38.1094 52.3438,38.0938 52.7813,38.0938 L57.9219,38.0938 C58.375,38.0938 58.5156,38.125 58.6875,38.2344 C58.9219,38.4063 59.0313,38.6719 59.0313,38.9375 C59.0313,39.2344 58.8906,39.5156 58.625,39.6719 C58.5,39.75 58.3125,39.7813 57.9219,39.7813 Z "/><text fill="#000000" font-family="sans-serif" font-size="12" font-style="italic" lengthAdjust="spacingAndGlyphs" textLength="76" x="75.75" y="47.1543">HeroOptions</text><line style="stroke: #A80036; stroke-width: 1.5;" x1="7" x2="188" y1="59" y2="59"/><ellipse cx="17" cy="70.9023" fill="none" rx="3" ry="3" style="stroke: #038048; stroke-width: 1.0;"/><text fill="#000000" font-family="sans-serif" font-size="11" lengthAdjust="spacingAndGlyphs" textLength="157" x="26" y="73.2104">position: [number, number]</text><line style="stroke: #A80036; stroke-width: 1.5;" x1="7" x2="188" y1="79.8047" y2="79.8047"/><!--class ZombieOptions--><rect fill="#FEFECE" filter="url(#f1gje4smkq9ny5)" height="73.6094" id="ZombieOptions" style="stroke: #A80036; stroke-width: 1.5;" width="258" x="224.5" y="20.5"/><ellipse cx="303.25" cy="36.5" fill="#B4A7E5" rx="11" ry="11" style="stroke: #A80036; stroke-width: 1.0;"/><path d="M304.2031,33.2813 L304.2031,39.7969 L305.9219,39.7969 C306.375,39.7969 306.5156,39.8281 306.6875,39.9531 C306.9219,40.125 307.0313,40.375 307.0313,40.6563 C307.0313,41.2188 306.6719,41.5 305.9219,41.5 L300.7813,41.5 C300.375,41.5 300.1719,41.4531 300.0156,41.3281 C299.7969,41.1719 299.6563,40.9063 299.6563,40.6563 C299.6563,40.3594 299.8125,40.0781 300.0625,39.9219 C300.2188,39.8125 300.3438,39.7969 300.7813,39.7969 L302.5,39.7969 L302.5,33.2813 L300.7813,33.2813 C300.3594,33.2813 300.1719,33.25 300.0156,33.1406 C299.7969,32.9688 299.6563,32.7188 299.6563,32.4375 C299.6563,32.1563 299.8125,31.8594 300.0625,31.7031 C300.2188,31.6094 300.3438,31.5938 300.7813,31.5938 L305.9219,31.5938 C306.375,31.5938 306.5156,31.625 306.6875,31.7344 C306.9219,31.9063 307.0313,32.1719 307.0313,32.4375 C307.0313,32.7344 306.8906,33.0156 306.625,33.1719 C306.5,33.25 306.3125,33.2813 305.9219,33.2813 Z "/><text fill="#000000" font-family="sans-serif" font-size="12" font-style="italic" lengthAdjust="spacingAndGlyphs" textLength="92" x="323.75" y="40.6543">ZombieOptions</text><line style="stroke: #A80036; stroke-width: 1.5;" x1="225.5" x2="481.5" y1="52.5" y2="52.5"/><ellipse cx="235.5" cy="64.4023" fill="none" rx="3" ry="3" style="stroke: #038048; stroke-width: 1.0;"/><text fill="#000000" font-family="sans-serif" font-size="11" lengthAdjust="spacingAndGlyphs" textLength="154" x="244.5" y="66.7104">image: HTMLImageElement</text><ellipse cx="235.5" cy="77.207" fill="none" rx="3" ry="3" style="stroke: #038048; stroke-width: 1.0;"/><text fill="#000000" font-family="sans-serif" font-size="11" lengthAdjust="spacingAndGlyphs" textLength="232" x="244.5" y="79.5151">pointToSpawnAround: [number, number]</text><line style="stroke: #A80036; stroke-width: 1.5;" x1="225.5" x2="481.5" y1="86.1094" y2="86.1094"/><!--class BulletOptions--><rect fill="#FEFECE" filter="url(#f1gje4smkq9ny5)" height="73.6094" id="BulletOptions" style="stroke: #A80036; stroke-width: 1.5;" width="183" x="518" y="20.5"/><ellipse cx="564.75" cy="36.5" fill="#B4A7E5" rx="11" ry="11" style="stroke: #A80036; stroke-width: 1.0;"/><path d="M565.7031,33.2813 L565.7031,39.7969 L567.4219,39.7969 C567.875,39.7969 568.0156,39.8281 568.1875,39.9531 C568.4219,40.125 568.5313,40.375 568.5313,40.6563 C568.5313,41.2188 568.1719,41.5 567.4219,41.5 L562.2813,41.5 C561.875,41.5 561.6719,41.4531 561.5156,41.3281 C561.2969,41.1719 561.1563,40.9063 561.1563,40.6563 C561.1563,40.3594 561.3125,40.0781 561.5625,39.9219 C561.7188,39.8125 561.8438,39.7969 562.2813,39.7969 L564,39.7969 L564,33.2813 L562.2813,33.2813 C561.8594,33.2813 561.6719,33.25 561.5156,33.1406 C561.2969,32.9688 561.1563,32.7188 561.1563,32.4375 C561.1563,32.1563 561.3125,31.8594 561.5625,31.7031 C561.7188,31.6094 561.8438,31.5938 562.2813,31.5938 L567.4219,31.5938 C567.875,31.5938 568.0156,31.625 568.1875,31.7344 C568.4219,31.9063 568.5313,32.1719 568.5313,32.4375 C568.5313,32.7344 568.3906,33.0156 568.125,33.1719 C568,33.25 567.8125,33.2813 567.4219,33.2813 Z "/><text fill="#000000" font-family="sans-serif" font-size="12" font-style="italic" lengthAdjust="spacingAndGlyphs" textLength="81" x="585.25" y="40.6543">BulletOptions</text><line style="stroke: #A80036; stroke-width: 1.5;" x1="519" x2="700" y1="52.5" y2="52.5"/><ellipse cx="529" cy="64.4023" fill="none" rx="3" ry="3" style="stroke: #038048; stroke-width: 1.0;"/><text fill="#000000" font-family="sans-serif" font-size="11" lengthAdjust="spacingAndGlyphs" textLength="157" x="538" y="66.7104">position: [number, number]</text><ellipse cx="529" cy="77.207" fill="none" rx="3" ry="3" style="stroke: #038048; stroke-width: 1.0;"/><text fill="#000000" font-family="sans-serif" font-size="11" lengthAdjust="spacingAndGlyphs" textLength="96" x="538" y="79.5151">rotation: number</text><line style="stroke: #A80036; stroke-width: 1.5;" x1="519" x2="700" y1="86.1094" y2="86.1094"/><!--class Hero--><rect fill="#FEFECE" filter="url(#f1gje4smkq9ny5)" height="137.6328" id="Hero" style="stroke: #A80036; stroke-width: 1.5;" width="275" x="1811" y="626"/><ellipse cx="1929.25" cy="642" fill="#ADD1B2" rx="11" ry="11" style="stroke: #A80036; stroke-width: 1.0;"/><path d="M1931.5938,637.6719 L1931.7656,637.75 C1931.9844,637.4375 1932.1875,637.3438 1932.4844,637.3438 C1932.7813,637.3438 1933.0625,637.4844 1933.2188,637.75 C1933.3125,637.9063 1933.3281,638.0313 1933.3281,638.4688 L1933.3281,639.8906 C1933.3281,640.3125 1933.2969,640.5 1933.1875,640.6563 C1933.0156,640.875 1932.75,641.0156 1932.4844,641.0156 C1932.2656,641.0156 1932.0313,640.9063 1931.8906,640.7656 C1931.75,640.6406 1931.7188,640.5156 1931.6563,640.1094 C1931.5625,639.7031 1931.3906,639.4844 1930.9063,639.2031 C1930.4375,638.9531 1929.8281,638.7969 1929.25,638.7969 C1927.5156,638.7969 1926.2656,640.1094 1926.2656,641.8906 L1926.2656,642.9844 C1926.2656,644.6875 1927.5625,645.7813 1929.6094,645.7813 C1930.375,645.7813 1931.0625,645.6563 1931.4844,645.3906 C1931.6719,645.2969 1931.6719,645.2969 1932.125,644.8125 C1932.3125,644.625 1932.5156,644.5469 1932.7344,644.5469 C1933.2031,644.5469 1933.5938,644.9375 1933.5938,645.3906 C1933.5938,645.7813 1933.2656,646.2344 1932.6875,646.6406 C1931.9375,647.1875 1930.7813,647.4844 1929.5625,647.4844 C1926.6719,647.4844 1924.5625,645.5938 1924.5625,643.0156 L1924.5625,641.8906 C1924.5625,639.1719 1926.5625,637.0938 1929.1875,637.0938 C1930.0625,637.0938 1930.6563,637.2344 1931.5938,637.6719 Z "/><text fill="#000000" font-family="sans-serif" font-size="12" lengthAdjust="spacingAndGlyphs" textLength="30" x="1949.75" y="646.1543">Hero</text><line style="stroke: #A80036; stroke-width: 1.5;" x1="1812" x2="2085" y1="658" y2="658"/><ellipse cx="1822" cy="669.9023" fill="none" rx="3" ry="3" style="stroke: #038048; stroke-width: 1.0;"/><text fill="#000000" font-family="sans-serif" font-size="11" lengthAdjust="spacingAndGlyphs" textLength="78" x="1831" y="672.2104">lives: number</text><ellipse cx="1822" cy="682.707" fill="none" rx="3" ry="3" style="stroke: #038048; stroke-width: 1.0;"/><text fill="#000000" font-family="sans-serif" font-size="11" lengthAdjust="spacingAndGlyphs" textLength="178" x="1831" y="685.0151">widthHeight: [number, number]</text><ellipse cx="1822" cy="695.5117" fill="none" rx="3" ry="3" style="stroke: #038048; stroke-width: 1.0;"/><text fill="#000000" font-family="sans-serif" font-size="11" lengthAdjust="spacingAndGlyphs" textLength="69" x="1831" y="697.8198">color: string</text><ellipse cx="1822" cy="708.3164" fill="none" rx="3" ry="3" style="stroke: #038048; stroke-width: 1.0;"/><text fill="#000000" font-family="sans-serif" font-size="11" lengthAdjust="spacingAndGlyphs" textLength="114" x="1831" y="710.6245">firePaused: boolean</text><ellipse cx="1822" cy="721.1211" fill="none" rx="3" ry="3" style="stroke: #038048; stroke-width: 1.0;"/><text fill="#000000" font-family="sans-serif" font-size="11" lengthAdjust="spacingAndGlyphs" textLength="148" x="1831" y="723.4292">numberOfBullets: number</text><ellipse cx="1822" cy="733.9258" fill="none" rx="3" ry="3" style="stroke: #038048; stroke-width: 1.0;"/><text fill="#000000" font-family="sans-serif" font-size="11" lengthAdjust="spacingAndGlyphs" textLength="157" x="1831" y="736.2339">position: [number, number]</text><line style="stroke: #A80036; stroke-width: 1.5;" x1="1812" x2="2085" y1="742.8281" y2="742.8281"/><ellipse cx="1822" cy="754.7305" fill="#84BE84" rx="3" ry="3" style="stroke: #038048; stroke-width: 1.0;"/><text fill="#000000" font-family="sans-serif" font-size="11" lengthAdjust="spacingAndGlyphs" textLength="249" x="1831" y="757.0386">updatePosition(context: GameContext): void</text><!--class ScreenText--><rect fill="#FEFECE" filter="url(#f1gje4smkq9ny5)" height="163.2422" id="ScreenText" style="stroke: #A80036; stroke-width: 1.5;" width="367" x="1863" y="403"/><ellipse cx="2007.25" cy="419" fill="#ADD1B2" rx="11" ry="11" style="stroke: #A80036; stroke-width: 1.0;"/><path d="M2009.5938,414.6719 L2009.7656,414.75 C2009.9844,414.4375 2010.1875,414.3438 2010.4844,414.3438 C2010.7813,414.3438 2011.0625,414.4844 2011.2188,414.75 C2011.3125,414.9063 2011.3281,415.0313 2011.3281,415.4688 L2011.3281,416.8906 C2011.3281,417.3125 2011.2969,417.5 2011.1875,417.6563 C2011.0156,417.875 2010.75,418.0156 2010.4844,418.0156 C2010.2656,418.0156 2010.0313,417.9063 2009.8906,417.7656 C2009.75,417.6406 2009.7188,417.5156 2009.6563,417.1094 C2009.5625,416.7031 2009.3906,416.4844 2008.9063,416.2031 C2008.4375,415.9531 2007.8281,415.7969 2007.25,415.7969 C2005.5156,415.7969 2004.2656,417.1094 2004.2656,418.8906 L2004.2656,419.9844 C2004.2656,421.6875 2005.5625,422.7813 2007.6094,422.7813 C2008.375,422.7813 2009.0625,422.6563 2009.4844,422.3906 C2009.6719,422.2969 2009.6719,422.2969 2010.125,421.8125 C2010.3125,421.625 2010.5156,421.5469 2010.7344,421.5469 C2011.2031,421.5469 2011.5938,421.9375 2011.5938,422.3906 C2011.5938,422.7813 2011.2656,423.2344 2010.6875,423.6406 C2009.9375,424.1875 2008.7813,424.4844 2007.5625,424.4844 C2004.6719,424.4844 2002.5625,422.5938 2002.5625,420.0156 L2002.5625,418.8906 C2002.5625,416.1719 2004.5625,414.0938 2007.1875,414.0938 C2008.0625,414.0938 2008.6563,414.2344 2009.5938,414.6719 Z "/><text fill="#000000" font-family="sans-serif" font-size="12" lengthAdjust="spacingAndGlyphs" textLength="70" x="2027.75" y="423.1543">ScreenText</text><line style="stroke: #A80036; stroke-width: 1.5;" x1="1864" x2="2229" y1="435" y2="435"/><ellipse cx="1874" cy="446.9023" fill="none" rx="3" ry="3" style="stroke: #038048; stroke-width: 1.0;"/><text fill="#000000" font-family="sans-serif" font-size="11" lengthAdjust="spacingAndGlyphs" textLength="157" x="1883" y="449.2104">position: [number, number]</text><ellipse cx="1874" cy="459.707" fill="none" rx="3" ry="3" style="stroke: #038048; stroke-width: 1.0;"/><text fill="#000000" font-family="sans-serif" font-size="11" lengthAdjust="spacingAndGlyphs" textLength="113" x="1883" y="462.0151">linesOfText: string[]</text><rect fill="none" height="6" style="stroke: #C82930; stroke-width: 1.0;" width="6" x="1871" y="469.5117"/><text fill="#000000" font-family="sans-serif" font-size="11" lengthAdjust="spacingAndGlyphs" textLength="90" x="1883" y="474.8198">textStyle: string</text><rect fill="none" height="6" style="stroke: #C82930; stroke-width: 1.0;" width="6" x="1871" y="482.3164"/><text fill="#000000" font-family="sans-serif" font-size="11" lengthAdjust="spacingAndGlyphs" textLength="178" x="1883" y="487.6245">textAlignment: CanvasTextAlign</text><rect fill="none" height="6" style="stroke: #C82930; stroke-width: 1.0;" width="6" x="1871" y="495.1211"/><text fill="#000000" font-family="sans-serif" font-size="11" lengthAdjust="spacingAndGlyphs" textLength="93" x="1883" y="500.4292">fontColor: string</text><line style="stroke: #A80036; stroke-width: 1.5;" x1="1864" x2="2229" y1="507.0234" y2="507.0234"/><ellipse cx="1874" cy="518.9258" fill="#84BE84" rx="3" ry="3" style="stroke: #038048; stroke-width: 1.0;"/><text fill="#000000" font-family="sans-serif" font-size="11" lengthAdjust="spacingAndGlyphs" textLength="249" x="1883" y="521.2339">updatePosition(context: GameContext): void</text><ellipse cx="1874" cy="531.7305" fill="#84BE84" rx="3" ry="3" style="stroke: #038048; stroke-width: 1.0;"/><text fill="#000000" font-family="sans-serif" font-size="11" lengthAdjust="spacingAndGlyphs" textLength="248" x="1883" y="534.0386">draw(ctx: CanvasRenderingContext2D): void</text><rect fill="#F24D5C" height="6" style="stroke: #C82930; stroke-width: 1.0;" width="6" x="1871" y="541.5352"/><text fill="#000000" font-family="sans-serif" font-size="11" lengthAdjust="spacingAndGlyphs" textLength="297" x="1883" y="546.8433">styleText: (ctx: CanvasRenderingContext2D) =&gt; void</text><rect fill="#F24D5C" height="6" style="stroke: #C82930; stroke-width: 1.0;" width="6" x="1871" y="554.3398"/><text fill="#000000" font-family="sans-serif" font-size="11" lengthAdjust="spacingAndGlyphs" textLength="341" x="1883" y="559.6479">drawLinesOfText: (ctx: CanvasRenderingContext2D) =&gt; void</text><!--class InGameKeys--><rect fill="#FEFECE" filter="url(#f1gje4smkq9ny5)" height="112.0234" id="InGameKeys" style="stroke: #A80036; stroke-width: 1.5;" width="161" x="17" y="199"/><ellipse cx="55.4" cy="215" fill="#B4A7E5" rx="11" ry="11" style="stroke: #A80036; stroke-width: 1.0;"/><path d="M56.3531,211.7813 L56.3531,218.2969 L58.0719,218.2969 C58.525,218.2969 58.6656,218.3281 58.8375,218.4531 C59.0719,218.625 59.1813,218.875 59.1813,219.1563 C59.1813,219.7188 58.8219,220 58.0719,220 L52.9313,220 C52.525,220 52.3219,219.9531 52.1656,219.8281 C51.9469,219.6719 51.8063,219.4063 51.8063,219.1563 C51.8063,218.8594 51.9625,218.5781 52.2125,218.4219 C52.3688,218.3125 52.4938,218.2969 52.9313,218.2969 L54.65,218.2969 L54.65,211.7813 L52.9313,211.7813 C52.5094,211.7813 52.3219,211.75 52.1656,211.6406 C51.9469,211.4688 51.8063,211.2188 51.8063,210.9375 C51.8063,210.6563 51.9625,210.3594 52.2125,210.2031 C52.3688,210.1094 52.4938,210.0938 52.9313,210.0938 L58.0719,210.0938 C58.525,210.0938 58.6656,210.125 58.8375,210.2344 C59.0719,210.4063 59.1813,210.6719 59.1813,210.9375 C59.1813,211.2344 59.0406,211.5156 58.775,211.6719 C58.65,211.75 58.4625,211.7813 58.0719,211.7813 Z "/><text fill="#000000" font-family="sans-serif" font-size="12" font-style="italic" lengthAdjust="spacingAndGlyphs" textLength="77" x="74.6" y="219.1543">InGameKeys</text><line style="stroke: #A80036; stroke-width: 1.5;" x1="18" x2="177" y1="231" y2="231"/><ellipse cx="28" cy="242.9023" fill="none" rx="3" ry="3" style="stroke: #038048; stroke-width: 1.0;"/><text fill="#000000" font-family="sans-serif" font-size="11" lengthAdjust="spacingAndGlyphs" textLength="127" x="37" y="245.2104">startPressed: boolean</text><ellipse cx="28" cy="255.707" fill="none" rx="3" ry="3" style="stroke: #038048; stroke-width: 1.0;"/><text fill="#000000" font-family="sans-serif" font-size="11" lengthAdjust="spacingAndGlyphs" textLength="119" x="37" y="258.0151">firePressed: boolean</text><ellipse cx="28" cy="268.5117" fill="none" rx="3" ry="3" style="stroke: #038048; stroke-width: 1.0;"/><text fill="#000000" font-family="sans-serif" font-size="11" lengthAdjust="spacingAndGlyphs" textLength="118" x="37" y="270.8198">leftPressed: boolean</text><ellipse cx="28" cy="281.3164" fill="none" rx="3" ry="3" style="stroke: #038048; stroke-width: 1.0;"/><text fill="#000000" font-family="sans-serif" font-size="11" lengthAdjust="spacingAndGlyphs" textLength="126" x="37" y="283.6245">rightPressed: boolean</text><ellipse cx="28" cy="294.1211" fill="none" rx="3" ry="3" style="stroke: #038048; stroke-width: 1.0;"/><text fill="#000000" font-family="sans-serif" font-size="11" lengthAdjust="spacingAndGlyphs" textLength="135" x="37" y="296.4292">pausePressed: boolean</text><line style="stroke: #A80036; stroke-width: 1.5;" x1="18" x2="177" y1="303.0234" y2="303.0234"/><!--class GameContext--><rect fill="#FEFECE" filter="url(#f1gje4smkq9ny5)" height="176.0469" id="GameContext" style="stroke: #A80036; stroke-width: 1.5;" width="733" x="213" y="167"/><ellipse cx="533.25" cy="183" fill="#ADD1B2" rx="11" ry="11" style="stroke: #A80036; stroke-width: 1.0;"/><path d="M535.5938,178.6719 L535.7656,178.75 C535.9844,178.4375 536.1875,178.3438 536.4844,178.3438 C536.7813,178.3438 537.0625,178.4844 537.2188,178.75 C537.3125,178.9063 537.3281,179.0313 537.3281,179.4688 L537.3281,180.8906 C537.3281,181.3125 537.2969,181.5 537.1875,181.6563 C537.0156,181.875 536.75,182.0156 536.4844,182.0156 C536.2656,182.0156 536.0313,181.9063 535.8906,181.7656 C535.75,181.6406 535.7188,181.5156 535.6563,181.1094 C535.5625,180.7031 535.3906,180.4844 534.9063,180.2031 C534.4375,179.9531 533.8281,179.7969 533.25,179.7969 C531.5156,179.7969 530.2656,181.1094 530.2656,182.8906 L530.2656,183.9844 C530.2656,185.6875 531.5625,186.7813 533.6094,186.7813 C534.375,186.7813 535.0625,186.6563 535.4844,186.3906 C535.6719,186.2969 535.6719,186.2969 536.125,185.8125 C536.3125,185.625 536.5156,185.5469 536.7344,185.5469 C537.2031,185.5469 537.5938,185.9375 537.5938,186.3906 C537.5938,186.7813 537.2656,187.2344 536.6875,187.6406 C535.9375,188.1875 534.7813,188.4844 533.5625,188.4844 C530.6719,188.4844 528.5625,186.5938 528.5625,184.0156 L528.5625,182.8906 C528.5625,180.1719 530.5625,178.0938 533.1875,178.0938 C534.0625,178.0938 534.6563,178.2344 535.5938,178.6719 Z "/><text fill="#000000" font-family="sans-serif" font-size="12" lengthAdjust="spacingAndGlyphs" textLength="84" x="553.75" y="187.1543">GameContext</text><line style="stroke: #A80036; stroke-width: 1.5;" x1="214" x2="945" y1="199" y2="199"/><ellipse cx="224" cy="210.9023" fill="none" rx="3" ry="3" style="stroke: #038048; stroke-width: 1.0;"/><text fill="#000000" font-family="sans-serif" font-size="11" lengthAdjust="spacingAndGlyphs" textLength="707" x="233" y="213.2104">entities: { [key: string]: Drawable | Drawable[]; hero: Hero; zombies: Zombie[]; bullets: Bullet[]; screenText: ScreenText[]; }</text><ellipse cx="224" cy="223.707" fill="none" rx="3" ry="3" style="stroke: #038048; stroke-width: 1.0;"/><text fill="#000000" font-family="sans-serif" font-size="11" lengthAdjust="spacingAndGlyphs" textLength="84" x="233" y="226.0151">score: number</text><ellipse cx="224" cy="236.5117" fill="none" rx="3" ry="3" style="stroke: #038048; stroke-width: 1.0;"/><text fill="#000000" font-family="sans-serif" font-size="11" lengthAdjust="spacingAndGlyphs" textLength="150" x="233" y="238.8198">inGameKeys: InGameKeys</text><rect fill="none" height="6" style="stroke: #C82930; stroke-width: 1.0;" width="6" x="221" y="246.3164"/><text fill="#000000" font-family="sans-serif" font-size="11" lengthAdjust="spacingAndGlyphs" textLength="67" x="233" y="251.6245">state: State</text><ellipse cx="224" cy="262.1211" fill="none" rx="3" ry="3" style="stroke: #038048; stroke-width: 1.0;"/><text fill="#000000" font-family="sans-serif" font-size="11" lengthAdjust="spacingAndGlyphs" textLength="181" x="233" y="264.4292">ctx: CanvasRenderingContext2D</text><ellipse cx="224" cy="274.9258" fill="none" rx="3" ry="3" style="stroke: #038048; stroke-width: 1.0;"/><text fill="#000000" font-family="sans-serif" font-size="11" lengthAdjust="spacingAndGlyphs" textLength="68" x="233" y="277.2339">State: State</text><ellipse cx="224" cy="287.7305" fill="none" rx="3" ry="3" style="stroke: #038048; stroke-width: 1.0;"/><text fill="#000000" font-family="sans-serif" font-size="11" lengthAdjust="spacingAndGlyphs" textLength="68" x="233" y="290.0386">State: State</text><line style="stroke: #A80036; stroke-width: 1.5;" x1="214" x2="945" y1="296.6328" y2="296.6328"/><ellipse cx="224" cy="308.5352" fill="#84BE84" rx="3" ry="3" style="stroke: #038048; stroke-width: 1.0;"/><text fill="#000000" font-family="sans-serif" font-size="11" lengthAdjust="spacingAndGlyphs" textLength="93" x="233" y="310.8433">transition(): void</text><ellipse cx="224" cy="321.3398" fill="#84BE84" rx="3" ry="3" style="stroke: #038048; stroke-width: 1.0;"/><text fill="#000000" font-family="sans-serif" font-size="11" lengthAdjust="spacingAndGlyphs" textLength="225" x="233" y="323.6479">keyHandler(event: KeyboardEvent): void</text><ellipse cx="224" cy="334.1445" fill="#84BE84" rx="3" ry="3" style="stroke: #038048; stroke-width: 1.0;"/><text fill="#000000" font-family="sans-serif" font-size="11" lengthAdjust="spacingAndGlyphs" textLength="151" x="233" y="336.4526">updateCurrentState(): void</text><!--class LevelOne--><rect fill="#FEFECE" filter="url(#f1gje4smkq9ny5)" height="73.6094" id="LevelOne" style="stroke: #A80036; stroke-width: 1.5;" width="245" x="2087" y="218"/><ellipse cx="2177.25" cy="234" fill="#ADD1B2" rx="11" ry="11" style="stroke: #A80036; stroke-width: 1.0;"/><path d="M2179.5938,229.6719 L2179.7656,229.75 C2179.9844,229.4375 2180.1875,229.3438 2180.4844,229.3438 C2180.7813,229.3438 2181.0625,229.4844 2181.2188,229.75 C2181.3125,229.9063 2181.3281,230.0313 2181.3281,230.4688 L2181.3281,231.8906 C2181.3281,232.3125 2181.2969,232.5 2181.1875,232.6563 C2181.0156,232.875 2180.75,233.0156 2180.4844,233.0156 C2180.2656,233.0156 2180.0313,232.9063 2179.8906,232.7656 C2179.75,232.6406 2179.7188,232.5156 2179.6563,232.1094 C2179.5625,231.7031 2179.3906,231.4844 2178.9063,231.2031 C2178.4375,230.9531 2177.8281,230.7969 2177.25,230.7969 C2175.5156,230.7969 2174.2656,232.1094 2174.2656,233.8906 L2174.2656,234.9844 C2174.2656,236.6875 2175.5625,237.7813 2177.6094,237.7813 C2178.375,237.7813 2179.0625,237.6563 2179.4844,237.3906 C2179.6719,237.2969 2179.6719,237.2969 2180.125,236.8125 C2180.3125,236.625 2180.5156,236.5469 2180.7344,236.5469 C2181.2031,236.5469 2181.5938,236.9375 2181.5938,237.3906 C2181.5938,237.7813 2181.2656,238.2344 2180.6875,238.6406 C2179.9375,239.1875 2178.7813,239.4844 2177.5625,239.4844 C2174.6719,239.4844 2172.5625,237.5938 2172.5625,235.0156 L2172.5625,233.8906 C2172.5625,231.1719 2174.5625,229.0938 2177.1875,229.0938 C2178.0625,229.0938 2178.6563,229.2344 2179.5938,229.6719 Z "/><text fill="#000000" font-family="sans-serif" font-size="12" lengthAdjust="spacingAndGlyphs" textLength="56" x="2197.75" y="238.1543">LevelOne</text><line style="stroke: #A80036; stroke-width: 1.5;" x1="2088" x2="2331" y1="250" y2="250"/><line style="stroke: #A80036; stroke-width: 1.5;" x1="2088" x2="2331" y1="258" y2="258"/><ellipse cx="2098" cy="269.9023" fill="#84BE84" rx="3" ry="3" style="stroke: #038048; stroke-width: 1.0;"/><text fill="#000000" font-family="sans-serif" font-size="11" lengthAdjust="spacingAndGlyphs" textLength="219" x="2107" y="272.2104">transition(context: GameContext): void</text><ellipse cx="2098" cy="282.707" fill="#84BE84" rx="3" ry="3" style="stroke: #038048; stroke-width: 1.0;"/><text fill="#000000" font-family="sans-serif" font-size="11" lengthAdjust="spacingAndGlyphs" textLength="204" x="2107" y="285.0151">update(context: GameContext): void</text><!--class StartScreen--><rect fill="#FEFECE" filter="url(#f1gje4smkq9ny5)" height="86.4141" id="StartScreen" style="stroke: #A80036; stroke-width: 1.5;" width="409" x="2367" y="212"/><ellipse cx="2529.75" cy="228" fill="#ADD1B2" rx="11" ry="11" style="stroke: #A80036; stroke-width: 1.0;"/><path d="M2532.0938,223.6719 L2532.2656,223.75 C2532.4844,223.4375 2532.6875,223.3438 2532.9844,223.3438 C2533.2813,223.3438 2533.5625,223.4844 2533.7188,223.75 C2533.8125,223.9063 2533.8281,224.0313 2533.8281,224.4688 L2533.8281,225.8906 C2533.8281,226.3125 2533.7969,226.5 2533.6875,226.6563 C2533.5156,226.875 2533.25,227.0156 2532.9844,227.0156 C2532.7656,227.0156 2532.5313,226.9063 2532.3906,226.7656 C2532.25,226.6406 2532.2188,226.5156 2532.1563,226.1094 C2532.0625,225.7031 2531.8906,225.4844 2531.4063,225.2031 C2530.9375,224.9531 2530.3281,224.7969 2529.75,224.7969 C2528.0156,224.7969 2526.7656,226.1094 2526.7656,227.8906 L2526.7656,228.9844 C2526.7656,230.6875 2528.0625,231.7813 2530.1094,231.7813 C2530.875,231.7813 2531.5625,231.6563 2531.9844,231.3906 C2532.1719,231.2969 2532.1719,231.2969 2532.625,230.8125 C2532.8125,230.625 2533.0156,230.5469 2533.2344,230.5469 C2533.7031,230.5469 2534.0938,230.9375 2534.0938,231.3906 C2534.0938,231.7813 2533.7656,232.2344 2533.1875,232.6406 C2532.4375,233.1875 2531.2813,233.4844 2530.0625,233.4844 C2527.1719,233.4844 2525.0625,231.5938 2525.0625,229.0156 L2525.0625,227.8906 C2525.0625,225.1719 2527.0625,223.0938 2529.6875,223.0938 C2530.5625,223.0938 2531.1563,223.2344 2532.0938,223.6719 Z "/><text fill="#000000" font-family="sans-serif" font-size="12" lengthAdjust="spacingAndGlyphs" textLength="75" x="2550.25" y="232.1543">StartScreen</text><line style="stroke: #A80036; stroke-width: 1.5;" x1="2368" x2="2775" y1="244" y2="244"/><line style="stroke: #A80036; stroke-width: 1.5;" x1="2368" x2="2775" y1="252" y2="252"/><ellipse cx="2378" cy="263.9023" fill="#84BE84" rx="3" ry="3" style="stroke: #038048; stroke-width: 1.0;"/><text fill="#000000" font-family="sans-serif" font-size="11" lengthAdjust="spacingAndGlyphs" textLength="219" x="2387" y="266.2104">transition(context: GameContext): void</text><ellipse cx="2378" cy="276.707" fill="#84BE84" rx="3" ry="3" style="stroke: #038048; stroke-width: 1.0;"/><text fill="#000000" font-family="sans-serif" font-size="11" lengthAdjust="spacingAndGlyphs" textLength="383" x="2387" y="279.0151">keyHandler(event: KeyboardEvent, inGameKeys: InGameKeys): void</text><ellipse cx="2378" cy="289.5117" fill="#84BE84" rx="3" ry="3" style="stroke: #038048; stroke-width: 1.0;"/><text fill="#000000" font-family="sans-serif" font-size="11" lengthAdjust="spacingAndGlyphs" textLength="204" x="2387" y="291.8198">update(context: GameContext): void</text><!--class Init--><rect fill="#FEFECE" filter="url(#f1gje4smkq9ny5)" height="99.2188" id="Init" style="stroke: #A80036; stroke-width: 1.5;" width="273" x="2811" y="205.5"/><ellipse cx="2933.75" cy="221.5" fill="#ADD1B2" rx="11" ry="11" style="stroke: #A80036; stroke-width: 1.0;"/><path d="M2936.0938,217.1719 L2936.2656,217.25 C2936.4844,216.9375 2936.6875,216.8438 2936.9844,216.8438 C2937.2813,216.8438 2937.5625,216.9844 2937.7188,217.25 C2937.8125,217.4063 2937.8281,217.5313 2937.8281,217.9688 L2937.8281,219.3906 C2937.8281,219.8125 2937.7969,220 2937.6875,220.1563 C2937.5156,220.375 2937.25,220.5156 2936.9844,220.5156 C2936.7656,220.5156 2936.5313,220.4063 2936.3906,220.2656 C2936.25,220.1406 2936.2188,220.0156 2936.1563,219.6094 C2936.0625,219.2031 2935.8906,218.9844 2935.4063,218.7031 C2934.9375,218.4531 2934.3281,218.2969 2933.75,218.2969 C2932.0156,218.2969 2930.7656,219.6094 2930.7656,221.3906 L2930.7656,222.4844 C2930.7656,224.1875 2932.0625,225.2813 2934.1094,225.2813 C2934.875,225.2813 2935.5625,225.1563 2935.9844,224.8906 C2936.1719,224.7969 2936.1719,224.7969 2936.625,224.3125 C2936.8125,224.125 2937.0156,224.0469 2937.2344,224.0469 C2937.7031,224.0469 2938.0938,224.4375 2938.0938,224.8906 C2938.0938,225.2813 2937.7656,225.7344 2937.1875,226.1406 C2936.4375,226.6875 2935.2813,226.9844 2934.0625,226.9844 C2931.1719,226.9844 2929.0625,225.0938 2929.0625,222.5156 L2929.0625,221.3906 C2929.0625,218.6719 2931.0625,216.5938 2933.6875,216.5938 C2934.5625,216.5938 2935.1563,216.7344 2936.0938,217.1719 Z "/><text fill="#000000" font-family="sans-serif" font-size="12" lengthAdjust="spacingAndGlyphs" textLength="19" x="2954.25" y="225.6543">Init</text><line style="stroke: #A80036; stroke-width: 1.5;" x1="2812" x2="3083" y1="237.5" y2="237.5"/><rect fill="none" height="6" style="stroke: #C82930; stroke-width: 1.0;" width="6" x="2819" y="246.4023"/><text fill="#000000" font-family="sans-serif" font-size="11" lengthAdjust="spacingAndGlyphs" textLength="198" x="2831" y="251.7104">runAsyncInitFunctionOnce: boolean</text><line style="stroke: #A80036; stroke-width: 1.5;" x1="2812" x2="3083" y1="258.3047" y2="258.3047"/><ellipse cx="2822" cy="270.207" fill="#84BE84" rx="3" ry="3" style="stroke: #038048; stroke-width: 1.0;"/><text fill="#000000" font-family="sans-serif" font-size="11" lengthAdjust="spacingAndGlyphs" textLength="219" x="2831" y="272.5151">transition(context: GameContext): void</text><ellipse cx="2822" cy="283.0117" fill="#84BE84" rx="3" ry="3" style="stroke: #038048; stroke-width: 1.0;"/><text fill="#000000" font-family="sans-serif" font-size="11" lengthAdjust="spacingAndGlyphs" textLength="204" x="2831" y="285.3198">update(context: GameContext): void</text><ellipse cx="2822" cy="295.8164" fill="#84BE84" rx="3" ry="3" style="stroke: #038048; stroke-width: 1.0;"/><text fill="#000000" font-family="sans-serif" font-size="11" lengthAdjust="spacingAndGlyphs" text-decoration="underline" textLength="247" x="2831" y="298.1245">init(context: GameContext): Promise&lt;void&gt;</text><!--class Collidable--><rect fill="#FEFECE" filter="url(#f1gje4smkq9ny5)" height="86.4141" id="Collidable" style="stroke: #A80036; stroke-width: 1.5;" width="204" x="981.5" y="212"/><ellipse cx="1049.25" cy="228" fill="#B4A7E5" rx="11" ry="11" style="stroke: #A80036; stroke-width: 1.0;"/><path d="M1050.2031,224.7813 L1050.2031,231.2969 L1051.9219,231.2969 C1052.375,231.2969 1052.5156,231.3281 1052.6875,231.4531 C1052.9219,231.625 1053.0313,231.875 1053.0313,232.1563 C1053.0313,232.7188 1052.6719,233 1051.9219,233 L1046.7813,233 C1046.375,233 1046.1719,232.9531 1046.0156,232.8281 C1045.7969,232.6719 1045.6563,232.4063 1045.6563,232.1563 C1045.6563,231.8594 1045.8125,231.5781 1046.0625,231.4219 C1046.2188,231.3125 1046.3438,231.2969 1046.7813,231.2969 L1048.5,231.2969 L1048.5,224.7813 L1046.7813,224.7813 C1046.3594,224.7813 1046.1719,224.75 1046.0156,224.6406 C1045.7969,224.4688 1045.6563,224.2188 1045.6563,223.9375 C1045.6563,223.6563 1045.8125,223.3594 1046.0625,223.2031 C1046.2188,223.1094 1046.3438,223.0938 1046.7813,223.0938 L1051.9219,223.0938 C1052.375,223.0938 1052.5156,223.125 1052.6875,223.2344 C1052.9219,223.4063 1053.0313,223.6719 1053.0313,223.9375 C1053.0313,224.2344 1052.8906,224.5156 1052.625,224.6719 C1052.5,224.75 1052.3125,224.7813 1051.9219,224.7813 Z "/><text fill="#000000" font-family="sans-serif" font-size="12" font-style="italic" lengthAdjust="spacingAndGlyphs" textLength="60" x="1069.75" y="232.1543">Collidable</text><line style="stroke: #A80036; stroke-width: 1.5;" x1="982.5" x2="1184.5" y1="244" y2="244"/><ellipse cx="992.5" cy="255.9023" fill="none" rx="3" ry="3" style="stroke: #038048; stroke-width: 1.0;"/><text fill="#000000" font-family="sans-serif" font-size="11" lengthAdjust="spacingAndGlyphs" textLength="58" x="1001.5" y="258.2104">x: number</text><ellipse cx="992.5" cy="268.707" fill="none" rx="3" ry="3" style="stroke: #038048; stroke-width: 1.0;"/><text fill="#000000" font-family="sans-serif" font-size="11" lengthAdjust="spacingAndGlyphs" textLength="58" x="1001.5" y="271.0151">y: number</text><ellipse cx="992.5" cy="281.5117" fill="none" rx="3" ry="3" style="stroke: #038048; stroke-width: 1.0;"/><text fill="#000000" font-family="sans-serif" font-size="11" lengthAdjust="spacingAndGlyphs" textLength="178" x="1001.5" y="283.8198">widthHeight: [number, number]</text><line style="stroke: #A80036; stroke-width: 1.5;" x1="982.5" x2="1184.5" y1="290.4141" y2="290.4141"/><!--link GameObject to BaseCharacter--><path d="M1560.94,119.793 C1526.96,147.363 1487.4,179.449 1455.49,205.334 " fill="none" id="GameObject-BaseCharacter" style="stroke: #A80036; stroke-width: 1.0;"/><polygon fill="none" points="1556.68,114.241,1576.62,107.077,1565.5,125.113,1556.68,114.241" style="stroke: #A80036; stroke-width: 1.0;"/><!--link BaseCharacter to VectorCharacter--><path d="M1474.42,316.861 C1525.34,356.127 1590.28,406.209 1635.61,441.172 " fill="none" id="BaseCharacter-VectorCharacter" style="stroke: #A80036; stroke-width: 1.0;"/><polygon fill="none" points="1469.99,322.282,1458.42,304.525,1478.54,311.196,1469.99,322.282" style="stroke: #A80036; stroke-width: 1.0;"/><!--link Drawable to VectorCharacter--><path d="M1758.06,310.814 C1742.35,350.963 1721.35,404.645 1706.96,441.437 " fill="none" id="Drawable-VectorCharacter" style="stroke: #A80036; stroke-width: 1.0; stroke-dasharray: 7.0,7.0;"/><polygon fill="none" points="1751.59,308.123,1765.4,292.048,1764.63,313.224,1751.59,308.123" style="stroke: #A80036; stroke-width: 1.0;"/><!--link BaseCharacter to BitmapCharacter--><path d="M1391.28,324.64 C1388.94,362.568 1386.12,408.479 1384.1,441.172 " fill="none" id="BaseCharacter-BitmapCharacter" style="stroke: #A80036; stroke-width: 1.0;"/><polygon fill="none" points="1384.3,324.058,1392.51,304.525,1398.27,324.918,1384.3,324.058" style="stroke: #A80036; stroke-width: 1.0;"/><!--link Drawable to BitmapCharacter--><path d="M1699.02,302.002 C1627.65,342.796 1524.29,401.879 1455.09,441.437 " fill="none" id="Drawable-BitmapCharacter" style="stroke: #A80036; stroke-width: 1.0; stroke-dasharray: 7.0,7.0;"/><polygon fill="none" points="1695.6,295.896,1716.44,292.048,1702.55,308.05,1695.6,295.896" style="stroke: #A80036; stroke-width: 1.0;"/><!--link VectorCharacter to Bullet--><path d="M1685.43,547.691 C1683.07,576.639 1680.28,610.785 1678,638.806 " fill="none" id="VectorCharacter-Bullet" style="stroke: #A80036; stroke-width: 1.0;"/><polygon fill="none" points="1678.46,547.058,1687.06,527.693,1692.41,548.196,1678.46,547.058" style="stroke: #A80036; stroke-width: 1.0;"/><!--link BitmapCharacter to Zombie--><path d="M1381.5,548.023 C1381.5,574.757 1381.5,605.875 1381.5,632.496 " fill="none" id="BitmapCharacter-Zombie" style="stroke: #A80036; stroke-width: 1.0;"/><polygon fill="none" points="1374.5,547.693,1381.5,527.693,1388.5,547.693,1374.5,547.693" style="stroke: #A80036; stroke-width: 1.0;"/><!--link VectorCharacter to Hero--><path d="M1758.49,540.445 C1790.86,566.601 1829.88,598.137 1864.12,625.808 " fill="none" id="VectorCharacter-Hero" style="stroke: #A80036; stroke-width: 1.0;"/><polygon fill="none" points="1753.87,545.708,1742.71,527.693,1762.67,534.82,1753.87,545.708" style="stroke: #A80036; stroke-width: 1.0;"/><!--link GameObject to ScreenText--><path d="M1747.91,66.876 C1821.39,78.298 1914.29,104.981 1971.5,167 C2030.37,230.814 2045.58,332.139 2048.34,402.9 " fill="none" id="GameObject-ScreenText" style="stroke: #A80036; stroke-width: 1.0;"/><polygon fill="none" points="1746.58,73.758,1727.75,64.043,1748.53,59.894,1746.58,73.758" style="stroke: #A80036; stroke-width: 1.0;"/><!--link Drawable to ScreenText--><path d="M1837.39,305.325 C1870.8,333.793 1913.64,370.293 1951.83,402.835 " fill="none" id="Drawable-ScreenText" style="stroke: #A80036; stroke-width: 1.0; stroke-dasharray: 7.0,7.0;"/><polygon fill="none" points="1832.49,310.347,1821.81,292.048,1841.57,299.691,1832.49,310.347" style="stroke: #A80036; stroke-width: 1.0;"/><!--link Base to LevelOne--><path d="M2620.08,99.031 C2505.99,125.162 2375.31,156.207 2349.5,167 C2317.69,180.303 2284.8,200.358 2258.91,217.862 " fill="none" id="Base-LevelOne" style="stroke: #A80036; stroke-width: 1.0;"/><polygon fill="none" points="2618.63,92.181,2639.69,94.55,2621.75,105.829,2618.63,92.181" style="stroke: #A80036; stroke-width: 1.0;"/><!--link State to LevelOne--><path d="M2312.28,117.304 C2287.67,150.036 2257.82,189.732 2236.65,217.895 " fill="none" id="State-LevelOne" style="stroke: #A80036; stroke-width: 1.0; stroke-dasharray: 7.0,7.0;"/><polygon fill="none" points="2306.99,112.699,2324.6,100.921,2318.18,121.113,2306.99,112.699" style="stroke: #A80036; stroke-width: 1.0;"/><!--link Base to StartScreen--><path d="M2742.89,107.686 C2705.36,139.724 2656.9,181.093 2621.09,211.664 " fill="none" id="Base-StartScreen" style="stroke: #A80036; stroke-width: 1.0;"/><polygon fill="none" points="2738.48,102.247,2758.23,94.586,2747.57,112.895,2738.48,102.247" style="stroke: #A80036; stroke-width: 1.0;"/><!--link State to StartScreen--><path d="M2417.96,114.39 C2452.09,145.421 2493.85,183.391 2525.2,211.896 " fill="none" id="State-StartScreen" style="stroke: #A80036; stroke-width: 1.0; stroke-dasharray: 7.0,7.0;"/><polygon fill="none" points="2412.98,119.314,2402.89,100.68,2422.39,108.956,2412.98,119.314" style="stroke: #A80036; stroke-width: 1.0;"/><!--link Base to Init--><path d="M2840.1,111.16 C2862.13,140.469 2889.38,176.702 2910.91,205.342 " fill="none" id="Base-Init" style="stroke: #A80036; stroke-width: 1.0;"/><polygon fill="none" points="2834.23,115.006,2827.81,94.814,2845.42,106.592,2834.23,115.006" style="stroke: #A80036; stroke-width: 1.0;"/><!--link State to Init--><path d="M2567.05,105.129 C2657.15,126.245 2751.25,150.184 2793.5,167 C2819.75,177.447 2847.02,191.622 2871.19,205.495 " fill="none" id="State-Init" style="stroke: #A80036; stroke-width: 1.0; stroke-dasharray: 7.0,7.0;"/><polygon fill="none" points="2565.2,111.884,2547.31,100.53,2568.37,98.249,2565.2,111.884" style="stroke: #A80036; stroke-width: 1.0;"/><!--link HeroOptions to ZombieOptions--><!--link ZombieOptions to BulletOptions--><!--link HeroOptions to InGameKeys--><!--link InGameKeys to GameContext--><!--link GameContext to Collidable--><!--
@startuml
interface Drawable {
    +updatePosition(context?: GameContext | undefined): void
    +draw(ctx: CanvasRenderingContext2D): void
}
abstract class GameObject {
    +rotation: number
    #{abstract} position: [number, number]
    +x: number
    +y: number
}
abstract class BaseCharacter extends GameObject {
    #lives: number
    #velocity: [number, number]
    +updatePosition(context?: GameContext | undefined): void
    #directTowards(targetPosition: [number, number]): void
}
abstract class VectorCharacter extends BaseCharacter implements Drawable {
    +draw(ctx: CanvasRenderingContext2D): void
    #{abstract} color: string
    +{abstract} widthHeight: [number, number]
}
abstract class BitmapCharacter extends BaseCharacter implements Drawable {
    +draw(ctx: CanvasRenderingContext2D): void
    #{abstract} image: HTMLImageElement
    #{abstract} widthHeight: [number, number]
}
interface State {
    +transition(context: GameContext): void
    +keyHandler(event: KeyboardEvent, inGameKeys: InGameKeys): void
    +update(context: GameContext): void
}
abstract class Base {
    +update(context: GameContext): void
    +keyHandler(event: KeyboardEvent, inGameKeys: InGameKeys): void
}
class Bullet extends VectorCharacter {
    +widthHeight: [number, number]
    +color: string
    +position: [number, number]
    +rotation: number
    +updatePosition(): void
}
class Zombie extends BitmapCharacter {
    +widthHeight: [number, number]
    +image: HTMLImageElement
    +position: [number, number]
    +updatePosition(context: GameContext): void
    -randomStumble(): void
    +{static} imagesToLoad: HTMLImageElement[]
}
interface HeroOptions {
    +position: [number, number]
}
interface ZombieOptions {
    +image: HTMLImageElement
    +pointToSpawnAround: [number, number]
}
interface BulletOptions {
    +position: [number, number]
    +rotation: number
}
class Hero extends VectorCharacter {
    +lives: number
    +widthHeight: [number, number]
    +color: string
    +firePaused: boolean
    +numberOfBullets: number
    +position: [number, number]
    +updatePosition(context: GameContext): void
}
class ScreenText extends GameObject implements Drawable {
    +position: [number, number]
    +linesOfText: string[]
    -textStyle: string
    -textAlignment: CanvasTextAlign
    -fontColor: string
    +updatePosition(context: GameContext): void
    +draw(ctx: CanvasRenderingContext2D): void
    -styleText: (ctx: CanvasRenderingContext2D) => void
    -drawLinesOfText: (ctx: CanvasRenderingContext2D) => void
}
interface InGameKeys {
    +startPressed: boolean
    +firePressed: boolean
    +leftPressed: boolean
    +rightPressed: boolean
    +pausePressed: boolean
}
class GameContext {
    +entities: { [key: string]: Drawable | Drawable[]; hero: Hero; zombies: Zombie[]; bullets: Bullet[]; screenText: ScreenText[]; }
    +score: number
    +inGameKeys: InGameKeys
    -state: State
    +ctx: CanvasRenderingContext2D
    +State: State
    +State: State
    +transition(): void
    +keyHandler(event: KeyboardEvent): void
    +updateCurrentState(): void
}
class LevelOne extends Base implements State {
    +transition(context: GameContext): void
    +update(context: GameContext): void
}
class StartScreen extends Base implements State {
    +transition(context: GameContext): void
    +keyHandler(event: KeyboardEvent, inGameKeys: InGameKeys): void
    +update(context: GameContext): void
}
class Init extends Base implements State {
    -runAsyncInitFunctionOnce: boolean
    +transition(context: GameContext): void
    +update(context: GameContext): void
    +{static} init(context: GameContext): Promise<void>
}
interface Collidable {
    +x: number
    +y: number
    +widthHeight: [number, number]
}
@enduml

PlantUML version 1.2019.07(Mon Jun 24 19:59:20 UTC 2019)
(GPL source distribution)
Java Runtime: Java(TM) SE Runtime Environment
JVM: Java HotSpot(TM) 64-Bit Server VM
Java Version: 1.7.0_25-b15
Operating System: Linux
Default Encoding: UTF-8
Language: en
Country: US
--></g></svg>