<?xml version="1.0" encoding="UTF-8" standalone="no"?><svg xmlns="http://www.w3.org/2000/svg" xmlns:xlink="http://www.w3.org/1999/xlink" contentScriptType="application/ecmascript" contentStyleType="text/css" height="774px" preserveAspectRatio="none" style="width:3113px;height:774px;" version="1.1" viewBox="0 0 3113 774" width="3113px" zoomAndPan="magnify"><defs><filter height="300%" id="f1pqhvyohg513e" width="300%" x="-1" y="-1"><feGaussianBlur result="blurOut" stdDeviation="2.0"/><feColorMatrix in="blurOut" result="blurOut2" type="matrix" values="0 0 0 0 0 0 0 0 0 0 0 0 0 0 0 0 0 0 .4 0"/><feOffset dx="4.0" dy="4.0" in="blurOut2" result="blurOut3"/><feBlend in="SourceGraphic" in2="blurOut3" mode="normal"/></filter></defs><g><!--class State--><rect fill="#FEFECE" filter="url(#f1pqhvyohg513e)" height="86.4141" id="State" style="stroke: #A80036; stroke-width: 1.5;" width="409" x="1024" y="14.5"/><ellipse cx="1207.25" cy="30.5" fill="#B4A7E5" rx="11" ry="11" style="stroke: #A80036; stroke-width: 1.0;"/><path d="M1208.2031,27.2813 L1208.2031,33.7969 L1209.9219,33.7969 C1210.375,33.7969 1210.5156,33.8281 1210.6875,33.9531 C1210.9219,34.125 1211.0313,34.375 1211.0313,34.6563 C1211.0313,35.2188 1210.6719,35.5 1209.9219,35.5 L1204.7813,35.5 C1204.375,35.5 1204.1719,35.4531 1204.0156,35.3281 C1203.7969,35.1719 1203.6563,34.9063 1203.6563,34.6563 C1203.6563,34.3594 1203.8125,34.0781 1204.0625,33.9219 C1204.2188,33.8125 1204.3438,33.7969 1204.7813,33.7969 L1206.5,33.7969 L1206.5,27.2813 L1204.7813,27.2813 C1204.3594,27.2813 1204.1719,27.25 1204.0156,27.1406 C1203.7969,26.9688 1203.6563,26.7188 1203.6563,26.4375 C1203.6563,26.1563 1203.8125,25.8594 1204.0625,25.7031 C1204.2188,25.6094 1204.3438,25.5938 1204.7813,25.5938 L1209.9219,25.5938 C1210.375,25.5938 1210.5156,25.625 1210.6875,25.7344 C1210.9219,25.9063 1211.0313,26.1719 1211.0313,26.4375 C1211.0313,26.7344 1210.8906,27.0156 1210.625,27.1719 C1210.5,27.25 1210.3125,27.2813 1209.9219,27.2813 Z "/><text fill="#000000" font-family="sans-serif" font-size="12" font-style="italic" lengthAdjust="spacingAndGlyphs" textLength="34" x="1227.75" y="34.6543">State</text><line style="stroke: #A80036; stroke-width: 1.5;" x1="1025" x2="1432" y1="46.5" y2="46.5"/><line style="stroke: #A80036; stroke-width: 1.5;" x1="1025" x2="1432" y1="54.5" y2="54.5"/><ellipse cx="1035" cy="66.4023" fill="#84BE84" rx="3" ry="3" style="stroke: #038048; stroke-width: 1.0;"/><text fill="#000000" font-family="sans-serif" font-size="11" lengthAdjust="spacingAndGlyphs" textLength="219" x="1044" y="68.7104">transition(context: GameContext): void</text><ellipse cx="1035" cy="79.207" fill="#84BE84" rx="3" ry="3" style="stroke: #038048; stroke-width: 1.0;"/><text fill="#000000" font-family="sans-serif" font-size="11" lengthAdjust="spacingAndGlyphs" textLength="383" x="1044" y="81.5151">keyHandler(event: KeyboardEvent, inGameKeys: InGameKeys): void</text><ellipse cx="1035" cy="92.0117" fill="#84BE84" rx="3" ry="3" style="stroke: #038048; stroke-width: 1.0;"/><text fill="#000000" font-family="sans-serif" font-size="11" lengthAdjust="spacingAndGlyphs" textLength="204" x="1044" y="94.3198">update(context: GameContext): void</text><!--class Base--><rect fill="#FEFECE" filter="url(#f1pqhvyohg513e)" height="73.6094" id="Base" style="stroke: #A80036; stroke-width: 1.5;" width="409" x="1468" y="20.5"/><ellipse cx="1653.25" cy="36.5" fill="#A9DCDF" rx="11" ry="11" style="stroke: #A80036; stroke-width: 1.0;"/><path d="M1654.8281,38.3125 L1650.7813,38.3125 L1650.3906,39.2969 L1650.7813,39.2969 C1651.2344,39.2969 1651.375,39.3281 1651.5469,39.4531 C1651.7656,39.625 1651.8906,39.875 1651.8906,40.1563 C1651.8906,40.4375 1651.75,40.7344 1651.4844,40.875 C1651.3594,40.9688 1651.1406,41 1650.7813,41 L1648.5156,41 C1647.7656,41 1647.3906,40.7188 1647.3906,40.1563 C1647.3906,39.8594 1647.5469,39.5781 1647.7969,39.4219 C1647.9531,39.3125 1648.1094,39.2969 1648.5313,39.2969 L1651.1719,32.7813 L1650.0938,32.7813 C1649.6563,32.7813 1649.4844,32.75 1649.3125,32.6406 C1649.0938,32.4688 1648.9531,32.2188 1648.9531,31.9375 C1648.9531,31.6563 1649.1094,31.375 1649.3594,31.2031 C1649.5156,31.1094 1649.6406,31.0938 1650.0938,31.0938 L1653.7656,31.0938 L1657.1563,39.2969 C1657.625,39.2969 1657.7813,39.3281 1657.9531,39.4688 C1658.1719,39.625 1658.3125,39.875 1658.3125,40.1563 C1658.3125,40.4375 1658.1563,40.7344 1657.9063,40.875 C1657.7656,40.9688 1657.5469,41 1657.1875,41 L1654.8281,41 C1654.4063,41 1654.2031,40.9531 1654.0625,40.8281 C1653.8438,40.6719 1653.7031,40.4219 1653.7031,40.1563 C1653.7031,39.8594 1653.8594,39.5781 1654.1094,39.4219 C1654.2656,39.3125 1654.375,39.2969 1654.8281,39.2969 L1655.2188,39.2969 Z M1654.125,36.6094 L1652.7969,33.3438 L1651.4531,36.6094 Z "/><text fill="#000000" font-family="sans-serif" font-size="12" font-style="italic" lengthAdjust="spacingAndGlyphs" textLength="30" x="1673.75" y="40.6543">Base</text><line style="stroke: #A80036; stroke-width: 1.5;" x1="1469" x2="1876" y1="52.5" y2="52.5"/><line style="stroke: #A80036; stroke-width: 1.5;" x1="1469" x2="1876" y1="60.5" y2="60.5"/><ellipse cx="1479" cy="72.4023" fill="#84BE84" rx="3" ry="3" style="stroke: #038048; stroke-width: 1.0;"/><text fill="#000000" font-family="sans-serif" font-size="11" lengthAdjust="spacingAndGlyphs" textLength="204" x="1488" y="74.7104">update(context: GameContext): void</text><ellipse cx="1479" cy="85.207" fill="#84BE84" rx="3" ry="3" style="stroke: #038048; stroke-width: 1.0;"/><text fill="#000000" font-family="sans-serif" font-size="11" lengthAdjust="spacingAndGlyphs" textLength="383" x="1488" y="87.5151">keyHandler(event: KeyboardEvent, inGameKeys: InGameKeys): void</text><!--class Drawable--><rect fill="#FEFECE" filter="url(#f1pqhvyohg513e)" height="73.6094" id="Drawable" style="stroke: #A80036; stroke-width: 1.5;" width="349" x="2477" y="218"/><ellipse cx="2617.75" cy="234" fill="#B4A7E5" rx="11" ry="11" style="stroke: #A80036; stroke-width: 1.0;"/><path d="M2618.7031,230.7813 L2618.7031,237.2969 L2620.4219,237.2969 C2620.875,237.2969 2621.0156,237.3281 2621.1875,237.4531 C2621.4219,237.625 2621.5313,237.875 2621.5313,238.1563 C2621.5313,238.7188 2621.1719,239 2620.4219,239 L2615.2813,239 C2614.875,239 2614.6719,238.9531 2614.5156,238.8281 C2614.2969,238.6719 2614.1563,238.4063 2614.1563,238.1563 C2614.1563,237.8594 2614.3125,237.5781 2614.5625,237.4219 C2614.7188,237.3125 2614.8438,237.2969 2615.2813,237.2969 L2617,237.2969 L2617,230.7813 L2615.2813,230.7813 C2614.8594,230.7813 2614.6719,230.75 2614.5156,230.6406 C2614.2969,230.4688 2614.1563,230.2188 2614.1563,229.9375 C2614.1563,229.6563 2614.3125,229.3594 2614.5625,229.2031 C2614.7188,229.1094 2614.8438,229.0938 2615.2813,229.0938 L2620.4219,229.0938 C2620.875,229.0938 2621.0156,229.125 2621.1875,229.2344 C2621.4219,229.4063 2621.5313,229.6719 2621.5313,229.9375 C2621.5313,230.2344 2621.3906,230.5156 2621.125,230.6719 C2621,230.75 2620.8125,230.7813 2620.4219,230.7813 Z "/><text fill="#000000" font-family="sans-serif" font-size="12" font-style="italic" lengthAdjust="spacingAndGlyphs" textLength="59" x="2638.25" y="238.1543">Drawable</text><line style="stroke: #A80036; stroke-width: 1.5;" x1="2478" x2="2825" y1="250" y2="250"/><line style="stroke: #A80036; stroke-width: 1.5;" x1="2478" x2="2825" y1="258" y2="258"/><ellipse cx="2488" cy="269.9023" fill="#84BE84" rx="3" ry="3" style="stroke: #038048; stroke-width: 1.0;"/><text fill="#000000" font-family="sans-serif" font-size="11" lengthAdjust="spacingAndGlyphs" textLength="323" x="2497" y="272.2104">updatePosition(context?: GameContext | undefined): void</text><ellipse cx="2488" cy="282.707" fill="#84BE84" rx="3" ry="3" style="stroke: #038048; stroke-width: 1.0;"/><text fill="#000000" font-family="sans-serif" font-size="11" lengthAdjust="spacingAndGlyphs" textLength="248" x="2497" y="285.0151">draw(ctx: CanvasRenderingContext2D): void</text><!--class GameObject--><rect fill="#FEFECE" filter="url(#f1pqhvyohg513e)" height="99.2188" id="GameObject" style="stroke: #A80036; stroke-width: 1.5;" width="182" x="2488.5" y="8"/><ellipse cx="2537.75" cy="24" fill="#A9DCDF" rx="11" ry="11" style="stroke: #A80036; stroke-width: 1.0;"/><path d="M2539.3281,25.8125 L2535.2813,25.8125 L2534.8906,26.7969 L2535.2813,26.7969 C2535.7344,26.7969 2535.875,26.8281 2536.0469,26.9531 C2536.2656,27.125 2536.3906,27.375 2536.3906,27.6563 C2536.3906,27.9375 2536.25,28.2344 2535.9844,28.375 C2535.8594,28.4688 2535.6406,28.5 2535.2813,28.5 L2533.0156,28.5 C2532.2656,28.5 2531.8906,28.2188 2531.8906,27.6563 C2531.8906,27.3594 2532.0469,27.0781 2532.2969,26.9219 C2532.4531,26.8125 2532.6094,26.7969 2533.0313,26.7969 L2535.6719,20.2813 L2534.5938,20.2813 C2534.1563,20.2813 2533.9844,20.25 2533.8125,20.1406 C2533.5938,19.9688 2533.4531,19.7188 2533.4531,19.4375 C2533.4531,19.1563 2533.6094,18.875 2533.8594,18.7031 C2534.0156,18.6094 2534.1406,18.5938 2534.5938,18.5938 L2538.2656,18.5938 L2541.6563,26.7969 C2542.125,26.7969 2542.2813,26.8281 2542.4531,26.9688 C2542.6719,27.125 2542.8125,27.375 2542.8125,27.6563 C2542.8125,27.9375 2542.6563,28.2344 2542.4063,28.375 C2542.2656,28.4688 2542.0469,28.5 2541.6875,28.5 L2539.3281,28.5 C2538.9063,28.5 2538.7031,28.4531 2538.5625,28.3281 C2538.3438,28.1719 2538.2031,27.9219 2538.2031,27.6563 C2538.2031,27.3594 2538.3594,27.0781 2538.6094,26.9219 C2538.7656,26.8125 2538.875,26.7969 2539.3281,26.7969 L2539.7188,26.7969 Z M2538.625,24.1094 L2537.2969,20.8438 L2535.9531,24.1094 Z "/><text fill="#000000" font-family="sans-serif" font-size="12" font-style="italic" lengthAdjust="spacingAndGlyphs" textLength="75" x="2558.25" y="28.1543">GameObject</text><line style="stroke: #A80036; stroke-width: 1.5;" x1="2489.5" x2="2669.5" y1="40" y2="40"/><ellipse cx="2499.5" cy="51.9023" fill="none" rx="3" ry="3" style="stroke: #038048; stroke-width: 1.0;"/><text fill="#000000" font-family="sans-serif" font-size="11" lengthAdjust="spacingAndGlyphs" textLength="96" x="2508.5" y="54.2104">rotation: number</text><polygon fill="none" points="2499.5,59.707,2503.5,63.707,2499.5,67.707,2495.5,63.707" style="stroke: #B38D22; stroke-width: 1.0;"/><text fill="#000000" font-family="sans-serif" font-size="11" font-style="italic" lengthAdjust="spacingAndGlyphs" textLength="156" x="2508.5" y="67.0151">position: [number, number]</text><ellipse cx="2499.5" cy="77.5117" fill="none" rx="3" ry="3" style="stroke: #038048; stroke-width: 1.0;"/><text fill="#000000" font-family="sans-serif" font-size="11" lengthAdjust="spacingAndGlyphs" textLength="58" x="2508.5" y="79.8198">x: number</text><ellipse cx="2499.5" cy="90.3164" fill="none" rx="3" ry="3" style="stroke: #038048; stroke-width: 1.0;"/><text fill="#000000" font-family="sans-serif" font-size="11" lengthAdjust="spacingAndGlyphs" textLength="58" x="2508.5" y="92.6245">y: number</text><line style="stroke: #A80036; stroke-width: 1.5;" x1="2489.5" x2="2669.5" y1="99.2188" y2="99.2188"/><!--class BaseCharacter--><rect fill="#FEFECE" filter="url(#f1pqhvyohg513e)" height="99.2188" id="BaseCharacter" style="stroke: #A80036; stroke-width: 1.5;" width="349" x="2093" y="205.5"/><ellipse cx="2217.25" cy="221.5" fill="#A9DCDF" rx="11" ry="11" style="stroke: #A80036; stroke-width: 1.0;"/><path d="M2218.8281,223.3125 L2214.7813,223.3125 L2214.3906,224.2969 L2214.7813,224.2969 C2215.2344,224.2969 2215.375,224.3281 2215.5469,224.4531 C2215.7656,224.625 2215.8906,224.875 2215.8906,225.1563 C2215.8906,225.4375 2215.75,225.7344 2215.4844,225.875 C2215.3594,225.9688 2215.1406,226 2214.7813,226 L2212.5156,226 C2211.7656,226 2211.3906,225.7188 2211.3906,225.1563 C2211.3906,224.8594 2211.5469,224.5781 2211.7969,224.4219 C2211.9531,224.3125 2212.1094,224.2969 2212.5313,224.2969 L2215.1719,217.7813 L2214.0938,217.7813 C2213.6563,217.7813 2213.4844,217.75 2213.3125,217.6406 C2213.0938,217.4688 2212.9531,217.2188 2212.9531,216.9375 C2212.9531,216.6563 2213.1094,216.375 2213.3594,216.2031 C2213.5156,216.1094 2213.6406,216.0938 2214.0938,216.0938 L2217.7656,216.0938 L2221.1563,224.2969 C2221.625,224.2969 2221.7813,224.3281 2221.9531,224.4688 C2222.1719,224.625 2222.3125,224.875 2222.3125,225.1563 C2222.3125,225.4375 2222.1563,225.7344 2221.9063,225.875 C2221.7656,225.9688 2221.5469,226 2221.1875,226 L2218.8281,226 C2218.4063,226 2218.2031,225.9531 2218.0625,225.8281 C2217.8438,225.6719 2217.7031,225.4219 2217.7031,225.1563 C2217.7031,224.8594 2217.8594,224.5781 2218.1094,224.4219 C2218.2656,224.3125 2218.375,224.2969 2218.8281,224.2969 L2219.2188,224.2969 Z M2218.125,221.6094 L2216.7969,218.3438 L2215.4531,221.6094 Z "/><text fill="#000000" font-family="sans-serif" font-size="12" font-style="italic" lengthAdjust="spacingAndGlyphs" textLength="92" x="2237.75" y="225.6543">BaseCharacter</text><line style="stroke: #A80036; stroke-width: 1.5;" x1="2094" x2="2441" y1="237.5" y2="237.5"/><polygon fill="none" points="2104,244.4023,2108,248.4023,2104,252.4023,2100,248.4023" style="stroke: #B38D22; stroke-width: 1.0;"/><text fill="#000000" font-family="sans-serif" font-size="11" lengthAdjust="spacingAndGlyphs" textLength="78" x="2113" y="251.7104">lives: number</text><polygon fill="none" points="2104,257.207,2108,261.207,2104,265.207,2100,261.207" style="stroke: #B38D22; stroke-width: 1.0;"/><text fill="#000000" font-family="sans-serif" font-size="11" lengthAdjust="spacingAndGlyphs" textLength="154" x="2113" y="264.5151">velocity: [number, number]</text><line style="stroke: #A80036; stroke-width: 1.5;" x1="2094" x2="2441" y1="271.1094" y2="271.1094"/><ellipse cx="2104" cy="283.0117" fill="#84BE84" rx="3" ry="3" style="stroke: #038048; stroke-width: 1.0;"/><text fill="#000000" font-family="sans-serif" font-size="11" lengthAdjust="spacingAndGlyphs" textLength="323" x="2113" y="285.3198">updatePosition(context?: GameContext | undefined): void</text><polygon fill="#FFFF44" points="2104,290.8164,2108,294.8164,2104,298.8164,2100,294.8164" style="stroke: #B38D22; stroke-width: 1.0;"/><text fill="#000000" font-family="sans-serif" font-size="11" lengthAdjust="spacingAndGlyphs" textLength="311" x="2113" y="298.1245">directTowards(targetPosition: [number, number]): void</text><!--class VectorCharacter--><rect fill="#FEFECE" filter="url(#f1pqhvyohg513e)" height="86.4141" id="VectorCharacter" style="stroke: #A80036; stroke-width: 1.5;" width="274" x="2425.5" y="441.5"/><ellipse cx="2506.75" cy="457.5" fill="#A9DCDF" rx="11" ry="11" style="stroke: #A80036; stroke-width: 1.0;"/><path d="M2508.3281,459.3125 L2504.2813,459.3125 L2503.8906,460.2969 L2504.2813,460.2969 C2504.7344,460.2969 2504.875,460.3281 2505.0469,460.4531 C2505.2656,460.625 2505.3906,460.875 2505.3906,461.1563 C2505.3906,461.4375 2505.25,461.7344 2504.9844,461.875 C2504.8594,461.9688 2504.6406,462 2504.2813,462 L2502.0156,462 C2501.2656,462 2500.8906,461.7188 2500.8906,461.1563 C2500.8906,460.8594 2501.0469,460.5781 2501.2969,460.4219 C2501.4531,460.3125 2501.6094,460.2969 2502.0313,460.2969 L2504.6719,453.7813 L2503.5938,453.7813 C2503.1563,453.7813 2502.9844,453.75 2502.8125,453.6406 C2502.5938,453.4688 2502.4531,453.2188 2502.4531,452.9375 C2502.4531,452.6563 2502.6094,452.375 2502.8594,452.2031 C2503.0156,452.1094 2503.1406,452.0938 2503.5938,452.0938 L2507.2656,452.0938 L2510.6563,460.2969 C2511.125,460.2969 2511.2813,460.3281 2511.4531,460.4688 C2511.6719,460.625 2511.8125,460.875 2511.8125,461.1563 C2511.8125,461.4375 2511.6563,461.7344 2511.4063,461.875 C2511.2656,461.9688 2511.0469,462 2510.6875,462 L2508.3281,462 C2507.9063,462 2507.7031,461.9531 2507.5625,461.8281 C2507.3438,461.6719 2507.2031,461.4219 2507.2031,461.1563 C2507.2031,460.8594 2507.3594,460.5781 2507.6094,460.4219 C2507.7656,460.3125 2507.875,460.2969 2508.3281,460.2969 L2508.7188,460.2969 Z M2507.625,457.6094 L2506.2969,454.3438 L2504.9531,457.6094 Z "/><text fill="#000000" font-family="sans-serif" font-size="12" font-style="italic" lengthAdjust="spacingAndGlyphs" textLength="103" x="2527.25" y="461.6543">VectorCharacter</text><line style="stroke: #A80036; stroke-width: 1.5;" x1="2426.5" x2="2698.5" y1="473.5" y2="473.5"/><polygon fill="none" points="2436.5,480.4023,2440.5,484.4023,2436.5,488.4023,2432.5,484.4023" style="stroke: #B38D22; stroke-width: 1.0;"/><text fill="#000000" font-family="sans-serif" font-size="11" font-style="italic" lengthAdjust="spacingAndGlyphs" textLength="68" x="2445.5" y="487.7104">color: string</text><polygon fill="none" points="2436.5,493.207,2440.5,497.207,2436.5,501.207,2432.5,497.207" style="stroke: #B38D22; stroke-width: 1.0;"/><text fill="#000000" font-family="sans-serif" font-size="11" font-style="italic" lengthAdjust="spacingAndGlyphs" textLength="178" x="2445.5" y="500.5151">widthHeight: [number, number]</text><line style="stroke: #A80036; stroke-width: 1.5;" x1="2426.5" x2="2698.5" y1="507.1094" y2="507.1094"/><ellipse cx="2436.5" cy="519.0117" fill="#84BE84" rx="3" ry="3" style="stroke: #038048; stroke-width: 1.0;"/><text fill="#000000" font-family="sans-serif" font-size="11" lengthAdjust="spacingAndGlyphs" textLength="248" x="2445.5" y="521.3198">draw(ctx: CanvasRenderingContext2D): void</text><!--class BitmapCharacter--><rect fill="#FEFECE" filter="url(#f1pqhvyohg513e)" height="86.4141" id="BitmapCharacter" style="stroke: #A80036; stroke-width: 1.5;" width="274" x="2116.5" y="441.5"/><ellipse cx="2196.75" cy="457.5" fill="#A9DCDF" rx="11" ry="11" style="stroke: #A80036; stroke-width: 1.0;"/><path d="M2198.3281,459.3125 L2194.2813,459.3125 L2193.8906,460.2969 L2194.2813,460.2969 C2194.7344,460.2969 2194.875,460.3281 2195.0469,460.4531 C2195.2656,460.625 2195.3906,460.875 2195.3906,461.1563 C2195.3906,461.4375 2195.25,461.7344 2194.9844,461.875 C2194.8594,461.9688 2194.6406,462 2194.2813,462 L2192.0156,462 C2191.2656,462 2190.8906,461.7188 2190.8906,461.1563 C2190.8906,460.8594 2191.0469,460.5781 2191.2969,460.4219 C2191.4531,460.3125 2191.6094,460.2969 2192.0313,460.2969 L2194.6719,453.7813 L2193.5938,453.7813 C2193.1563,453.7813 2192.9844,453.75 2192.8125,453.6406 C2192.5938,453.4688 2192.4531,453.2188 2192.4531,452.9375 C2192.4531,452.6563 2192.6094,452.375 2192.8594,452.2031 C2193.0156,452.1094 2193.1406,452.0938 2193.5938,452.0938 L2197.2656,452.0938 L2200.6563,460.2969 C2201.125,460.2969 2201.2813,460.3281 2201.4531,460.4688 C2201.6719,460.625 2201.8125,460.875 2201.8125,461.1563 C2201.8125,461.4375 2201.6563,461.7344 2201.4063,461.875 C2201.2656,461.9688 2201.0469,462 2200.6875,462 L2198.3281,462 C2197.9063,462 2197.7031,461.9531 2197.5625,461.8281 C2197.3438,461.6719 2197.2031,461.4219 2197.2031,461.1563 C2197.2031,460.8594 2197.3594,460.5781 2197.6094,460.4219 C2197.7656,460.3125 2197.875,460.2969 2198.3281,460.2969 L2198.7188,460.2969 Z M2197.625,457.6094 L2196.2969,454.3438 L2194.9531,457.6094 Z "/><text fill="#000000" font-family="sans-serif" font-size="12" font-style="italic" lengthAdjust="spacingAndGlyphs" textLength="105" x="2217.25" y="461.6543">BitmapCharacter</text><line style="stroke: #A80036; stroke-width: 1.5;" x1="2117.5" x2="2389.5" y1="473.5" y2="473.5"/><polygon fill="none" points="2127.5,480.4023,2131.5,484.4023,2127.5,488.4023,2123.5,484.4023" style="stroke: #B38D22; stroke-width: 1.0;"/><text fill="#000000" font-family="sans-serif" font-size="11" font-style="italic" lengthAdjust="spacingAndGlyphs" textLength="154" x="2136.5" y="487.7104">image: HTMLImageElement</text><polygon fill="none" points="2127.5,493.207,2131.5,497.207,2127.5,501.207,2123.5,497.207" style="stroke: #B38D22; stroke-width: 1.0;"/><text fill="#000000" font-family="sans-serif" font-size="11" font-style="italic" lengthAdjust="spacingAndGlyphs" textLength="178" x="2136.5" y="500.5151">widthHeight: [number, number]</text><line style="stroke: #A80036; stroke-width: 1.5;" x1="2117.5" x2="2389.5" y1="507.1094" y2="507.1094"/><ellipse cx="2127.5" cy="519.0117" fill="#84BE84" rx="3" ry="3" style="stroke: #038048; stroke-width: 1.0;"/><text fill="#000000" font-family="sans-serif" font-size="11" lengthAdjust="spacingAndGlyphs" textLength="248" x="2136.5" y="521.3198">draw(ctx: CanvasRenderingContext2D): void</text><!--class Bullet--><rect fill="#FEFECE" filter="url(#f1pqhvyohg513e)" height="99.2188" id="Bullet" style="stroke: #A80036; stroke-width: 1.5;" width="204" x="2443.5" y="645.5"/><ellipse cx="2523.75" cy="661.5" fill="#ADD1B2" rx="11" ry="11" style="stroke: #A80036; stroke-width: 1.0;"/><path d="M2526.0938,657.1719 L2526.2656,657.25 C2526.4844,656.9375 2526.6875,656.8438 2526.9844,656.8438 C2527.2813,656.8438 2527.5625,656.9844 2527.7188,657.25 C2527.8125,657.4063 2527.8281,657.5313 2527.8281,657.9688 L2527.8281,659.3906 C2527.8281,659.8125 2527.7969,660 2527.6875,660.1563 C2527.5156,660.375 2527.25,660.5156 2526.9844,660.5156 C2526.7656,660.5156 2526.5313,660.4063 2526.3906,660.2656 C2526.25,660.1406 2526.2188,660.0156 2526.1563,659.6094 C2526.0625,659.2031 2525.8906,658.9844 2525.4063,658.7031 C2524.9375,658.4531 2524.3281,658.2969 2523.75,658.2969 C2522.0156,658.2969 2520.7656,659.6094 2520.7656,661.3906 L2520.7656,662.4844 C2520.7656,664.1875 2522.0625,665.2813 2524.1094,665.2813 C2524.875,665.2813 2525.5625,665.1563 2525.9844,664.8906 C2526.1719,664.7969 2526.1719,664.7969 2526.625,664.3125 C2526.8125,664.125 2527.0156,664.0469 2527.2344,664.0469 C2527.7031,664.0469 2528.0938,664.4375 2528.0938,664.8906 C2528.0938,665.2813 2527.7656,665.7344 2527.1875,666.1406 C2526.4375,666.6875 2525.2813,666.9844 2524.0625,666.9844 C2521.1719,666.9844 2519.0625,665.0938 2519.0625,662.5156 L2519.0625,661.3906 C2519.0625,658.6719 2521.0625,656.5938 2523.6875,656.5938 C2524.5625,656.5938 2525.1563,656.7344 2526.0938,657.1719 Z "/><text fill="#000000" font-family="sans-serif" font-size="12" lengthAdjust="spacingAndGlyphs" textLength="35" x="2544.25" y="665.6543">Bullet</text><line style="stroke: #A80036; stroke-width: 1.5;" x1="2444.5" x2="2646.5" y1="677.5" y2="677.5"/><ellipse cx="2454.5" cy="689.4023" fill="none" rx="3" ry="3" style="stroke: #038048; stroke-width: 1.0;"/><text fill="#000000" font-family="sans-serif" font-size="11" lengthAdjust="spacingAndGlyphs" textLength="178" x="2463.5" y="691.7104">widthHeight: [number, number]</text><ellipse cx="2454.5" cy="702.207" fill="none" rx="3" ry="3" style="stroke: #038048; stroke-width: 1.0;"/><text fill="#000000" font-family="sans-serif" font-size="11" lengthAdjust="spacingAndGlyphs" textLength="69" x="2463.5" y="704.5151">color: string</text><ellipse cx="2454.5" cy="715.0117" fill="none" rx="3" ry="3" style="stroke: #038048; stroke-width: 1.0;"/><text fill="#000000" font-family="sans-serif" font-size="11" lengthAdjust="spacingAndGlyphs" textLength="157" x="2463.5" y="717.3198">position: [number, number]</text><line style="stroke: #A80036; stroke-width: 1.5;" x1="2444.5" x2="2646.5" y1="723.9141" y2="723.9141"/><ellipse cx="2454.5" cy="735.8164" fill="#84BE84" rx="3" ry="3" style="stroke: #038048; stroke-width: 1.0;"/><text fill="#000000" font-family="sans-serif" font-size="11" lengthAdjust="spacingAndGlyphs" textLength="123" x="2463.5" y="738.1245">updatePosition(): void</text><!--class Zombie--><rect fill="#FEFECE" filter="url(#f1pqhvyohg513e)" height="112.0234" id="Zombie" style="stroke: #A80036; stroke-width: 1.5;" width="275" x="2116" y="639"/><ellipse cx="2225.75" cy="655" fill="#ADD1B2" rx="11" ry="11" style="stroke: #A80036; stroke-width: 1.0;"/><path d="M2228.0938,650.6719 L2228.2656,650.75 C2228.4844,650.4375 2228.6875,650.3438 2228.9844,650.3438 C2229.2813,650.3438 2229.5625,650.4844 2229.7188,650.75 C2229.8125,650.9063 2229.8281,651.0313 2229.8281,651.4688 L2229.8281,652.8906 C2229.8281,653.3125 2229.7969,653.5 2229.6875,653.6563 C2229.5156,653.875 2229.25,654.0156 2228.9844,654.0156 C2228.7656,654.0156 2228.5313,653.9063 2228.3906,653.7656 C2228.25,653.6406 2228.2188,653.5156 2228.1563,653.1094 C2228.0625,652.7031 2227.8906,652.4844 2227.4063,652.2031 C2226.9375,651.9531 2226.3281,651.7969 2225.75,651.7969 C2224.0156,651.7969 2222.7656,653.1094 2222.7656,654.8906 L2222.7656,655.9844 C2222.7656,657.6875 2224.0625,658.7813 2226.1094,658.7813 C2226.875,658.7813 2227.5625,658.6563 2227.9844,658.3906 C2228.1719,658.2969 2228.1719,658.2969 2228.625,657.8125 C2228.8125,657.625 2229.0156,657.5469 2229.2344,657.5469 C2229.7031,657.5469 2230.0938,657.9375 2230.0938,658.3906 C2230.0938,658.7813 2229.7656,659.2344 2229.1875,659.6406 C2228.4375,660.1875 2227.2813,660.4844 2226.0625,660.4844 C2223.1719,660.4844 2221.0625,658.5938 2221.0625,656.0156 L2221.0625,654.8906 C2221.0625,652.1719 2223.0625,650.0938 2225.6875,650.0938 C2226.5625,650.0938 2227.1563,650.2344 2228.0938,650.6719 Z "/><text fill="#000000" font-family="sans-serif" font-size="12" lengthAdjust="spacingAndGlyphs" textLength="47" x="2246.25" y="659.1543">Zombie</text><line style="stroke: #A80036; stroke-width: 1.5;" x1="2117" x2="2390" y1="671" y2="671"/><ellipse cx="2127" cy="682.9023" fill="none" rx="3" ry="3" style="stroke: #038048; stroke-width: 1.0;"/><text fill="#000000" font-family="sans-serif" font-size="11" lengthAdjust="spacingAndGlyphs" textLength="178" x="2136" y="685.2104">widthHeight: [number, number]</text><ellipse cx="2127" cy="695.707" fill="none" rx="3" ry="3" style="stroke: #038048; stroke-width: 1.0;"/><text fill="#000000" font-family="sans-serif" font-size="11" lengthAdjust="spacingAndGlyphs" textLength="154" x="2136" y="698.0151">image: HTMLImageElement</text><ellipse cx="2127" cy="708.5117" fill="none" rx="3" ry="3" style="stroke: #038048; stroke-width: 1.0;"/><text fill="#000000" font-family="sans-serif" font-size="11" lengthAdjust="spacingAndGlyphs" textLength="157" x="2136" y="710.8198">position: [number, number]</text><line style="stroke: #A80036; stroke-width: 1.5;" x1="2117" x2="2390" y1="717.4141" y2="717.4141"/><ellipse cx="2127" cy="729.3164" fill="#84BE84" rx="3" ry="3" style="stroke: #038048; stroke-width: 1.0;"/><text fill="#000000" font-family="sans-serif" font-size="11" lengthAdjust="spacingAndGlyphs" textLength="249" x="2136" y="731.6245">updatePosition(context: GameContext): void</text><rect fill="#F24D5C" height="6" style="stroke: #C82930; stroke-width: 1.0;" width="6" x="2124" y="739.1211"/><text fill="#000000" font-family="sans-serif" font-size="11" lengthAdjust="spacingAndGlyphs" textLength="130" x="2136" y="744.4292">randomStumble(): void</text><!--class HeroOptions--><rect fill="#FEFECE" filter="url(#f1pqhvyohg513e)" height="60.8047" id="HeroOptions" style="stroke: #A80036; stroke-width: 1.5;" width="183" x="6" y="27"/><ellipse cx="55.25" cy="43" fill="#B4A7E5" rx="11" ry="11" style="stroke: #A80036; stroke-width: 1.0;"/><path d="M56.2031,39.7813 L56.2031,46.2969 L57.9219,46.2969 C58.375,46.2969 58.5156,46.3281 58.6875,46.4531 C58.9219,46.625 59.0313,46.875 59.0313,47.1563 C59.0313,47.7188 58.6719,48 57.9219,48 L52.7813,48 C52.375,48 52.1719,47.9531 52.0156,47.8281 C51.7969,47.6719 51.6563,47.4063 51.6563,47.1563 C51.6563,46.8594 51.8125,46.5781 52.0625,46.4219 C52.2188,46.3125 52.3438,46.2969 52.7813,46.2969 L54.5,46.2969 L54.5,39.7813 L52.7813,39.7813 C52.3594,39.7813 52.1719,39.75 52.0156,39.6406 C51.7969,39.4688 51.6563,39.2188 51.6563,38.9375 C51.6563,38.6563 51.8125,38.3594 52.0625,38.2031 C52.2188,38.1094 52.3438,38.0938 52.7813,38.0938 L57.9219,38.0938 C58.375,38.0938 58.5156,38.125 58.6875,38.2344 C58.9219,38.4063 59.0313,38.6719 59.0313,38.9375 C59.0313,39.2344 58.8906,39.5156 58.625,39.6719 C58.5,39.75 58.3125,39.7813 57.9219,39.7813 Z "/><text fill="#000000" font-family="sans-serif" font-size="12" font-style="italic" lengthAdjust="spacingAndGlyphs" textLength="76" x="75.75" y="47.1543">HeroOptions</text><line style="stroke: #A80036; stroke-width: 1.5;" x1="7" x2="188" y1="59" y2="59"/><ellipse cx="17" cy="70.9023" fill="none" rx="3" ry="3" style="stroke: #038048; stroke-width: 1.0;"/><text fill="#000000" font-family="sans-serif" font-size="11" lengthAdjust="spacingAndGlyphs" textLength="157" x="26" y="73.2104">position: [number, number]</text><line style="stroke: #A80036; stroke-width: 1.5;" x1="7" x2="188" y1="79.8047" y2="79.8047"/><!--class ZombieOptions--><rect fill="#FEFECE" filter="url(#f1pqhvyohg513e)" height="73.6094" id="ZombieOptions" style="stroke: #A80036; stroke-width: 1.5;" width="258" x="224.5" y="20.5"/><ellipse cx="303.25" cy="36.5" fill="#B4A7E5" rx="11" ry="11" style="stroke: #A80036; stroke-width: 1.0;"/><path d="M304.2031,33.2813 L304.2031,39.7969 L305.9219,39.7969 C306.375,39.7969 306.5156,39.8281 306.6875,39.9531 C306.9219,40.125 307.0313,40.375 307.0313,40.6563 C307.0313,41.2188 306.6719,41.5 305.9219,41.5 L300.7813,41.5 C300.375,41.5 300.1719,41.4531 300.0156,41.3281 C299.7969,41.1719 299.6563,40.9063 299.6563,40.6563 C299.6563,40.3594 299.8125,40.0781 300.0625,39.9219 C300.2188,39.8125 300.3438,39.7969 300.7813,39.7969 L302.5,39.7969 L302.5,33.2813 L300.7813,33.2813 C300.3594,33.2813 300.1719,33.25 300.0156,33.1406 C299.7969,32.9688 299.6563,32.7188 299.6563,32.4375 C299.6563,32.1563 299.8125,31.8594 300.0625,31.7031 C300.2188,31.6094 300.3438,31.5938 300.7813,31.5938 L305.9219,31.5938 C306.375,31.5938 306.5156,31.625 306.6875,31.7344 C306.9219,31.9063 307.0313,32.1719 307.0313,32.4375 C307.0313,32.7344 306.8906,33.0156 306.625,33.1719 C306.5,33.25 306.3125,33.2813 305.9219,33.2813 Z "/><text fill="#000000" font-family="sans-serif" font-size="12" font-style="italic" lengthAdjust="spacingAndGlyphs" textLength="92" x="323.75" y="40.6543">ZombieOptions</text><line style="stroke: #A80036; stroke-width: 1.5;" x1="225.5" x2="481.5" y1="52.5" y2="52.5"/><ellipse cx="235.5" cy="64.4023" fill="none" rx="3" ry="3" style="stroke: #038048; stroke-width: 1.0;"/><text fill="#000000" font-family="sans-serif" font-size="11" lengthAdjust="spacingAndGlyphs" textLength="154" x="244.5" y="66.7104">image: HTMLImageElement</text><ellipse cx="235.5" cy="77.207" fill="none" rx="3" ry="3" style="stroke: #038048; stroke-width: 1.0;"/><text fill="#000000" font-family="sans-serif" font-size="11" lengthAdjust="spacingAndGlyphs" textLength="232" x="244.5" y="79.5151">pointToSpawnAround: [number, number]</text><line style="stroke: #A80036; stroke-width: 1.5;" x1="225.5" x2="481.5" y1="86.1094" y2="86.1094"/><!--class BulletOptions--><rect fill="#FEFECE" filter="url(#f1pqhvyohg513e)" height="73.6094" id="BulletOptions" style="stroke: #A80036; stroke-width: 1.5;" width="183" x="518" y="20.5"/><ellipse cx="564.75" cy="36.5" fill="#B4A7E5" rx="11" ry="11" style="stroke: #A80036; stroke-width: 1.0;"/><path d="M565.7031,33.2813 L565.7031,39.7969 L567.4219,39.7969 C567.875,39.7969 568.0156,39.8281 568.1875,39.9531 C568.4219,40.125 568.5313,40.375 568.5313,40.6563 C568.5313,41.2188 568.1719,41.5 567.4219,41.5 L562.2813,41.5 C561.875,41.5 561.6719,41.4531 561.5156,41.3281 C561.2969,41.1719 561.1563,40.9063 561.1563,40.6563 C561.1563,40.3594 561.3125,40.0781 561.5625,39.9219 C561.7188,39.8125 561.8438,39.7969 562.2813,39.7969 L564,39.7969 L564,33.2813 L562.2813,33.2813 C561.8594,33.2813 561.6719,33.25 561.5156,33.1406 C561.2969,32.9688 561.1563,32.7188 561.1563,32.4375 C561.1563,32.1563 561.3125,31.8594 561.5625,31.7031 C561.7188,31.6094 561.8438,31.5938 562.2813,31.5938 L567.4219,31.5938 C567.875,31.5938 568.0156,31.625 568.1875,31.7344 C568.4219,31.9063 568.5313,32.1719 568.5313,32.4375 C568.5313,32.7344 568.3906,33.0156 568.125,33.1719 C568,33.25 567.8125,33.2813 567.4219,33.2813 Z "/><text fill="#000000" font-family="sans-serif" font-size="12" font-style="italic" lengthAdjust="spacingAndGlyphs" textLength="81" x="585.25" y="40.6543">BulletOptions</text><line style="stroke: #A80036; stroke-width: 1.5;" x1="519" x2="700" y1="52.5" y2="52.5"/><ellipse cx="529" cy="64.4023" fill="none" rx="3" ry="3" style="stroke: #038048; stroke-width: 1.0;"/><text fill="#000000" font-family="sans-serif" font-size="11" lengthAdjust="spacingAndGlyphs" textLength="157" x="538" y="66.7104">position: [number, number]</text><ellipse cx="529" cy="77.207" fill="none" rx="3" ry="3" style="stroke: #038048; stroke-width: 1.0;"/><text fill="#000000" font-family="sans-serif" font-size="11" lengthAdjust="spacingAndGlyphs" textLength="96" x="538" y="79.5151">rotation: number</text><line style="stroke: #A80036; stroke-width: 1.5;" x1="519" x2="700" y1="86.1094" y2="86.1094"/><!--class Hero--><rect fill="#FEFECE" filter="url(#f1pqhvyohg513e)" height="137.6328" id="Hero" style="stroke: #A80036; stroke-width: 1.5;" width="275" x="2683" y="626"/><ellipse cx="2801.25" cy="642" fill="#ADD1B2" rx="11" ry="11" style="stroke: #A80036; stroke-width: 1.0;"/><path d="M2803.5938,637.6719 L2803.7656,637.75 C2803.9844,637.4375 2804.1875,637.3438 2804.4844,637.3438 C2804.7813,637.3438 2805.0625,637.4844 2805.2188,637.75 C2805.3125,637.9063 2805.3281,638.0313 2805.3281,638.4688 L2805.3281,639.8906 C2805.3281,640.3125 2805.2969,640.5 2805.1875,640.6563 C2805.0156,640.875 2804.75,641.0156 2804.4844,641.0156 C2804.2656,641.0156 2804.0313,640.9063 2803.8906,640.7656 C2803.75,640.6406 2803.7188,640.5156 2803.6563,640.1094 C2803.5625,639.7031 2803.3906,639.4844 2802.9063,639.2031 C2802.4375,638.9531 2801.8281,638.7969 2801.25,638.7969 C2799.5156,638.7969 2798.2656,640.1094 2798.2656,641.8906 L2798.2656,642.9844 C2798.2656,644.6875 2799.5625,645.7813 2801.6094,645.7813 C2802.375,645.7813 2803.0625,645.6563 2803.4844,645.3906 C2803.6719,645.2969 2803.6719,645.2969 2804.125,644.8125 C2804.3125,644.625 2804.5156,644.5469 2804.7344,644.5469 C2805.2031,644.5469 2805.5938,644.9375 2805.5938,645.3906 C2805.5938,645.7813 2805.2656,646.2344 2804.6875,646.6406 C2803.9375,647.1875 2802.7813,647.4844 2801.5625,647.4844 C2798.6719,647.4844 2796.5625,645.5938 2796.5625,643.0156 L2796.5625,641.8906 C2796.5625,639.1719 2798.5625,637.0938 2801.1875,637.0938 C2802.0625,637.0938 2802.6563,637.2344 2803.5938,637.6719 Z "/><text fill="#000000" font-family="sans-serif" font-size="12" lengthAdjust="spacingAndGlyphs" textLength="30" x="2821.75" y="646.1543">Hero</text><line style="stroke: #A80036; stroke-width: 1.5;" x1="2684" x2="2957" y1="658" y2="658"/><ellipse cx="2694" cy="669.9023" fill="none" rx="3" ry="3" style="stroke: #038048; stroke-width: 1.0;"/><text fill="#000000" font-family="sans-serif" font-size="11" lengthAdjust="spacingAndGlyphs" textLength="78" x="2703" y="672.2104">lives: number</text><ellipse cx="2694" cy="682.707" fill="none" rx="3" ry="3" style="stroke: #038048; stroke-width: 1.0;"/><text fill="#000000" font-family="sans-serif" font-size="11" lengthAdjust="spacingAndGlyphs" textLength="178" x="2703" y="685.0151">widthHeight: [number, number]</text><ellipse cx="2694" cy="695.5117" fill="none" rx="3" ry="3" style="stroke: #038048; stroke-width: 1.0;"/><text fill="#000000" font-family="sans-serif" font-size="11" lengthAdjust="spacingAndGlyphs" textLength="69" x="2703" y="697.8198">color: string</text><ellipse cx="2694" cy="708.3164" fill="none" rx="3" ry="3" style="stroke: #038048; stroke-width: 1.0;"/><text fill="#000000" font-family="sans-serif" font-size="11" lengthAdjust="spacingAndGlyphs" textLength="114" x="2703" y="710.6245">firePaused: boolean</text><ellipse cx="2694" cy="721.1211" fill="none" rx="3" ry="3" style="stroke: #038048; stroke-width: 1.0;"/><text fill="#000000" font-family="sans-serif" font-size="11" lengthAdjust="spacingAndGlyphs" textLength="148" x="2703" y="723.4292">numberOfBullets: number</text><ellipse cx="2694" cy="733.9258" fill="none" rx="3" ry="3" style="stroke: #038048; stroke-width: 1.0;"/><text fill="#000000" font-family="sans-serif" font-size="11" lengthAdjust="spacingAndGlyphs" textLength="157" x="2703" y="736.2339">position: [number, number]</text><line style="stroke: #A80036; stroke-width: 1.5;" x1="2684" x2="2957" y1="742.8281" y2="742.8281"/><ellipse cx="2694" cy="754.7305" fill="#84BE84" rx="3" ry="3" style="stroke: #038048; stroke-width: 1.0;"/><text fill="#000000" font-family="sans-serif" font-size="11" lengthAdjust="spacingAndGlyphs" textLength="249" x="2703" y="757.0386">updatePosition(context: GameContext): void</text><!--class ScreenText--><rect fill="#FEFECE" filter="url(#f1pqhvyohg513e)" height="163.2422" id="ScreenText" style="stroke: #A80036; stroke-width: 1.5;" width="367" x="2735" y="403"/><ellipse cx="2879.25" cy="419" fill="#ADD1B2" rx="11" ry="11" style="stroke: #A80036; stroke-width: 1.0;"/><path d="M2881.5938,414.6719 L2881.7656,414.75 C2881.9844,414.4375 2882.1875,414.3438 2882.4844,414.3438 C2882.7813,414.3438 2883.0625,414.4844 2883.2188,414.75 C2883.3125,414.9063 2883.3281,415.0313 2883.3281,415.4688 L2883.3281,416.8906 C2883.3281,417.3125 2883.2969,417.5 2883.1875,417.6563 C2883.0156,417.875 2882.75,418.0156 2882.4844,418.0156 C2882.2656,418.0156 2882.0313,417.9063 2881.8906,417.7656 C2881.75,417.6406 2881.7188,417.5156 2881.6563,417.1094 C2881.5625,416.7031 2881.3906,416.4844 2880.9063,416.2031 C2880.4375,415.9531 2879.8281,415.7969 2879.25,415.7969 C2877.5156,415.7969 2876.2656,417.1094 2876.2656,418.8906 L2876.2656,419.9844 C2876.2656,421.6875 2877.5625,422.7813 2879.6094,422.7813 C2880.375,422.7813 2881.0625,422.6563 2881.4844,422.3906 C2881.6719,422.2969 2881.6719,422.2969 2882.125,421.8125 C2882.3125,421.625 2882.5156,421.5469 2882.7344,421.5469 C2883.2031,421.5469 2883.5938,421.9375 2883.5938,422.3906 C2883.5938,422.7813 2883.2656,423.2344 2882.6875,423.6406 C2881.9375,424.1875 2880.7813,424.4844 2879.5625,424.4844 C2876.6719,424.4844 2874.5625,422.5938 2874.5625,420.0156 L2874.5625,418.8906 C2874.5625,416.1719 2876.5625,414.0938 2879.1875,414.0938 C2880.0625,414.0938 2880.6563,414.2344 2881.5938,414.6719 Z "/><text fill="#000000" font-family="sans-serif" font-size="12" lengthAdjust="spacingAndGlyphs" textLength="70" x="2899.75" y="423.1543">ScreenText</text><line style="stroke: #A80036; stroke-width: 1.5;" x1="2736" x2="3101" y1="435" y2="435"/><ellipse cx="2746" cy="446.9023" fill="none" rx="3" ry="3" style="stroke: #038048; stroke-width: 1.0;"/><text fill="#000000" font-family="sans-serif" font-size="11" lengthAdjust="spacingAndGlyphs" textLength="157" x="2755" y="449.2104">position: [number, number]</text><ellipse cx="2746" cy="459.707" fill="none" rx="3" ry="3" style="stroke: #038048; stroke-width: 1.0;"/><text fill="#000000" font-family="sans-serif" font-size="11" lengthAdjust="spacingAndGlyphs" textLength="113" x="2755" y="462.0151">linesOfText: string[]</text><rect fill="none" height="6" style="stroke: #C82930; stroke-width: 1.0;" width="6" x="2743" y="469.5117"/><text fill="#000000" font-family="sans-serif" font-size="11" lengthAdjust="spacingAndGlyphs" textLength="90" x="2755" y="474.8198">textStyle: string</text><rect fill="none" height="6" style="stroke: #C82930; stroke-width: 1.0;" width="6" x="2743" y="482.3164"/><text fill="#000000" font-family="sans-serif" font-size="11" lengthAdjust="spacingAndGlyphs" textLength="178" x="2755" y="487.6245">textAlignment: CanvasTextAlign</text><rect fill="none" height="6" style="stroke: #C82930; stroke-width: 1.0;" width="6" x="2743" y="495.1211"/><text fill="#000000" font-family="sans-serif" font-size="11" lengthAdjust="spacingAndGlyphs" textLength="93" x="2755" y="500.4292">fontColor: string</text><line style="stroke: #A80036; stroke-width: 1.5;" x1="2736" x2="3101" y1="507.0234" y2="507.0234"/><ellipse cx="2746" cy="518.9258" fill="#84BE84" rx="3" ry="3" style="stroke: #038048; stroke-width: 1.0;"/><text fill="#000000" font-family="sans-serif" font-size="11" lengthAdjust="spacingAndGlyphs" textLength="249" x="2755" y="521.2339">updatePosition(context: GameContext): void</text><ellipse cx="2746" cy="531.7305" fill="#84BE84" rx="3" ry="3" style="stroke: #038048; stroke-width: 1.0;"/><text fill="#000000" font-family="sans-serif" font-size="11" lengthAdjust="spacingAndGlyphs" textLength="248" x="2755" y="534.0386">draw(ctx: CanvasRenderingContext2D): void</text><rect fill="#F24D5C" height="6" style="stroke: #C82930; stroke-width: 1.0;" width="6" x="2743" y="541.5352"/><text fill="#000000" font-family="sans-serif" font-size="11" lengthAdjust="spacingAndGlyphs" textLength="297" x="2755" y="546.8433">styleText: (ctx: CanvasRenderingContext2D) =&gt; void</text><rect fill="#F24D5C" height="6" style="stroke: #C82930; stroke-width: 1.0;" width="6" x="2743" y="554.3398"/><text fill="#000000" font-family="sans-serif" font-size="11" lengthAdjust="spacingAndGlyphs" textLength="341" x="2755" y="559.6479">drawLinesOfText: (ctx: CanvasRenderingContext2D) =&gt; void</text><!--class InGameKeys--><rect fill="#FEFECE" filter="url(#f1pqhvyohg513e)" height="112.0234" id="InGameKeys" style="stroke: #A80036; stroke-width: 1.5;" width="161" x="17" y="199"/><ellipse cx="55.4" cy="215" fill="#B4A7E5" rx="11" ry="11" style="stroke: #A80036; stroke-width: 1.0;"/><path d="M56.3531,211.7813 L56.3531,218.2969 L58.0719,218.2969 C58.525,218.2969 58.6656,218.3281 58.8375,218.4531 C59.0719,218.625 59.1813,218.875 59.1813,219.1563 C59.1813,219.7188 58.8219,220 58.0719,220 L52.9313,220 C52.525,220 52.3219,219.9531 52.1656,219.8281 C51.9469,219.6719 51.8063,219.4063 51.8063,219.1563 C51.8063,218.8594 51.9625,218.5781 52.2125,218.4219 C52.3688,218.3125 52.4938,218.2969 52.9313,218.2969 L54.65,218.2969 L54.65,211.7813 L52.9313,211.7813 C52.5094,211.7813 52.3219,211.75 52.1656,211.6406 C51.9469,211.4688 51.8063,211.2188 51.8063,210.9375 C51.8063,210.6563 51.9625,210.3594 52.2125,210.2031 C52.3688,210.1094 52.4938,210.0938 52.9313,210.0938 L58.0719,210.0938 C58.525,210.0938 58.6656,210.125 58.8375,210.2344 C59.0719,210.4063 59.1813,210.6719 59.1813,210.9375 C59.1813,211.2344 59.0406,211.5156 58.775,211.6719 C58.65,211.75 58.4625,211.7813 58.0719,211.7813 Z "/><text fill="#000000" font-family="sans-serif" font-size="12" font-style="italic" lengthAdjust="spacingAndGlyphs" textLength="77" x="74.6" y="219.1543">InGameKeys</text><line style="stroke: #A80036; stroke-width: 1.5;" x1="18" x2="177" y1="231" y2="231"/><ellipse cx="28" cy="242.9023" fill="none" rx="3" ry="3" style="stroke: #038048; stroke-width: 1.0;"/><text fill="#000000" font-family="sans-serif" font-size="11" lengthAdjust="spacingAndGlyphs" textLength="127" x="37" y="245.2104">startPressed: boolean</text><ellipse cx="28" cy="255.707" fill="none" rx="3" ry="3" style="stroke: #038048; stroke-width: 1.0;"/><text fill="#000000" font-family="sans-serif" font-size="11" lengthAdjust="spacingAndGlyphs" textLength="119" x="37" y="258.0151">firePressed: boolean</text><ellipse cx="28" cy="268.5117" fill="none" rx="3" ry="3" style="stroke: #038048; stroke-width: 1.0;"/><text fill="#000000" font-family="sans-serif" font-size="11" lengthAdjust="spacingAndGlyphs" textLength="118" x="37" y="270.8198">leftPressed: boolean</text><ellipse cx="28" cy="281.3164" fill="none" rx="3" ry="3" style="stroke: #038048; stroke-width: 1.0;"/><text fill="#000000" font-family="sans-serif" font-size="11" lengthAdjust="spacingAndGlyphs" textLength="126" x="37" y="283.6245">rightPressed: boolean</text><ellipse cx="28" cy="294.1211" fill="none" rx="3" ry="3" style="stroke: #038048; stroke-width: 1.0;"/><text fill="#000000" font-family="sans-serif" font-size="11" lengthAdjust="spacingAndGlyphs" textLength="135" x="37" y="296.4292">pausePressed: boolean</text><line style="stroke: #A80036; stroke-width: 1.5;" x1="18" x2="177" y1="303.0234" y2="303.0234"/><!--class GameContext--><rect fill="#FEFECE" filter="url(#f1pqhvyohg513e)" height="176.0469" id="GameContext" style="stroke: #A80036; stroke-width: 1.5;" width="676" x="213.5" y="167"/><ellipse cx="505.25" cy="183" fill="#ADD1B2" rx="11" ry="11" style="stroke: #A80036; stroke-width: 1.0;"/><path d="M507.5938,178.6719 L507.7656,178.75 C507.9844,178.4375 508.1875,178.3438 508.4844,178.3438 C508.7813,178.3438 509.0625,178.4844 509.2188,178.75 C509.3125,178.9063 509.3281,179.0313 509.3281,179.4688 L509.3281,180.8906 C509.3281,181.3125 509.2969,181.5 509.1875,181.6563 C509.0156,181.875 508.75,182.0156 508.4844,182.0156 C508.2656,182.0156 508.0313,181.9063 507.8906,181.7656 C507.75,181.6406 507.7188,181.5156 507.6563,181.1094 C507.5625,180.7031 507.3906,180.4844 506.9063,180.2031 C506.4375,179.9531 505.8281,179.7969 505.25,179.7969 C503.5156,179.7969 502.2656,181.1094 502.2656,182.8906 L502.2656,183.9844 C502.2656,185.6875 503.5625,186.7813 505.6094,186.7813 C506.375,186.7813 507.0625,186.6563 507.4844,186.3906 C507.6719,186.2969 507.6719,186.2969 508.125,185.8125 C508.3125,185.625 508.5156,185.5469 508.7344,185.5469 C509.2031,185.5469 509.5938,185.9375 509.5938,186.3906 C509.5938,186.7813 509.2656,187.2344 508.6875,187.6406 C507.9375,188.1875 506.7813,188.4844 505.5625,188.4844 C502.6719,188.4844 500.5625,186.5938 500.5625,184.0156 L500.5625,182.8906 C500.5625,180.1719 502.5625,178.0938 505.1875,178.0938 C506.0625,178.0938 506.6563,178.2344 507.5938,178.6719 Z "/><text fill="#000000" font-family="sans-serif" font-size="12" lengthAdjust="spacingAndGlyphs" textLength="84" x="525.75" y="187.1543">GameContext</text><line style="stroke: #A80036; stroke-width: 1.5;" x1="214.5" x2="888.5" y1="199" y2="199"/><ellipse cx="224.5" cy="210.9023" fill="none" rx="3" ry="3" style="stroke: #038048; stroke-width: 1.0;"/><text fill="#000000" font-family="sans-serif" font-size="11" lengthAdjust="spacingAndGlyphs" textLength="650" x="233.5" y="213.2104">entities: { [key: string]: Drawable[]; hero: Hero[]; zombies: Zombie[]; bullets: Bullet[]; screenText: ScreenText[]; }</text><ellipse cx="224.5" cy="223.707" fill="none" rx="3" ry="3" style="stroke: #038048; stroke-width: 1.0;"/><text fill="#000000" font-family="sans-serif" font-size="11" lengthAdjust="spacingAndGlyphs" textLength="84" x="233.5" y="226.0151">score: number</text><ellipse cx="224.5" cy="236.5117" fill="none" rx="3" ry="3" style="stroke: #038048; stroke-width: 1.0;"/><text fill="#000000" font-family="sans-serif" font-size="11" lengthAdjust="spacingAndGlyphs" textLength="150" x="233.5" y="238.8198">inGameKeys: InGameKeys</text><rect fill="none" height="6" style="stroke: #C82930; stroke-width: 1.0;" width="6" x="221.5" y="246.3164"/><text fill="#000000" font-family="sans-serif" font-size="11" lengthAdjust="spacingAndGlyphs" textLength="67" x="233.5" y="251.6245">state: State</text><ellipse cx="224.5" cy="262.1211" fill="none" rx="3" ry="3" style="stroke: #038048; stroke-width: 1.0;"/><text fill="#000000" font-family="sans-serif" font-size="11" lengthAdjust="spacingAndGlyphs" textLength="181" x="233.5" y="264.4292">ctx: CanvasRenderingContext2D</text><ellipse cx="224.5" cy="274.9258" fill="none" rx="3" ry="3" style="stroke: #038048; stroke-width: 1.0;"/><text fill="#000000" font-family="sans-serif" font-size="11" lengthAdjust="spacingAndGlyphs" textLength="68" x="233.5" y="277.2339">State: State</text><ellipse cx="224.5" cy="287.7305" fill="none" rx="3" ry="3" style="stroke: #038048; stroke-width: 1.0;"/><text fill="#000000" font-family="sans-serif" font-size="11" lengthAdjust="spacingAndGlyphs" textLength="68" x="233.5" y="290.0386">State: State</text><line style="stroke: #A80036; stroke-width: 1.5;" x1="214.5" x2="888.5" y1="296.6328" y2="296.6328"/><ellipse cx="224.5" cy="308.5352" fill="#84BE84" rx="3" ry="3" style="stroke: #038048; stroke-width: 1.0;"/><text fill="#000000" font-family="sans-serif" font-size="11" lengthAdjust="spacingAndGlyphs" textLength="93" x="233.5" y="310.8433">transition(): void</text><ellipse cx="224.5" cy="321.3398" fill="#84BE84" rx="3" ry="3" style="stroke: #038048; stroke-width: 1.0;"/><text fill="#000000" font-family="sans-serif" font-size="11" lengthAdjust="spacingAndGlyphs" textLength="225" x="233.5" y="323.6479">keyHandler(event: KeyboardEvent): void</text><ellipse cx="224.5" cy="334.1445" fill="#84BE84" rx="3" ry="3" style="stroke: #038048; stroke-width: 1.0;"/><text fill="#000000" font-family="sans-serif" font-size="11" lengthAdjust="spacingAndGlyphs" textLength="151" x="233.5" y="336.4526">updateCurrentState(): void</text><!--class LevelOne--><rect fill="#FEFECE" filter="url(#f1pqhvyohg513e)" height="73.6094" id="LevelOne" style="stroke: #A80036; stroke-width: 1.5;" width="245" x="925" y="218"/><ellipse cx="1015.25" cy="234" fill="#ADD1B2" rx="11" ry="11" style="stroke: #A80036; stroke-width: 1.0;"/><path d="M1017.5938,229.6719 L1017.7656,229.75 C1017.9844,229.4375 1018.1875,229.3438 1018.4844,229.3438 C1018.7813,229.3438 1019.0625,229.4844 1019.2188,229.75 C1019.3125,229.9063 1019.3281,230.0313 1019.3281,230.4688 L1019.3281,231.8906 C1019.3281,232.3125 1019.2969,232.5 1019.1875,232.6563 C1019.0156,232.875 1018.75,233.0156 1018.4844,233.0156 C1018.2656,233.0156 1018.0313,232.9063 1017.8906,232.7656 C1017.75,232.6406 1017.7188,232.5156 1017.6563,232.1094 C1017.5625,231.7031 1017.3906,231.4844 1016.9063,231.2031 C1016.4375,230.9531 1015.8281,230.7969 1015.25,230.7969 C1013.5156,230.7969 1012.2656,232.1094 1012.2656,233.8906 L1012.2656,234.9844 C1012.2656,236.6875 1013.5625,237.7813 1015.6094,237.7813 C1016.375,237.7813 1017.0625,237.6563 1017.4844,237.3906 C1017.6719,237.2969 1017.6719,237.2969 1018.125,236.8125 C1018.3125,236.625 1018.5156,236.5469 1018.7344,236.5469 C1019.2031,236.5469 1019.5938,236.9375 1019.5938,237.3906 C1019.5938,237.7813 1019.2656,238.2344 1018.6875,238.6406 C1017.9375,239.1875 1016.7813,239.4844 1015.5625,239.4844 C1012.6719,239.4844 1010.5625,237.5938 1010.5625,235.0156 L1010.5625,233.8906 C1010.5625,231.1719 1012.5625,229.0938 1015.1875,229.0938 C1016.0625,229.0938 1016.6563,229.2344 1017.5938,229.6719 Z "/><text fill="#000000" font-family="sans-serif" font-size="12" lengthAdjust="spacingAndGlyphs" textLength="56" x="1035.75" y="238.1543">LevelOne</text><line style="stroke: #A80036; stroke-width: 1.5;" x1="926" x2="1169" y1="250" y2="250"/><line style="stroke: #A80036; stroke-width: 1.5;" x1="926" x2="1169" y1="258" y2="258"/><ellipse cx="936" cy="269.9023" fill="#84BE84" rx="3" ry="3" style="stroke: #038048; stroke-width: 1.0;"/><text fill="#000000" font-family="sans-serif" font-size="11" lengthAdjust="spacingAndGlyphs" textLength="219" x="945" y="272.2104">transition(context: GameContext): void</text><ellipse cx="936" cy="282.707" fill="#84BE84" rx="3" ry="3" style="stroke: #038048; stroke-width: 1.0;"/><text fill="#000000" font-family="sans-serif" font-size="11" lengthAdjust="spacingAndGlyphs" textLength="204" x="945" y="285.0151">update(context: GameContext): void</text><!--class StartScreen--><rect fill="#FEFECE" filter="url(#f1pqhvyohg513e)" height="86.4141" id="StartScreen" style="stroke: #A80036; stroke-width: 1.5;" width="409" x="1205" y="212"/><ellipse cx="1367.75" cy="228" fill="#ADD1B2" rx="11" ry="11" style="stroke: #A80036; stroke-width: 1.0;"/><path d="M1370.0938,223.6719 L1370.2656,223.75 C1370.4844,223.4375 1370.6875,223.3438 1370.9844,223.3438 C1371.2813,223.3438 1371.5625,223.4844 1371.7188,223.75 C1371.8125,223.9063 1371.8281,224.0313 1371.8281,224.4688 L1371.8281,225.8906 C1371.8281,226.3125 1371.7969,226.5 1371.6875,226.6563 C1371.5156,226.875 1371.25,227.0156 1370.9844,227.0156 C1370.7656,227.0156 1370.5313,226.9063 1370.3906,226.7656 C1370.25,226.6406 1370.2188,226.5156 1370.1563,226.1094 C1370.0625,225.7031 1369.8906,225.4844 1369.4063,225.2031 C1368.9375,224.9531 1368.3281,224.7969 1367.75,224.7969 C1366.0156,224.7969 1364.7656,226.1094 1364.7656,227.8906 L1364.7656,228.9844 C1364.7656,230.6875 1366.0625,231.7813 1368.1094,231.7813 C1368.875,231.7813 1369.5625,231.6563 1369.9844,231.3906 C1370.1719,231.2969 1370.1719,231.2969 1370.625,230.8125 C1370.8125,230.625 1371.0156,230.5469 1371.2344,230.5469 C1371.7031,230.5469 1372.0938,230.9375 1372.0938,231.3906 C1372.0938,231.7813 1371.7656,232.2344 1371.1875,232.6406 C1370.4375,233.1875 1369.2813,233.4844 1368.0625,233.4844 C1365.1719,233.4844 1363.0625,231.5938 1363.0625,229.0156 L1363.0625,227.8906 C1363.0625,225.1719 1365.0625,223.0938 1367.6875,223.0938 C1368.5625,223.0938 1369.1563,223.2344 1370.0938,223.6719 Z "/><text fill="#000000" font-family="sans-serif" font-size="12" lengthAdjust="spacingAndGlyphs" textLength="75" x="1388.25" y="232.1543">StartScreen</text><line style="stroke: #A80036; stroke-width: 1.5;" x1="1206" x2="1613" y1="244" y2="244"/><line style="stroke: #A80036; stroke-width: 1.5;" x1="1206" x2="1613" y1="252" y2="252"/><ellipse cx="1216" cy="263.9023" fill="#84BE84" rx="3" ry="3" style="stroke: #038048; stroke-width: 1.0;"/><text fill="#000000" font-family="sans-serif" font-size="11" lengthAdjust="spacingAndGlyphs" textLength="219" x="1225" y="266.2104">transition(context: GameContext): void</text><ellipse cx="1216" cy="276.707" fill="#84BE84" rx="3" ry="3" style="stroke: #038048; stroke-width: 1.0;"/><text fill="#000000" font-family="sans-serif" font-size="11" lengthAdjust="spacingAndGlyphs" textLength="383" x="1225" y="279.0151">keyHandler(event: KeyboardEvent, inGameKeys: InGameKeys): void</text><ellipse cx="1216" cy="289.5117" fill="#84BE84" rx="3" ry="3" style="stroke: #038048; stroke-width: 1.0;"/><text fill="#000000" font-family="sans-serif" font-size="11" lengthAdjust="spacingAndGlyphs" textLength="204" x="1225" y="291.8198">update(context: GameContext): void</text><!--class Init--><rect fill="#FEFECE" filter="url(#f1pqhvyohg513e)" height="112.0234" id="Init" style="stroke: #A80036; stroke-width: 1.5;" width="409" x="1649" y="199"/><ellipse cx="1839.75" cy="215" fill="#ADD1B2" rx="11" ry="11" style="stroke: #A80036; stroke-width: 1.0;"/><path d="M1842.0938,210.6719 L1842.2656,210.75 C1842.4844,210.4375 1842.6875,210.3438 1842.9844,210.3438 C1843.2813,210.3438 1843.5625,210.4844 1843.7188,210.75 C1843.8125,210.9063 1843.8281,211.0313 1843.8281,211.4688 L1843.8281,212.8906 C1843.8281,213.3125 1843.7969,213.5 1843.6875,213.6563 C1843.5156,213.875 1843.25,214.0156 1842.9844,214.0156 C1842.7656,214.0156 1842.5313,213.9063 1842.3906,213.7656 C1842.25,213.6406 1842.2188,213.5156 1842.1563,213.1094 C1842.0625,212.7031 1841.8906,212.4844 1841.4063,212.2031 C1840.9375,211.9531 1840.3281,211.7969 1839.75,211.7969 C1838.0156,211.7969 1836.7656,213.1094 1836.7656,214.8906 L1836.7656,215.9844 C1836.7656,217.6875 1838.0625,218.7813 1840.1094,218.7813 C1840.875,218.7813 1841.5625,218.6563 1841.9844,218.3906 C1842.1719,218.2969 1842.1719,218.2969 1842.625,217.8125 C1842.8125,217.625 1843.0156,217.5469 1843.2344,217.5469 C1843.7031,217.5469 1844.0938,217.9375 1844.0938,218.3906 C1844.0938,218.7813 1843.7656,219.2344 1843.1875,219.6406 C1842.4375,220.1875 1841.2813,220.4844 1840.0625,220.4844 C1837.1719,220.4844 1835.0625,218.5938 1835.0625,216.0156 L1835.0625,214.8906 C1835.0625,212.1719 1837.0625,210.0938 1839.6875,210.0938 C1840.5625,210.0938 1841.1563,210.2344 1842.0938,210.6719 Z "/><text fill="#000000" font-family="sans-serif" font-size="12" lengthAdjust="spacingAndGlyphs" textLength="19" x="1860.25" y="219.1543">Init</text><line style="stroke: #A80036; stroke-width: 1.5;" x1="1650" x2="2057" y1="231" y2="231"/><rect fill="none" height="6" style="stroke: #C82930; stroke-width: 1.0;" width="6" x="1657" y="239.9023"/><text fill="#000000" font-family="sans-serif" font-size="11" lengthAdjust="spacingAndGlyphs" textLength="198" x="1669" y="245.2104">runAsyncInitFunctionOnce: boolean</text><line style="stroke: #A80036; stroke-width: 1.5;" x1="1650" x2="2057" y1="251.8047" y2="251.8047"/><ellipse cx="1660" cy="263.707" fill="#84BE84" rx="3" ry="3" style="stroke: #038048; stroke-width: 1.0;"/><text fill="#000000" font-family="sans-serif" font-size="11" lengthAdjust="spacingAndGlyphs" textLength="219" x="1669" y="266.0151">transition(context: GameContext): void</text><ellipse cx="1660" cy="276.5117" fill="#84BE84" rx="3" ry="3" style="stroke: #038048; stroke-width: 1.0;"/><text fill="#000000" font-family="sans-serif" font-size="11" lengthAdjust="spacingAndGlyphs" textLength="204" x="1669" y="278.8198">update(context: GameContext): void</text><ellipse cx="1660" cy="289.3164" fill="#84BE84" rx="3" ry="3" style="stroke: #038048; stroke-width: 1.0;"/><text fill="#000000" font-family="sans-serif" font-size="11" lengthAdjust="spacingAndGlyphs" textLength="383" x="1669" y="291.6245">keyHandler(event: KeyboardEvent, inGameKeys: InGameKeys): void</text><ellipse cx="1660" cy="302.1211" fill="#84BE84" rx="3" ry="3" style="stroke: #038048; stroke-width: 1.0;"/><text fill="#000000" font-family="sans-serif" font-size="11" lengthAdjust="spacingAndGlyphs" text-decoration="underline" textLength="247" x="1669" y="304.4292">init(context: GameContext): Promise&lt;void&gt;</text><!--link GameObject to BaseCharacter--><path d="M2484.95,117.744 C2440.24,145.762 2387.5,178.805 2345.17,205.334 " fill="none" id="GameObject-BaseCharacter" style="stroke: #A80036; stroke-width: 1.0;"/><polygon fill="none" points="2481.31,111.765,2501.98,107.077,2488.74,123.628,2481.31,111.765" style="stroke: #A80036; stroke-width: 1.0;"/><!--link BaseCharacter to VectorCharacter--><path d="M2346.42,316.861 C2397.34,356.127 2462.28,406.209 2507.61,441.172 " fill="none" id="BaseCharacter-VectorCharacter" style="stroke: #A80036; stroke-width: 1.0;"/><polygon fill="none" points="2341.99,322.282,2330.42,304.525,2350.54,311.196,2341.99,322.282" style="stroke: #A80036; stroke-width: 1.0;"/><!--link Drawable to VectorCharacter--><path d="M2630.06,310.814 C2614.35,350.963 2593.35,404.645 2578.96,441.437 " fill="none" id="Drawable-VectorCharacter" style="stroke: #A80036; stroke-width: 1.0; stroke-dasharray: 7.0,7.0;"/><polygon fill="none" points="2623.59,308.123,2637.4,292.048,2636.63,313.224,2623.59,308.123" style="stroke: #A80036; stroke-width: 1.0;"/><!--link BaseCharacter to BitmapCharacter--><path d="M2263.28,324.64 C2260.94,362.568 2258.12,408.479 2256.1,441.172 " fill="none" id="BaseCharacter-BitmapCharacter" style="stroke: #A80036; stroke-width: 1.0;"/><polygon fill="none" points="2256.3,324.058,2264.51,304.525,2270.27,324.918,2256.3,324.058" style="stroke: #A80036; stroke-width: 1.0;"/><!--link Drawable to BitmapCharacter--><path d="M2571.02,302.002 C2499.65,342.796 2396.29,401.879 2327.09,441.437 " fill="none" id="Drawable-BitmapCharacter" style="stroke: #A80036; stroke-width: 1.0; stroke-dasharray: 7.0,7.0;"/><polygon fill="none" points="2567.6,295.896,2588.44,292.048,2574.55,308.05,2567.6,295.896" style="stroke: #A80036; stroke-width: 1.0;"/><!--link VectorCharacter to Bullet--><path d="M2557.43,547.678 C2554.88,578.902 2551.85,616.176 2549.47,645.289 " fill="none" id="VectorCharacter-Bullet" style="stroke: #A80036; stroke-width: 1.0;"/><polygon fill="none" points="2550.46,547.058,2559.06,527.693,2564.41,548.196,2550.46,547.058" style="stroke: #A80036; stroke-width: 1.0;"/><!--link BitmapCharacter to Zombie--><path d="M2253.5,548.113 C2253.5,576.97 2253.5,610.921 2253.5,638.806 " fill="none" id="BitmapCharacter-Zombie" style="stroke: #A80036; stroke-width: 1.0;"/><polygon fill="none" points="2246.5,547.693,2253.5,527.693,2260.5,547.693,2246.5,547.693" style="stroke: #A80036; stroke-width: 1.0;"/><!--link VectorCharacter to Hero--><path d="M2630.49,540.445 C2662.86,566.601 2701.88,598.137 2736.12,625.808 " fill="none" id="VectorCharacter-Hero" style="stroke: #A80036; stroke-width: 1.0;"/><polygon fill="none" points="2625.87,545.708,2614.71,527.693,2634.67,534.82,2625.87,545.708" style="stroke: #A80036; stroke-width: 1.0;"/><!--link GameObject to ScreenText--><path d="M2689.96,79.193 C2743.55,94.713 2804.6,121.44 2843.5,167 C2899.61,232.703 2915.44,332.922 2919.09,402.931 " fill="none" id="GameObject-ScreenText" style="stroke: #A80036; stroke-width: 1.0;"/><polygon fill="none" points="2688.1,85.939,2670.61,73.968,2691.74,72.423,2688.1,85.939" style="stroke: #A80036; stroke-width: 1.0;"/><!--link Drawable to ScreenText--><path d="M2709.39,305.325 C2742.8,333.793 2785.64,370.293 2823.83,402.835 " fill="none" id="Drawable-ScreenText" style="stroke: #A80036; stroke-width: 1.0; stroke-dasharray: 7.0,7.0;"/><polygon fill="none" points="2704.49,310.347,2693.81,292.048,2713.57,299.691,2704.49,310.347" style="stroke: #A80036; stroke-width: 1.0;"/><!--link Base to LevelOne--><path d="M1488.94,98.829 C1354.74,128.431 1194.86,163.99 1187.5,167 C1155.45,180.102 1122.42,200.255 1096.5,217.866 " fill="none" id="Base-LevelOne" style="stroke: #A80036; stroke-width: 1.0;"/><polygon fill="none" points="1487.5,91.98,1508.54,94.51,1490.51,105.652,1487.5,91.98" style="stroke: #A80036; stroke-width: 1.0;"/><!--link State to LevelOne--><path d="M1175.3,115.957 C1144.77,148.941 1107.36,189.345 1080.93,217.895 " fill="none" id="State-LevelOne" style="stroke: #A80036; stroke-width: 1.0; stroke-dasharray: 7.0,7.0;"/><polygon fill="none" points="1170.5,110.841,1189.23,100.921,1180.77,120.352,1170.5,110.841" style="stroke: #A80036; stroke-width: 1.0;"/><!--link Base to StartScreen--><path d="M1607.77,106.617 C1564.48,138.8 1508.04,180.752 1466.45,211.664 " fill="none" id="Base-StartScreen" style="stroke: #A80036; stroke-width: 1.0;"/><polygon fill="none" points="1603.73,100.899,1623.96,94.586,1612.08,112.135,1603.73,100.899" style="stroke: #A80036; stroke-width: 1.0;"/><!--link State to StartScreen--><path d="M1281.64,115.894 C1310.14,146.679 1344.64,183.941 1370.61,211.998 " fill="none" id="State-StartScreen" style="stroke: #A80036; stroke-width: 1.0; stroke-dasharray: 7.0,7.0;"/><polygon fill="none" points="1276.23,120.352,1267.77,100.921,1286.5,110.841,1276.23,120.352" style="stroke: #A80036; stroke-width: 1.0;"/><!--link Base to Init--><path d="M1719.88,109.68 C1745.2,137.022 1776.38,170.707 1802.26,198.655 " fill="none" id="Base-Init" style="stroke: #A80036; stroke-width: 1.0;"/><polygon fill="none" points="1714.57,114.245,1706.12,94.814,1724.84,104.734,1714.57,114.245" style="stroke: #A80036; stroke-width: 1.0;"/><!--link State to Init--><path d="M1420.94,105.678 C1488.04,123.35 1563.54,144.611 1631.5,167 C1660.4,176.52 1691,187.745 1719.95,198.912 " fill="none" id="State-Init" style="stroke: #A80036; stroke-width: 1.0; stroke-dasharray: 7.0,7.0;"/><polygon fill="none" points="1418.91,112.383,1401.33,100.553,1422.45,98.838,1418.91,112.383" style="stroke: #A80036; stroke-width: 1.0;"/><!--link HeroOptions to ZombieOptions--><!--link ZombieOptions to BulletOptions--><!--link HeroOptions to InGameKeys--><!--link InGameKeys to GameContext--><!--
@startuml
interface State {
    +transition(context: GameContext): void
    +keyHandler(event: KeyboardEvent, inGameKeys: InGameKeys): void
    +update(context: GameContext): void
}
abstract class Base {
    +update(context: GameContext): void
    +keyHandler(event: KeyboardEvent, inGameKeys: InGameKeys): void
}
interface Drawable {
    +updatePosition(context?: GameContext | undefined): void
    +draw(ctx: CanvasRenderingContext2D): void
}
abstract class GameObject {
    +rotation: number
    #{abstract} position: [number, number]
    +x: number
    +y: number
}
abstract class BaseCharacter extends GameObject {
    #lives: number
    #velocity: [number, number]
    +updatePosition(context?: GameContext | undefined): void
    #directTowards(targetPosition: [number, number]): void
}
abstract class VectorCharacter extends BaseCharacter implements Drawable {
    +draw(ctx: CanvasRenderingContext2D): void
    #{abstract} color: string
    #{abstract} widthHeight: [number, number]
}
abstract class BitmapCharacter extends BaseCharacter implements Drawable {
    +draw(ctx: CanvasRenderingContext2D): void
    #{abstract} image: HTMLImageElement
    #{abstract} widthHeight: [number, number]
}
class Bullet extends VectorCharacter {
    +widthHeight: [number, number]
    +color: string
    +position: [number, number]
    +updatePosition(): void
}
class Zombie extends BitmapCharacter {
    +widthHeight: [number, number]
    +image: HTMLImageElement
    +position: [number, number]
    +updatePosition(context: GameContext): void
    -randomStumble(): void
}
interface HeroOptions {
    +position: [number, number]
}
interface ZombieOptions {
    +image: HTMLImageElement
    +pointToSpawnAround: [number, number]
}
interface BulletOptions {
    +position: [number, number]
    +rotation: number
}
class Hero extends VectorCharacter {
    +lives: number
    +widthHeight: [number, number]
    +color: string
    +firePaused: boolean
    +numberOfBullets: number
    +position: [number, number]
    +updatePosition(context: GameContext): void
}
class ScreenText extends GameObject implements Drawable {
    +position: [number, number]
    +linesOfText: string[]
    -textStyle: string
    -textAlignment: CanvasTextAlign
    -fontColor: string
    +updatePosition(context: GameContext): void
    +draw(ctx: CanvasRenderingContext2D): void
    -styleText: (ctx: CanvasRenderingContext2D) => void
    -drawLinesOfText: (ctx: CanvasRenderingContext2D) => void
}
interface InGameKeys {
    +startPressed: boolean
    +firePressed: boolean
    +leftPressed: boolean
    +rightPressed: boolean
    +pausePressed: boolean
}
class GameContext {
    +entities: { [key: string]: Drawable[]; hero: Hero[]; zombies: Zombie[]; bullets: Bullet[]; screenText: ScreenText[]; }
    +score: number
    +inGameKeys: InGameKeys
    -state: State
    +ctx: CanvasRenderingContext2D
    +State: State
    +State: State
    +transition(): void
    +keyHandler(event: KeyboardEvent): void
    +updateCurrentState(): void
}
class LevelOne extends Base implements State {
    +transition(context: GameContext): void
    +update(context: GameContext): void
}
class StartScreen extends Base implements State {
    +transition(context: GameContext): void
    +keyHandler(event: KeyboardEvent, inGameKeys: InGameKeys): void
    +update(context: GameContext): void
}
class Init extends Base implements State {
    -runAsyncInitFunctionOnce: boolean
    +transition(context: GameContext): void
    +update(context: GameContext): void
    +keyHandler(event: KeyboardEvent, inGameKeys: InGameKeys): void
    +{static} init(context: GameContext): Promise<void>
}
@enduml

PlantUML version 1.2019.07beta1(Unknown compile time)
(GPL source distribution)
Java Runtime: Java(TM) SE Runtime Environment
JVM: Java HotSpot(TM) 64-Bit Server VM
Java Version: 1.7.0_25-b15
Operating System: Linux
Default Encoding: UTF-8
Language: en
Country: US
--></g></svg>