<?xml version="1.0" encoding="UTF-8" standalone="no"?><svg xmlns="http://www.w3.org/2000/svg" xmlns:xlink="http://www.w3.org/1999/xlink" contentScriptType="application/ecmascript" contentStyleType="text/css" height="813px" preserveAspectRatio="none" style="width:3375px;height:813px;" version="1.1" viewBox="0 0 3375 813" width="3375px" zoomAndPan="magnify"><defs><filter height="300%" id="f2aq14feko6h8" width="300%" x="-1" y="-1"><feGaussianBlur result="blurOut" stdDeviation="2.0"/><feColorMatrix in="blurOut" result="blurOut2" type="matrix" values="0 0 0 0 0 0 0 0 0 0 0 0 0 0 0 0 0 0 .4 0"/><feOffset dx="4.0" dy="4.0" in="blurOut2" result="blurOut3"/><feBlend in="SourceGraphic" in2="blurOut3" mode="normal"/></filter></defs><g><!--class Drawable--><rect fill="#FEFECE" filter="url(#f2aq14feko6h8)" height="73.6094" id="Drawable" style="stroke: #A80036; stroke-width: 1.5;" width="349" x="1605" y="218"/><ellipse cx="1745.75" cy="234" fill="#B4A7E5" rx="11" ry="11" style="stroke: #A80036; stroke-width: 1.0;"/><path d="M1746.7031,230.7813 L1746.7031,237.2969 L1748.4219,237.2969 C1748.875,237.2969 1749.0156,237.3281 1749.1875,237.4531 C1749.4219,237.625 1749.5313,237.875 1749.5313,238.1563 C1749.5313,238.7188 1749.1719,239 1748.4219,239 L1743.2813,239 C1742.875,239 1742.6719,238.9531 1742.5156,238.8281 C1742.2969,238.6719 1742.1563,238.4063 1742.1563,238.1563 C1742.1563,237.8594 1742.3125,237.5781 1742.5625,237.4219 C1742.7188,237.3125 1742.8438,237.2969 1743.2813,237.2969 L1745,237.2969 L1745,230.7813 L1743.2813,230.7813 C1742.8594,230.7813 1742.6719,230.75 1742.5156,230.6406 C1742.2969,230.4688 1742.1563,230.2188 1742.1563,229.9375 C1742.1563,229.6563 1742.3125,229.3594 1742.5625,229.2031 C1742.7188,229.1094 1742.8438,229.0938 1743.2813,229.0938 L1748.4219,229.0938 C1748.875,229.0938 1749.0156,229.125 1749.1875,229.2344 C1749.4219,229.4063 1749.5313,229.6719 1749.5313,229.9375 C1749.5313,230.2344 1749.3906,230.5156 1749.125,230.6719 C1749,230.75 1748.8125,230.7813 1748.4219,230.7813 Z "/><text fill="#000000" font-family="sans-serif" font-size="12" font-style="italic" lengthAdjust="spacingAndGlyphs" textLength="59" x="1766.25" y="238.1543">Drawable</text><line style="stroke: #A80036; stroke-width: 1.5;" x1="1606" x2="1953" y1="250" y2="250"/><line style="stroke: #A80036; stroke-width: 1.5;" x1="1606" x2="1953" y1="258" y2="258"/><ellipse cx="1616" cy="269.9023" fill="#84BE84" rx="3" ry="3" style="stroke: #038048; stroke-width: 1.0;"/><text fill="#000000" font-family="sans-serif" font-size="11" lengthAdjust="spacingAndGlyphs" textLength="323" x="1625" y="272.2104">updatePosition(context?: GameContext | undefined): void</text><ellipse cx="1616" cy="282.707" fill="#84BE84" rx="3" ry="3" style="stroke: #038048; stroke-width: 1.0;"/><text fill="#000000" font-family="sans-serif" font-size="11" lengthAdjust="spacingAndGlyphs" textLength="248" x="1625" y="285.0151">draw(ctx: CanvasRenderingContext2D): void</text><!--class EntityBaseClass--><rect fill="#FEFECE" filter="url(#f2aq14feko6h8)" height="99.2188" id="EntityBaseClass" style="stroke: #A80036; stroke-width: 1.5;" width="182" x="1623.5" y="8"/><ellipse cx="1662.35" cy="24" fill="#A9DCDF" rx="11" ry="11" style="stroke: #A80036; stroke-width: 1.0;"/><path d="M1663.9281,25.8125 L1659.8813,25.8125 L1659.4906,26.7969 L1659.8813,26.7969 C1660.3344,26.7969 1660.475,26.8281 1660.6469,26.9531 C1660.8656,27.125 1660.9906,27.375 1660.9906,27.6563 C1660.9906,27.9375 1660.85,28.2344 1660.5844,28.375 C1660.4594,28.4688 1660.2406,28.5 1659.8813,28.5 L1657.6156,28.5 C1656.8656,28.5 1656.4906,28.2188 1656.4906,27.6563 C1656.4906,27.3594 1656.6469,27.0781 1656.8969,26.9219 C1657.0531,26.8125 1657.2094,26.7969 1657.6313,26.7969 L1660.2719,20.2813 L1659.1938,20.2813 C1658.7563,20.2813 1658.5844,20.25 1658.4125,20.1406 C1658.1938,19.9688 1658.0531,19.7188 1658.0531,19.4375 C1658.0531,19.1563 1658.2094,18.875 1658.4594,18.7031 C1658.6156,18.6094 1658.7406,18.5938 1659.1938,18.5938 L1662.8656,18.5938 L1666.2563,26.7969 C1666.725,26.7969 1666.8813,26.8281 1667.0531,26.9688 C1667.2719,27.125 1667.4125,27.375 1667.4125,27.6563 C1667.4125,27.9375 1667.2563,28.2344 1667.0063,28.375 C1666.8656,28.4688 1666.6469,28.5 1666.2875,28.5 L1663.9281,28.5 C1663.5063,28.5 1663.3031,28.4531 1663.1625,28.3281 C1662.9438,28.1719 1662.8031,27.9219 1662.8031,27.6563 C1662.8031,27.3594 1662.9594,27.0781 1663.2094,26.9219 C1663.3656,26.8125 1663.475,26.7969 1663.9281,26.7969 L1664.3188,26.7969 Z M1663.225,24.1094 L1661.8969,20.8438 L1660.5531,24.1094 Z "/><text fill="#000000" font-family="sans-serif" font-size="12" font-style="italic" lengthAdjust="spacingAndGlyphs" textLength="97" x="1681.65" y="28.1543">EntityBaseClass</text><line style="stroke: #A80036; stroke-width: 1.5;" x1="1624.5" x2="1804.5" y1="40" y2="40"/><ellipse cx="1634.5" cy="51.9023" fill="none" rx="3" ry="3" style="stroke: #038048; stroke-width: 1.0;"/><text fill="#000000" font-family="sans-serif" font-size="11" lengthAdjust="spacingAndGlyphs" textLength="96" x="1643.5" y="54.2104">rotation: number</text><polygon fill="none" points="1634.5,59.707,1638.5,63.707,1634.5,67.707,1630.5,63.707" style="stroke: #B38D22; stroke-width: 1.0;"/><text fill="#000000" font-family="sans-serif" font-size="11" font-style="italic" lengthAdjust="spacingAndGlyphs" textLength="156" x="1643.5" y="67.0151">position: [number, number]</text><ellipse cx="1634.5" cy="77.5117" fill="none" rx="3" ry="3" style="stroke: #038048; stroke-width: 1.0;"/><text fill="#000000" font-family="sans-serif" font-size="11" lengthAdjust="spacingAndGlyphs" textLength="58" x="1643.5" y="79.8198">x: number</text><ellipse cx="1634.5" cy="90.3164" fill="none" rx="3" ry="3" style="stroke: #038048; stroke-width: 1.0;"/><text fill="#000000" font-family="sans-serif" font-size="11" lengthAdjust="spacingAndGlyphs" textLength="58" x="1643.5" y="92.6245">y: number</text><line style="stroke: #A80036; stroke-width: 1.5;" x1="1624.5" x2="1804.5" y1="99.2188" y2="99.2188"/><!--class Character--><rect fill="#FEFECE" filter="url(#f2aq14feko6h8)" height="99.2188" id="Character" style="stroke: #A80036; stroke-width: 1.5;" width="349" x="1221" y="205.5"/><ellipse cx="1360.25" cy="221.5" fill="#A9DCDF" rx="11" ry="11" style="stroke: #A80036; stroke-width: 1.0;"/><path d="M1361.8281,223.3125 L1357.7813,223.3125 L1357.3906,224.2969 L1357.7813,224.2969 C1358.2344,224.2969 1358.375,224.3281 1358.5469,224.4531 C1358.7656,224.625 1358.8906,224.875 1358.8906,225.1563 C1358.8906,225.4375 1358.75,225.7344 1358.4844,225.875 C1358.3594,225.9688 1358.1406,226 1357.7813,226 L1355.5156,226 C1354.7656,226 1354.3906,225.7188 1354.3906,225.1563 C1354.3906,224.8594 1354.5469,224.5781 1354.7969,224.4219 C1354.9531,224.3125 1355.1094,224.2969 1355.5313,224.2969 L1358.1719,217.7813 L1357.0938,217.7813 C1356.6563,217.7813 1356.4844,217.75 1356.3125,217.6406 C1356.0938,217.4688 1355.9531,217.2188 1355.9531,216.9375 C1355.9531,216.6563 1356.1094,216.375 1356.3594,216.2031 C1356.5156,216.1094 1356.6406,216.0938 1357.0938,216.0938 L1360.7656,216.0938 L1364.1563,224.2969 C1364.625,224.2969 1364.7813,224.3281 1364.9531,224.4688 C1365.1719,224.625 1365.3125,224.875 1365.3125,225.1563 C1365.3125,225.4375 1365.1563,225.7344 1364.9063,225.875 C1364.7656,225.9688 1364.5469,226 1364.1875,226 L1361.8281,226 C1361.4063,226 1361.2031,225.9531 1361.0625,225.8281 C1360.8438,225.6719 1360.7031,225.4219 1360.7031,225.1563 C1360.7031,224.8594 1360.8594,224.5781 1361.1094,224.4219 C1361.2656,224.3125 1361.375,224.2969 1361.8281,224.2969 L1362.2188,224.2969 Z M1361.125,221.6094 L1359.7969,218.3438 L1358.4531,221.6094 Z "/><text fill="#000000" font-family="sans-serif" font-size="12" font-style="italic" lengthAdjust="spacingAndGlyphs" textLength="62" x="1380.75" y="225.6543">Character</text><line style="stroke: #A80036; stroke-width: 1.5;" x1="1222" x2="1569" y1="237.5" y2="237.5"/><polygon fill="none" points="1232,244.4023,1236,248.4023,1232,252.4023,1228,248.4023" style="stroke: #B38D22; stroke-width: 1.0;"/><text fill="#000000" font-family="sans-serif" font-size="11" lengthAdjust="spacingAndGlyphs" textLength="78" x="1241" y="251.7104">lives: number</text><polygon fill="none" points="1232,257.207,1236,261.207,1232,265.207,1228,261.207" style="stroke: #B38D22; stroke-width: 1.0;"/><text fill="#000000" font-family="sans-serif" font-size="11" lengthAdjust="spacingAndGlyphs" textLength="154" x="1241" y="264.5151">velocity: [number, number]</text><line style="stroke: #A80036; stroke-width: 1.5;" x1="1222" x2="1569" y1="271.1094" y2="271.1094"/><ellipse cx="1232" cy="283.0117" fill="#84BE84" rx="3" ry="3" style="stroke: #038048; stroke-width: 1.0;"/><text fill="#000000" font-family="sans-serif" font-size="11" lengthAdjust="spacingAndGlyphs" textLength="323" x="1241" y="285.3198">updatePosition(context?: GameContext | undefined): void</text><polygon fill="#FFFF44" points="1232,290.8164,1236,294.8164,1232,298.8164,1228,294.8164" style="stroke: #B38D22; stroke-width: 1.0;"/><text fill="#000000" font-family="sans-serif" font-size="11" lengthAdjust="spacingAndGlyphs" textLength="311" x="1241" y="298.1245">directTowards(targetPosition: [number, number]): void</text><!--class VectorCharacter--><rect fill="#FEFECE" filter="url(#f2aq14feko6h8)" height="86.4141" id="VectorCharacter" style="stroke: #A80036; stroke-width: 1.5;" width="274" x="1553.5" y="441.5"/><ellipse cx="1634.75" cy="457.5" fill="#A9DCDF" rx="11" ry="11" style="stroke: #A80036; stroke-width: 1.0;"/><path d="M1636.3281,459.3125 L1632.2813,459.3125 L1631.8906,460.2969 L1632.2813,460.2969 C1632.7344,460.2969 1632.875,460.3281 1633.0469,460.4531 C1633.2656,460.625 1633.3906,460.875 1633.3906,461.1563 C1633.3906,461.4375 1633.25,461.7344 1632.9844,461.875 C1632.8594,461.9688 1632.6406,462 1632.2813,462 L1630.0156,462 C1629.2656,462 1628.8906,461.7188 1628.8906,461.1563 C1628.8906,460.8594 1629.0469,460.5781 1629.2969,460.4219 C1629.4531,460.3125 1629.6094,460.2969 1630.0313,460.2969 L1632.6719,453.7813 L1631.5938,453.7813 C1631.1563,453.7813 1630.9844,453.75 1630.8125,453.6406 C1630.5938,453.4688 1630.4531,453.2188 1630.4531,452.9375 C1630.4531,452.6563 1630.6094,452.375 1630.8594,452.2031 C1631.0156,452.1094 1631.1406,452.0938 1631.5938,452.0938 L1635.2656,452.0938 L1638.6563,460.2969 C1639.125,460.2969 1639.2813,460.3281 1639.4531,460.4688 C1639.6719,460.625 1639.8125,460.875 1639.8125,461.1563 C1639.8125,461.4375 1639.6563,461.7344 1639.4063,461.875 C1639.2656,461.9688 1639.0469,462 1638.6875,462 L1636.3281,462 C1635.9063,462 1635.7031,461.9531 1635.5625,461.8281 C1635.3438,461.6719 1635.2031,461.4219 1635.2031,461.1563 C1635.2031,460.8594 1635.3594,460.5781 1635.6094,460.4219 C1635.7656,460.3125 1635.875,460.2969 1636.3281,460.2969 L1636.7188,460.2969 Z M1635.625,457.6094 L1634.2969,454.3438 L1632.9531,457.6094 Z "/><text fill="#000000" font-family="sans-serif" font-size="12" font-style="italic" lengthAdjust="spacingAndGlyphs" textLength="103" x="1655.25" y="461.6543">VectorCharacter</text><line style="stroke: #A80036; stroke-width: 1.5;" x1="1554.5" x2="1826.5" y1="473.5" y2="473.5"/><polygon fill="none" points="1564.5,480.4023,1568.5,484.4023,1564.5,488.4023,1560.5,484.4023" style="stroke: #B38D22; stroke-width: 1.0;"/><text fill="#000000" font-family="sans-serif" font-size="11" font-style="italic" lengthAdjust="spacingAndGlyphs" textLength="68" x="1573.5" y="487.7104">color: string</text><ellipse cx="1564.5" cy="498.207" fill="none" rx="3" ry="3" style="stroke: #038048; stroke-width: 1.0;"/><text fill="#000000" font-family="sans-serif" font-size="11" font-style="italic" lengthAdjust="spacingAndGlyphs" textLength="178" x="1573.5" y="500.5151">widthHeight: [number, number]</text><line style="stroke: #A80036; stroke-width: 1.5;" x1="1554.5" x2="1826.5" y1="507.1094" y2="507.1094"/><ellipse cx="1564.5" cy="519.0117" fill="#84BE84" rx="3" ry="3" style="stroke: #038048; stroke-width: 1.0;"/><text fill="#000000" font-family="sans-serif" font-size="11" lengthAdjust="spacingAndGlyphs" textLength="248" x="1573.5" y="521.3198">draw(ctx: CanvasRenderingContext2D): void</text><!--class Bullet--><rect fill="#FEFECE" filter="url(#f2aq14feko6h8)" height="176.0469" id="Bullet" style="stroke: #A80036; stroke-width: 1.5;" width="215" x="1568" y="626"/><ellipse cx="1653.75" cy="642" fill="#ADD1B2" rx="11" ry="11" style="stroke: #A80036; stroke-width: 1.0;"/><path d="M1656.0938,637.6719 L1656.2656,637.75 C1656.4844,637.4375 1656.6875,637.3438 1656.9844,637.3438 C1657.2813,637.3438 1657.5625,637.4844 1657.7188,637.75 C1657.8125,637.9063 1657.8281,638.0313 1657.8281,638.4688 L1657.8281,639.8906 C1657.8281,640.3125 1657.7969,640.5 1657.6875,640.6563 C1657.5156,640.875 1657.25,641.0156 1656.9844,641.0156 C1656.7656,641.0156 1656.5313,640.9063 1656.3906,640.7656 C1656.25,640.6406 1656.2188,640.5156 1656.1563,640.1094 C1656.0625,639.7031 1655.8906,639.4844 1655.4063,639.2031 C1654.9375,638.9531 1654.3281,638.7969 1653.75,638.7969 C1652.0156,638.7969 1650.7656,640.1094 1650.7656,641.8906 L1650.7656,642.9844 C1650.7656,644.6875 1652.0625,645.7813 1654.1094,645.7813 C1654.875,645.7813 1655.5625,645.6563 1655.9844,645.3906 C1656.1719,645.2969 1656.1719,645.2969 1656.625,644.8125 C1656.8125,644.625 1657.0156,644.5469 1657.2344,644.5469 C1657.7031,644.5469 1658.0938,644.9375 1658.0938,645.3906 C1658.0938,645.7813 1657.7656,646.2344 1657.1875,646.6406 C1656.4375,647.1875 1655.2813,647.4844 1654.0625,647.4844 C1651.1719,647.4844 1649.0625,645.5938 1649.0625,643.0156 L1649.0625,641.8906 C1649.0625,639.1719 1651.0625,637.0938 1653.6875,637.0938 C1654.5625,637.0938 1655.1563,637.2344 1656.0938,637.6719 Z "/><text fill="#000000" font-family="sans-serif" font-size="12" lengthAdjust="spacingAndGlyphs" textLength="35" x="1674.25" y="646.1543">Bullet</text><line style="stroke: #A80036; stroke-width: 1.5;" x1="1569" x2="1782" y1="658" y2="658"/><ellipse cx="1579" cy="669.9023" fill="none" rx="3" ry="3" style="stroke: #038048; stroke-width: 1.0;"/><text fill="#000000" font-family="sans-serif" font-size="11" lengthAdjust="spacingAndGlyphs" textLength="178" x="1588" y="672.2104">widthHeight: [number, number]</text><ellipse cx="1579" cy="682.707" fill="none" rx="3" ry="3" style="stroke: #038048; stroke-width: 1.0;"/><text fill="#000000" font-family="sans-serif" font-size="11" lengthAdjust="spacingAndGlyphs" textLength="69" x="1588" y="685.0151">color: string</text><ellipse cx="1579" cy="695.5117" fill="none" rx="3" ry="3" style="stroke: #038048; stroke-width: 1.0;"/><text fill="#000000" font-family="sans-serif" font-size="11" lengthAdjust="spacingAndGlyphs" textLength="154" x="1588" y="697.8198">velocity: [number, number]</text><ellipse cx="1579" cy="708.3164" fill="none" rx="3" ry="3" style="stroke: #038048; stroke-width: 1.0;"/><text fill="#000000" font-family="sans-serif" font-size="11" lengthAdjust="spacingAndGlyphs" textLength="189" x="1588" y="710.6245">tweenVelocity: [number, number]</text><ellipse cx="1579" cy="721.1211" fill="none" rx="3" ry="3" style="stroke: #038048; stroke-width: 1.0;"/><text fill="#000000" font-family="sans-serif" font-size="11" lengthAdjust="spacingAndGlyphs" textLength="120" x="1588" y="723.4292">totalFrames: number</text><ellipse cx="1579" cy="733.9258" fill="none" rx="3" ry="3" style="stroke: #038048; stroke-width: 1.0;"/><text fill="#000000" font-family="sans-serif" font-size="11" lengthAdjust="spacingAndGlyphs" textLength="131" x="1588" y="736.2339">frameCounter: number</text><ellipse cx="1579" cy="746.7305" fill="none" rx="3" ry="3" style="stroke: #038048; stroke-width: 1.0;"/><text fill="#000000" font-family="sans-serif" font-size="11" lengthAdjust="spacingAndGlyphs" textLength="157" x="1588" y="749.0386">position: [number, number]</text><ellipse cx="1579" cy="759.5352" fill="none" rx="3" ry="3" style="stroke: #038048; stroke-width: 1.0;"/><text fill="#000000" font-family="sans-serif" font-size="11" lengthAdjust="spacingAndGlyphs" textLength="96" x="1588" y="761.8433">rotation: number</text><line style="stroke: #A80036; stroke-width: 1.5;" x1="1569" x2="1782" y1="768.4375" y2="768.4375"/><ellipse cx="1579" cy="780.3398" fill="#84BE84" rx="3" ry="3" style="stroke: #038048; stroke-width: 1.0;"/><text fill="#000000" font-family="sans-serif" font-size="11" lengthAdjust="spacingAndGlyphs" textLength="123" x="1588" y="782.6479">updatePosition(): void</text><rect fill="#F24D5C" height="6" style="stroke: #C82930; stroke-width: 1.0;" width="6" x="1576" y="790.1445"/><text fill="#000000" font-family="sans-serif" font-size="11" lengthAdjust="spacingAndGlyphs" textLength="73" x="1588" y="795.4526">tween(): void</text><!--class BitmapCharacter--><rect fill="#FEFECE" filter="url(#f2aq14feko6h8)" height="86.4141" id="BitmapCharacter" style="stroke: #A80036; stroke-width: 1.5;" width="274" x="1244.5" y="441.5"/><ellipse cx="1324.75" cy="457.5" fill="#A9DCDF" rx="11" ry="11" style="stroke: #A80036; stroke-width: 1.0;"/><path d="M1326.3281,459.3125 L1322.2813,459.3125 L1321.8906,460.2969 L1322.2813,460.2969 C1322.7344,460.2969 1322.875,460.3281 1323.0469,460.4531 C1323.2656,460.625 1323.3906,460.875 1323.3906,461.1563 C1323.3906,461.4375 1323.25,461.7344 1322.9844,461.875 C1322.8594,461.9688 1322.6406,462 1322.2813,462 L1320.0156,462 C1319.2656,462 1318.8906,461.7188 1318.8906,461.1563 C1318.8906,460.8594 1319.0469,460.5781 1319.2969,460.4219 C1319.4531,460.3125 1319.6094,460.2969 1320.0313,460.2969 L1322.6719,453.7813 L1321.5938,453.7813 C1321.1563,453.7813 1320.9844,453.75 1320.8125,453.6406 C1320.5938,453.4688 1320.4531,453.2188 1320.4531,452.9375 C1320.4531,452.6563 1320.6094,452.375 1320.8594,452.2031 C1321.0156,452.1094 1321.1406,452.0938 1321.5938,452.0938 L1325.2656,452.0938 L1328.6563,460.2969 C1329.125,460.2969 1329.2813,460.3281 1329.4531,460.4688 C1329.6719,460.625 1329.8125,460.875 1329.8125,461.1563 C1329.8125,461.4375 1329.6563,461.7344 1329.4063,461.875 C1329.2656,461.9688 1329.0469,462 1328.6875,462 L1326.3281,462 C1325.9063,462 1325.7031,461.9531 1325.5625,461.8281 C1325.3438,461.6719 1325.2031,461.4219 1325.2031,461.1563 C1325.2031,460.8594 1325.3594,460.5781 1325.6094,460.4219 C1325.7656,460.3125 1325.875,460.2969 1326.3281,460.2969 L1326.7188,460.2969 Z M1325.625,457.6094 L1324.2969,454.3438 L1322.9531,457.6094 Z "/><text fill="#000000" font-family="sans-serif" font-size="12" font-style="italic" lengthAdjust="spacingAndGlyphs" textLength="105" x="1345.25" y="461.6543">BitmapCharacter</text><line style="stroke: #A80036; stroke-width: 1.5;" x1="1245.5" x2="1517.5" y1="473.5" y2="473.5"/><polygon fill="none" points="1255.5,480.4023,1259.5,484.4023,1255.5,488.4023,1251.5,484.4023" style="stroke: #B38D22; stroke-width: 1.0;"/><text fill="#000000" font-family="sans-serif" font-size="11" font-style="italic" lengthAdjust="spacingAndGlyphs" textLength="154" x="1264.5" y="487.7104">image: HTMLImageElement</text><polygon fill="none" points="1255.5,493.207,1259.5,497.207,1255.5,501.207,1251.5,497.207" style="stroke: #B38D22; stroke-width: 1.0;"/><text fill="#000000" font-family="sans-serif" font-size="11" font-style="italic" lengthAdjust="spacingAndGlyphs" textLength="178" x="1264.5" y="500.5151">widthHeight: [number, number]</text><line style="stroke: #A80036; stroke-width: 1.5;" x1="1245.5" x2="1517.5" y1="507.1094" y2="507.1094"/><ellipse cx="1255.5" cy="519.0117" fill="#84BE84" rx="3" ry="3" style="stroke: #038048; stroke-width: 1.0;"/><text fill="#000000" font-family="sans-serif" font-size="11" lengthAdjust="spacingAndGlyphs" textLength="248" x="1264.5" y="521.3198">draw(ctx: CanvasRenderingContext2D): void</text><!--class Zombie--><rect fill="#FEFECE" filter="url(#f2aq14feko6h8)" height="124.8281" id="Zombie" style="stroke: #A80036; stroke-width: 1.5;" width="275" x="1244" y="651.5"/><ellipse cx="1353.75" cy="667.5" fill="#ADD1B2" rx="11" ry="11" style="stroke: #A80036; stroke-width: 1.0;"/><path d="M1356.0938,663.1719 L1356.2656,663.25 C1356.4844,662.9375 1356.6875,662.8438 1356.9844,662.8438 C1357.2813,662.8438 1357.5625,662.9844 1357.7188,663.25 C1357.8125,663.4063 1357.8281,663.5313 1357.8281,663.9688 L1357.8281,665.3906 C1357.8281,665.8125 1357.7969,666 1357.6875,666.1563 C1357.5156,666.375 1357.25,666.5156 1356.9844,666.5156 C1356.7656,666.5156 1356.5313,666.4063 1356.3906,666.2656 C1356.25,666.1406 1356.2188,666.0156 1356.1563,665.6094 C1356.0625,665.2031 1355.8906,664.9844 1355.4063,664.7031 C1354.9375,664.4531 1354.3281,664.2969 1353.75,664.2969 C1352.0156,664.2969 1350.7656,665.6094 1350.7656,667.3906 L1350.7656,668.4844 C1350.7656,670.1875 1352.0625,671.2813 1354.1094,671.2813 C1354.875,671.2813 1355.5625,671.1563 1355.9844,670.8906 C1356.1719,670.7969 1356.1719,670.7969 1356.625,670.3125 C1356.8125,670.125 1357.0156,670.0469 1357.2344,670.0469 C1357.7031,670.0469 1358.0938,670.4375 1358.0938,670.8906 C1358.0938,671.2813 1357.7656,671.7344 1357.1875,672.1406 C1356.4375,672.6875 1355.2813,672.9844 1354.0625,672.9844 C1351.1719,672.9844 1349.0625,671.0938 1349.0625,668.5156 L1349.0625,667.3906 C1349.0625,664.6719 1351.0625,662.5938 1353.6875,662.5938 C1354.5625,662.5938 1355.1563,662.7344 1356.0938,663.1719 Z "/><text fill="#000000" font-family="sans-serif" font-size="12" lengthAdjust="spacingAndGlyphs" textLength="47" x="1374.25" y="671.6543">Zombie</text><line style="stroke: #A80036; stroke-width: 1.5;" x1="1245" x2="1518" y1="683.5" y2="683.5"/><ellipse cx="1255" cy="695.4023" fill="none" rx="3" ry="3" style="stroke: #038048; stroke-width: 1.0;"/><text fill="#000000" font-family="sans-serif" font-size="11" lengthAdjust="spacingAndGlyphs" textLength="178" x="1264" y="697.7104">widthHeight: [number, number]</text><ellipse cx="1255" cy="708.207" fill="none" rx="3" ry="3" style="stroke: #038048; stroke-width: 1.0;"/><text fill="#000000" font-family="sans-serif" font-size="11" lengthAdjust="spacingAndGlyphs" textLength="154" x="1264" y="710.5151">image: HTMLImageElement</text><ellipse cx="1255" cy="721.0117" fill="none" rx="3" ry="3" style="stroke: #038048; stroke-width: 1.0;"/><text fill="#000000" font-family="sans-serif" font-size="11" lengthAdjust="spacingAndGlyphs" textLength="157" x="1264" y="723.3198">position: [number, number]</text><ellipse cx="1255" cy="733.8164" fill="none" rx="3" ry="3" style="stroke: #038048; stroke-width: 1.0;"/><text fill="#000000" font-family="sans-serif" font-size="11" lengthAdjust="spacingAndGlyphs" text-decoration="underline" textLength="210" x="1264" y="736.1245">imagesToLoad: HTMLImageElement[]</text><line style="stroke: #A80036; stroke-width: 1.5;" x1="1245" x2="1518" y1="742.7188" y2="742.7188"/><ellipse cx="1255" cy="754.6211" fill="#84BE84" rx="3" ry="3" style="stroke: #038048; stroke-width: 1.0;"/><text fill="#000000" font-family="sans-serif" font-size="11" lengthAdjust="spacingAndGlyphs" textLength="249" x="1264" y="756.9292">updatePosition(context: GameContext): void</text><rect fill="#F24D5C" height="6" style="stroke: #C82930; stroke-width: 1.0;" width="6" x="1252" y="764.4258"/><text fill="#000000" font-family="sans-serif" font-size="11" lengthAdjust="spacingAndGlyphs" textLength="130" x="1264" y="769.7339">randomStumble(): void</text><!--class HeroOptions--><rect fill="#FEFECE" filter="url(#f2aq14feko6h8)" height="60.8047" id="HeroOptions" style="stroke: #A80036; stroke-width: 1.5;" width="183" x="6" y="27"/><ellipse cx="55.25" cy="43" fill="#B4A7E5" rx="11" ry="11" style="stroke: #A80036; stroke-width: 1.0;"/><path d="M56.2031,39.7813 L56.2031,46.2969 L57.9219,46.2969 C58.375,46.2969 58.5156,46.3281 58.6875,46.4531 C58.9219,46.625 59.0313,46.875 59.0313,47.1563 C59.0313,47.7188 58.6719,48 57.9219,48 L52.7813,48 C52.375,48 52.1719,47.9531 52.0156,47.8281 C51.7969,47.6719 51.6563,47.4063 51.6563,47.1563 C51.6563,46.8594 51.8125,46.5781 52.0625,46.4219 C52.2188,46.3125 52.3438,46.2969 52.7813,46.2969 L54.5,46.2969 L54.5,39.7813 L52.7813,39.7813 C52.3594,39.7813 52.1719,39.75 52.0156,39.6406 C51.7969,39.4688 51.6563,39.2188 51.6563,38.9375 C51.6563,38.6563 51.8125,38.3594 52.0625,38.2031 C52.2188,38.1094 52.3438,38.0938 52.7813,38.0938 L57.9219,38.0938 C58.375,38.0938 58.5156,38.125 58.6875,38.2344 C58.9219,38.4063 59.0313,38.6719 59.0313,38.9375 C59.0313,39.2344 58.8906,39.5156 58.625,39.6719 C58.5,39.75 58.3125,39.7813 57.9219,39.7813 Z "/><text fill="#000000" font-family="sans-serif" font-size="12" font-style="italic" lengthAdjust="spacingAndGlyphs" textLength="76" x="75.75" y="47.1543">HeroOptions</text><line style="stroke: #A80036; stroke-width: 1.5;" x1="7" x2="188" y1="59" y2="59"/><ellipse cx="17" cy="70.9023" fill="none" rx="3" ry="3" style="stroke: #038048; stroke-width: 1.0;"/><text fill="#000000" font-family="sans-serif" font-size="11" lengthAdjust="spacingAndGlyphs" textLength="157" x="26" y="73.2104">position: [number, number]</text><line style="stroke: #A80036; stroke-width: 1.5;" x1="7" x2="188" y1="79.8047" y2="79.8047"/><!--class ZombieOptions--><rect fill="#FEFECE" filter="url(#f2aq14feko6h8)" height="73.6094" id="ZombieOptions" style="stroke: #A80036; stroke-width: 1.5;" width="258" x="224.5" y="20.5"/><ellipse cx="303.25" cy="36.5" fill="#B4A7E5" rx="11" ry="11" style="stroke: #A80036; stroke-width: 1.0;"/><path d="M304.2031,33.2813 L304.2031,39.7969 L305.9219,39.7969 C306.375,39.7969 306.5156,39.8281 306.6875,39.9531 C306.9219,40.125 307.0313,40.375 307.0313,40.6563 C307.0313,41.2188 306.6719,41.5 305.9219,41.5 L300.7813,41.5 C300.375,41.5 300.1719,41.4531 300.0156,41.3281 C299.7969,41.1719 299.6563,40.9063 299.6563,40.6563 C299.6563,40.3594 299.8125,40.0781 300.0625,39.9219 C300.2188,39.8125 300.3438,39.7969 300.7813,39.7969 L302.5,39.7969 L302.5,33.2813 L300.7813,33.2813 C300.3594,33.2813 300.1719,33.25 300.0156,33.1406 C299.7969,32.9688 299.6563,32.7188 299.6563,32.4375 C299.6563,32.1563 299.8125,31.8594 300.0625,31.7031 C300.2188,31.6094 300.3438,31.5938 300.7813,31.5938 L305.9219,31.5938 C306.375,31.5938 306.5156,31.625 306.6875,31.7344 C306.9219,31.9063 307.0313,32.1719 307.0313,32.4375 C307.0313,32.7344 306.8906,33.0156 306.625,33.1719 C306.5,33.25 306.3125,33.2813 305.9219,33.2813 Z "/><text fill="#000000" font-family="sans-serif" font-size="12" font-style="italic" lengthAdjust="spacingAndGlyphs" textLength="92" x="323.75" y="40.6543">ZombieOptions</text><line style="stroke: #A80036; stroke-width: 1.5;" x1="225.5" x2="481.5" y1="52.5" y2="52.5"/><ellipse cx="235.5" cy="64.4023" fill="none" rx="3" ry="3" style="stroke: #038048; stroke-width: 1.0;"/><text fill="#000000" font-family="sans-serif" font-size="11" lengthAdjust="spacingAndGlyphs" textLength="154" x="244.5" y="66.7104">image: HTMLImageElement</text><ellipse cx="235.5" cy="77.207" fill="none" rx="3" ry="3" style="stroke: #038048; stroke-width: 1.0;"/><text fill="#000000" font-family="sans-serif" font-size="11" lengthAdjust="spacingAndGlyphs" textLength="232" x="244.5" y="79.5151">pointToSpawnAround: [number, number]</text><line style="stroke: #A80036; stroke-width: 1.5;" x1="225.5" x2="481.5" y1="86.1094" y2="86.1094"/><!--class BulletOptions--><rect fill="#FEFECE" filter="url(#f2aq14feko6h8)" height="73.6094" id="BulletOptions" style="stroke: #A80036; stroke-width: 1.5;" width="183" x="518" y="20.5"/><ellipse cx="564.75" cy="36.5" fill="#B4A7E5" rx="11" ry="11" style="stroke: #A80036; stroke-width: 1.0;"/><path d="M565.7031,33.2813 L565.7031,39.7969 L567.4219,39.7969 C567.875,39.7969 568.0156,39.8281 568.1875,39.9531 C568.4219,40.125 568.5313,40.375 568.5313,40.6563 C568.5313,41.2188 568.1719,41.5 567.4219,41.5 L562.2813,41.5 C561.875,41.5 561.6719,41.4531 561.5156,41.3281 C561.2969,41.1719 561.1563,40.9063 561.1563,40.6563 C561.1563,40.3594 561.3125,40.0781 561.5625,39.9219 C561.7188,39.8125 561.8438,39.7969 562.2813,39.7969 L564,39.7969 L564,33.2813 L562.2813,33.2813 C561.8594,33.2813 561.6719,33.25 561.5156,33.1406 C561.2969,32.9688 561.1563,32.7188 561.1563,32.4375 C561.1563,32.1563 561.3125,31.8594 561.5625,31.7031 C561.7188,31.6094 561.8438,31.5938 562.2813,31.5938 L567.4219,31.5938 C567.875,31.5938 568.0156,31.625 568.1875,31.7344 C568.4219,31.9063 568.5313,32.1719 568.5313,32.4375 C568.5313,32.7344 568.3906,33.0156 568.125,33.1719 C568,33.25 567.8125,33.2813 567.4219,33.2813 Z "/><text fill="#000000" font-family="sans-serif" font-size="12" font-style="italic" lengthAdjust="spacingAndGlyphs" textLength="81" x="585.25" y="40.6543">BulletOptions</text><line style="stroke: #A80036; stroke-width: 1.5;" x1="519" x2="700" y1="52.5" y2="52.5"/><ellipse cx="529" cy="64.4023" fill="none" rx="3" ry="3" style="stroke: #038048; stroke-width: 1.0;"/><text fill="#000000" font-family="sans-serif" font-size="11" lengthAdjust="spacingAndGlyphs" textLength="157" x="538" y="66.7104">position: [number, number]</text><ellipse cx="529" cy="77.207" fill="none" rx="3" ry="3" style="stroke: #038048; stroke-width: 1.0;"/><text fill="#000000" font-family="sans-serif" font-size="11" lengthAdjust="spacingAndGlyphs" textLength="96" x="538" y="79.5151">rotation: number</text><line style="stroke: #A80036; stroke-width: 1.5;" x1="519" x2="700" y1="86.1094" y2="86.1094"/><!--class Hero--><rect fill="#FEFECE" filter="url(#f2aq14feko6h8)" height="137.6328" id="Hero" style="stroke: #A80036; stroke-width: 1.5;" width="275" x="1818" y="645"/><ellipse cx="1936.25" cy="661" fill="#ADD1B2" rx="11" ry="11" style="stroke: #A80036; stroke-width: 1.0;"/><path d="M1938.5938,656.6719 L1938.7656,656.75 C1938.9844,656.4375 1939.1875,656.3438 1939.4844,656.3438 C1939.7813,656.3438 1940.0625,656.4844 1940.2188,656.75 C1940.3125,656.9063 1940.3281,657.0313 1940.3281,657.4688 L1940.3281,658.8906 C1940.3281,659.3125 1940.2969,659.5 1940.1875,659.6563 C1940.0156,659.875 1939.75,660.0156 1939.4844,660.0156 C1939.2656,660.0156 1939.0313,659.9063 1938.8906,659.7656 C1938.75,659.6406 1938.7188,659.5156 1938.6563,659.1094 C1938.5625,658.7031 1938.3906,658.4844 1937.9063,658.2031 C1937.4375,657.9531 1936.8281,657.7969 1936.25,657.7969 C1934.5156,657.7969 1933.2656,659.1094 1933.2656,660.8906 L1933.2656,661.9844 C1933.2656,663.6875 1934.5625,664.7813 1936.6094,664.7813 C1937.375,664.7813 1938.0625,664.6563 1938.4844,664.3906 C1938.6719,664.2969 1938.6719,664.2969 1939.125,663.8125 C1939.3125,663.625 1939.5156,663.5469 1939.7344,663.5469 C1940.2031,663.5469 1940.5938,663.9375 1940.5938,664.3906 C1940.5938,664.7813 1940.2656,665.2344 1939.6875,665.6406 C1938.9375,666.1875 1937.7813,666.4844 1936.5625,666.4844 C1933.6719,666.4844 1931.5625,664.5938 1931.5625,662.0156 L1931.5625,660.8906 C1931.5625,658.1719 1933.5625,656.0938 1936.1875,656.0938 C1937.0625,656.0938 1937.6563,656.2344 1938.5938,656.6719 Z "/><text fill="#000000" font-family="sans-serif" font-size="12" lengthAdjust="spacingAndGlyphs" textLength="30" x="1956.75" y="665.1543">Hero</text><line style="stroke: #A80036; stroke-width: 1.5;" x1="1819" x2="2092" y1="677" y2="677"/><ellipse cx="1829" cy="688.9023" fill="none" rx="3" ry="3" style="stroke: #038048; stroke-width: 1.0;"/><text fill="#000000" font-family="sans-serif" font-size="11" lengthAdjust="spacingAndGlyphs" textLength="78" x="1838" y="691.2104">lives: number</text><ellipse cx="1829" cy="701.707" fill="none" rx="3" ry="3" style="stroke: #038048; stroke-width: 1.0;"/><text fill="#000000" font-family="sans-serif" font-size="11" lengthAdjust="spacingAndGlyphs" textLength="178" x="1838" y="704.0151">widthHeight: [number, number]</text><ellipse cx="1829" cy="714.5117" fill="none" rx="3" ry="3" style="stroke: #038048; stroke-width: 1.0;"/><text fill="#000000" font-family="sans-serif" font-size="11" lengthAdjust="spacingAndGlyphs" textLength="69" x="1838" y="716.8198">color: string</text><ellipse cx="1829" cy="727.3164" fill="none" rx="3" ry="3" style="stroke: #038048; stroke-width: 1.0;"/><text fill="#000000" font-family="sans-serif" font-size="11" lengthAdjust="spacingAndGlyphs" textLength="114" x="1838" y="729.6245">firePaused: boolean</text><ellipse cx="1829" cy="740.1211" fill="none" rx="3" ry="3" style="stroke: #038048; stroke-width: 1.0;"/><text fill="#000000" font-family="sans-serif" font-size="11" lengthAdjust="spacingAndGlyphs" textLength="148" x="1838" y="742.4292">numberOfBullets: number</text><ellipse cx="1829" cy="752.9258" fill="none" rx="3" ry="3" style="stroke: #038048; stroke-width: 1.0;"/><text fill="#000000" font-family="sans-serif" font-size="11" lengthAdjust="spacingAndGlyphs" textLength="157" x="1838" y="755.2339">position: [number, number]</text><line style="stroke: #A80036; stroke-width: 1.5;" x1="1819" x2="2092" y1="761.8281" y2="761.8281"/><ellipse cx="1829" cy="773.7305" fill="#84BE84" rx="3" ry="3" style="stroke: #038048; stroke-width: 1.0;"/><text fill="#000000" font-family="sans-serif" font-size="11" lengthAdjust="spacingAndGlyphs" textLength="249" x="1838" y="776.0386">updatePosition(context: GameContext): void</text><!--class ScreenText--><rect fill="#FEFECE" filter="url(#f2aq14feko6h8)" height="163.2422" id="ScreenText" style="stroke: #A80036; stroke-width: 1.5;" width="367" x="1863" y="403"/><ellipse cx="2007.25" cy="419" fill="#ADD1B2" rx="11" ry="11" style="stroke: #A80036; stroke-width: 1.0;"/><path d="M2009.5938,414.6719 L2009.7656,414.75 C2009.9844,414.4375 2010.1875,414.3438 2010.4844,414.3438 C2010.7813,414.3438 2011.0625,414.4844 2011.2188,414.75 C2011.3125,414.9063 2011.3281,415.0313 2011.3281,415.4688 L2011.3281,416.8906 C2011.3281,417.3125 2011.2969,417.5 2011.1875,417.6563 C2011.0156,417.875 2010.75,418.0156 2010.4844,418.0156 C2010.2656,418.0156 2010.0313,417.9063 2009.8906,417.7656 C2009.75,417.6406 2009.7188,417.5156 2009.6563,417.1094 C2009.5625,416.7031 2009.3906,416.4844 2008.9063,416.2031 C2008.4375,415.9531 2007.8281,415.7969 2007.25,415.7969 C2005.5156,415.7969 2004.2656,417.1094 2004.2656,418.8906 L2004.2656,419.9844 C2004.2656,421.6875 2005.5625,422.7813 2007.6094,422.7813 C2008.375,422.7813 2009.0625,422.6563 2009.4844,422.3906 C2009.6719,422.2969 2009.6719,422.2969 2010.125,421.8125 C2010.3125,421.625 2010.5156,421.5469 2010.7344,421.5469 C2011.2031,421.5469 2011.5938,421.9375 2011.5938,422.3906 C2011.5938,422.7813 2011.2656,423.2344 2010.6875,423.6406 C2009.9375,424.1875 2008.7813,424.4844 2007.5625,424.4844 C2004.6719,424.4844 2002.5625,422.5938 2002.5625,420.0156 L2002.5625,418.8906 C2002.5625,416.1719 2004.5625,414.0938 2007.1875,414.0938 C2008.0625,414.0938 2008.6563,414.2344 2009.5938,414.6719 Z "/><text fill="#000000" font-family="sans-serif" font-size="12" lengthAdjust="spacingAndGlyphs" textLength="70" x="2027.75" y="423.1543">ScreenText</text><line style="stroke: #A80036; stroke-width: 1.5;" x1="1864" x2="2229" y1="435" y2="435"/><ellipse cx="1874" cy="446.9023" fill="none" rx="3" ry="3" style="stroke: #038048; stroke-width: 1.0;"/><text fill="#000000" font-family="sans-serif" font-size="11" lengthAdjust="spacingAndGlyphs" textLength="157" x="1883" y="449.2104">position: [number, number]</text><ellipse cx="1874" cy="459.707" fill="none" rx="3" ry="3" style="stroke: #038048; stroke-width: 1.0;"/><text fill="#000000" font-family="sans-serif" font-size="11" lengthAdjust="spacingAndGlyphs" textLength="113" x="1883" y="462.0151">linesOfText: string[]</text><rect fill="none" height="6" style="stroke: #C82930; stroke-width: 1.0;" width="6" x="1871" y="469.5117"/><text fill="#000000" font-family="sans-serif" font-size="11" lengthAdjust="spacingAndGlyphs" textLength="90" x="1883" y="474.8198">textStyle: string</text><rect fill="none" height="6" style="stroke: #C82930; stroke-width: 1.0;" width="6" x="1871" y="482.3164"/><text fill="#000000" font-family="sans-serif" font-size="11" lengthAdjust="spacingAndGlyphs" textLength="178" x="1883" y="487.6245">textAlignment: CanvasTextAlign</text><rect fill="none" height="6" style="stroke: #C82930; stroke-width: 1.0;" width="6" x="1871" y="495.1211"/><text fill="#000000" font-family="sans-serif" font-size="11" lengthAdjust="spacingAndGlyphs" textLength="93" x="1883" y="500.4292">fontColor: string</text><line style="stroke: #A80036; stroke-width: 1.5;" x1="1864" x2="2229" y1="507.0234" y2="507.0234"/><ellipse cx="1874" cy="518.9258" fill="#84BE84" rx="3" ry="3" style="stroke: #038048; stroke-width: 1.0;"/><text fill="#000000" font-family="sans-serif" font-size="11" lengthAdjust="spacingAndGlyphs" textLength="249" x="1883" y="521.2339">updatePosition(context: GameContext): void</text><ellipse cx="1874" cy="531.7305" fill="#84BE84" rx="3" ry="3" style="stroke: #038048; stroke-width: 1.0;"/><text fill="#000000" font-family="sans-serif" font-size="11" lengthAdjust="spacingAndGlyphs" textLength="248" x="1883" y="534.0386">draw(ctx: CanvasRenderingContext2D): void</text><rect fill="#F24D5C" height="6" style="stroke: #C82930; stroke-width: 1.0;" width="6" x="1871" y="541.5352"/><text fill="#000000" font-family="sans-serif" font-size="11" lengthAdjust="spacingAndGlyphs" textLength="297" x="1883" y="546.8433">styleText: (ctx: CanvasRenderingContext2D) =&gt; void</text><rect fill="#F24D5C" height="6" style="stroke: #C82930; stroke-width: 1.0;" width="6" x="1871" y="554.3398"/><text fill="#000000" font-family="sans-serif" font-size="11" lengthAdjust="spacingAndGlyphs" textLength="341" x="1883" y="559.6479">drawLinesOfText: (ctx: CanvasRenderingContext2D) =&gt; void</text><!--class State--><rect fill="#FEFECE" filter="url(#f2aq14feko6h8)" height="86.4141" id="State" style="stroke: #A80036; stroke-width: 1.5;" width="409" x="2244" y="14.5"/><ellipse cx="2427.25" cy="30.5" fill="#B4A7E5" rx="11" ry="11" style="stroke: #A80036; stroke-width: 1.0;"/><path d="M2428.2031,27.2813 L2428.2031,33.7969 L2429.9219,33.7969 C2430.375,33.7969 2430.5156,33.8281 2430.6875,33.9531 C2430.9219,34.125 2431.0313,34.375 2431.0313,34.6563 C2431.0313,35.2188 2430.6719,35.5 2429.9219,35.5 L2424.7813,35.5 C2424.375,35.5 2424.1719,35.4531 2424.0156,35.3281 C2423.7969,35.1719 2423.6563,34.9063 2423.6563,34.6563 C2423.6563,34.3594 2423.8125,34.0781 2424.0625,33.9219 C2424.2188,33.8125 2424.3438,33.7969 2424.7813,33.7969 L2426.5,33.7969 L2426.5,27.2813 L2424.7813,27.2813 C2424.3594,27.2813 2424.1719,27.25 2424.0156,27.1406 C2423.7969,26.9688 2423.6563,26.7188 2423.6563,26.4375 C2423.6563,26.1563 2423.8125,25.8594 2424.0625,25.7031 C2424.2188,25.6094 2424.3438,25.5938 2424.7813,25.5938 L2429.9219,25.5938 C2430.375,25.5938 2430.5156,25.625 2430.6875,25.7344 C2430.9219,25.9063 2431.0313,26.1719 2431.0313,26.4375 C2431.0313,26.7344 2430.8906,27.0156 2430.625,27.1719 C2430.5,27.25 2430.3125,27.2813 2429.9219,27.2813 Z "/><text fill="#000000" font-family="sans-serif" font-size="12" font-style="italic" lengthAdjust="spacingAndGlyphs" textLength="34" x="2447.75" y="34.6543">State</text><line style="stroke: #A80036; stroke-width: 1.5;" x1="2245" x2="2652" y1="46.5" y2="46.5"/><line style="stroke: #A80036; stroke-width: 1.5;" x1="2245" x2="2652" y1="54.5" y2="54.5"/><ellipse cx="2255" cy="66.4023" fill="#84BE84" rx="3" ry="3" style="stroke: #038048; stroke-width: 1.0;"/><text fill="#000000" font-family="sans-serif" font-size="11" lengthAdjust="spacingAndGlyphs" textLength="219" x="2264" y="68.7104">transition(context: GameContext): void</text><ellipse cx="2255" cy="79.207" fill="#84BE84" rx="3" ry="3" style="stroke: #038048; stroke-width: 1.0;"/><text fill="#000000" font-family="sans-serif" font-size="11" lengthAdjust="spacingAndGlyphs" textLength="383" x="2264" y="81.5151">keyHandler(event: KeyboardEvent, inGameKeys: InGameKeys): void</text><ellipse cx="2255" cy="92.0117" fill="#84BE84" rx="3" ry="3" style="stroke: #038048; stroke-width: 1.0;"/><text fill="#000000" font-family="sans-serif" font-size="11" lengthAdjust="spacingAndGlyphs" textLength="204" x="2264" y="94.3198">update(context: GameContext): void</text><!--class InGameKeys--><rect fill="#FEFECE" filter="url(#f2aq14feko6h8)" height="112.0234" id="InGameKeys" style="stroke: #A80036; stroke-width: 1.5;" width="161" x="17" y="199"/><ellipse cx="55.4" cy="215" fill="#B4A7E5" rx="11" ry="11" style="stroke: #A80036; stroke-width: 1.0;"/><path d="M56.3531,211.7813 L56.3531,218.2969 L58.0719,218.2969 C58.525,218.2969 58.6656,218.3281 58.8375,218.4531 C59.0719,218.625 59.1813,218.875 59.1813,219.1563 C59.1813,219.7188 58.8219,220 58.0719,220 L52.9313,220 C52.525,220 52.3219,219.9531 52.1656,219.8281 C51.9469,219.6719 51.8063,219.4063 51.8063,219.1563 C51.8063,218.8594 51.9625,218.5781 52.2125,218.4219 C52.3688,218.3125 52.4938,218.2969 52.9313,218.2969 L54.65,218.2969 L54.65,211.7813 L52.9313,211.7813 C52.5094,211.7813 52.3219,211.75 52.1656,211.6406 C51.9469,211.4688 51.8063,211.2188 51.8063,210.9375 C51.8063,210.6563 51.9625,210.3594 52.2125,210.2031 C52.3688,210.1094 52.4938,210.0938 52.9313,210.0938 L58.0719,210.0938 C58.525,210.0938 58.6656,210.125 58.8375,210.2344 C59.0719,210.4063 59.1813,210.6719 59.1813,210.9375 C59.1813,211.2344 59.0406,211.5156 58.775,211.6719 C58.65,211.75 58.4625,211.7813 58.0719,211.7813 Z "/><text fill="#000000" font-family="sans-serif" font-size="12" font-style="italic" lengthAdjust="spacingAndGlyphs" textLength="77" x="74.6" y="219.1543">InGameKeys</text><line style="stroke: #A80036; stroke-width: 1.5;" x1="18" x2="177" y1="231" y2="231"/><ellipse cx="28" cy="242.9023" fill="none" rx="3" ry="3" style="stroke: #038048; stroke-width: 1.0;"/><text fill="#000000" font-family="sans-serif" font-size="11" lengthAdjust="spacingAndGlyphs" textLength="127" x="37" y="245.2104">startPressed: boolean</text><ellipse cx="28" cy="255.707" fill="none" rx="3" ry="3" style="stroke: #038048; stroke-width: 1.0;"/><text fill="#000000" font-family="sans-serif" font-size="11" lengthAdjust="spacingAndGlyphs" textLength="119" x="37" y="258.0151">firePressed: boolean</text><ellipse cx="28" cy="268.5117" fill="none" rx="3" ry="3" style="stroke: #038048; stroke-width: 1.0;"/><text fill="#000000" font-family="sans-serif" font-size="11" lengthAdjust="spacingAndGlyphs" textLength="118" x="37" y="270.8198">leftPressed: boolean</text><ellipse cx="28" cy="281.3164" fill="none" rx="3" ry="3" style="stroke: #038048; stroke-width: 1.0;"/><text fill="#000000" font-family="sans-serif" font-size="11" lengthAdjust="spacingAndGlyphs" textLength="126" x="37" y="283.6245">rightPressed: boolean</text><ellipse cx="28" cy="294.1211" fill="none" rx="3" ry="3" style="stroke: #038048; stroke-width: 1.0;"/><text fill="#000000" font-family="sans-serif" font-size="11" lengthAdjust="spacingAndGlyphs" textLength="135" x="37" y="296.4292">pausePressed: boolean</text><line style="stroke: #A80036; stroke-width: 1.5;" x1="18" x2="177" y1="303.0234" y2="303.0234"/><!--class GameContext--><rect fill="#FEFECE" filter="url(#f2aq14feko6h8)" height="176.0469" id="GameContext" style="stroke: #A80036; stroke-width: 1.5;" width="733" x="213" y="167"/><ellipse cx="533.25" cy="183" fill="#ADD1B2" rx="11" ry="11" style="stroke: #A80036; stroke-width: 1.0;"/><path d="M535.5938,178.6719 L535.7656,178.75 C535.9844,178.4375 536.1875,178.3438 536.4844,178.3438 C536.7813,178.3438 537.0625,178.4844 537.2188,178.75 C537.3125,178.9063 537.3281,179.0313 537.3281,179.4688 L537.3281,180.8906 C537.3281,181.3125 537.2969,181.5 537.1875,181.6563 C537.0156,181.875 536.75,182.0156 536.4844,182.0156 C536.2656,182.0156 536.0313,181.9063 535.8906,181.7656 C535.75,181.6406 535.7188,181.5156 535.6563,181.1094 C535.5625,180.7031 535.3906,180.4844 534.9063,180.2031 C534.4375,179.9531 533.8281,179.7969 533.25,179.7969 C531.5156,179.7969 530.2656,181.1094 530.2656,182.8906 L530.2656,183.9844 C530.2656,185.6875 531.5625,186.7813 533.6094,186.7813 C534.375,186.7813 535.0625,186.6563 535.4844,186.3906 C535.6719,186.2969 535.6719,186.2969 536.125,185.8125 C536.3125,185.625 536.5156,185.5469 536.7344,185.5469 C537.2031,185.5469 537.5938,185.9375 537.5938,186.3906 C537.5938,186.7813 537.2656,187.2344 536.6875,187.6406 C535.9375,188.1875 534.7813,188.4844 533.5625,188.4844 C530.6719,188.4844 528.5625,186.5938 528.5625,184.0156 L528.5625,182.8906 C528.5625,180.1719 530.5625,178.0938 533.1875,178.0938 C534.0625,178.0938 534.6563,178.2344 535.5938,178.6719 Z "/><text fill="#000000" font-family="sans-serif" font-size="12" lengthAdjust="spacingAndGlyphs" textLength="84" x="553.75" y="187.1543">GameContext</text><line style="stroke: #A80036; stroke-width: 1.5;" x1="214" x2="945" y1="199" y2="199"/><ellipse cx="224" cy="210.9023" fill="none" rx="3" ry="3" style="stroke: #038048; stroke-width: 1.0;"/><text fill="#000000" font-family="sans-serif" font-size="11" lengthAdjust="spacingAndGlyphs" textLength="707" x="233" y="213.2104">entities: { [key: string]: Drawable | Drawable[]; hero: Hero; zombies: Zombie[]; bullets: Bullet[]; screenText: ScreenText[]; }</text><ellipse cx="224" cy="223.707" fill="none" rx="3" ry="3" style="stroke: #038048; stroke-width: 1.0;"/><text fill="#000000" font-family="sans-serif" font-size="11" lengthAdjust="spacingAndGlyphs" textLength="84" x="233" y="226.0151">score: number</text><ellipse cx="224" cy="236.5117" fill="none" rx="3" ry="3" style="stroke: #038048; stroke-width: 1.0;"/><text fill="#000000" font-family="sans-serif" font-size="11" lengthAdjust="spacingAndGlyphs" textLength="150" x="233" y="238.8198">inGameKeys: InGameKeys</text><rect fill="none" height="6" style="stroke: #C82930; stroke-width: 1.0;" width="6" x="221" y="246.3164"/><text fill="#000000" font-family="sans-serif" font-size="11" lengthAdjust="spacingAndGlyphs" textLength="67" x="233" y="251.6245">state: State</text><ellipse cx="224" cy="262.1211" fill="none" rx="3" ry="3" style="stroke: #038048; stroke-width: 1.0;"/><text fill="#000000" font-family="sans-serif" font-size="11" lengthAdjust="spacingAndGlyphs" textLength="181" x="233" y="264.4292">ctx: CanvasRenderingContext2D</text><ellipse cx="224" cy="274.9258" fill="none" rx="3" ry="3" style="stroke: #038048; stroke-width: 1.0;"/><text fill="#000000" font-family="sans-serif" font-size="11" lengthAdjust="spacingAndGlyphs" textLength="68" x="233" y="277.2339">State: State</text><ellipse cx="224" cy="287.7305" fill="none" rx="3" ry="3" style="stroke: #038048; stroke-width: 1.0;"/><text fill="#000000" font-family="sans-serif" font-size="11" lengthAdjust="spacingAndGlyphs" textLength="68" x="233" y="290.0386">State: State</text><line style="stroke: #A80036; stroke-width: 1.5;" x1="214" x2="945" y1="296.6328" y2="296.6328"/><ellipse cx="224" cy="308.5352" fill="#84BE84" rx="3" ry="3" style="stroke: #038048; stroke-width: 1.0;"/><text fill="#000000" font-family="sans-serif" font-size="11" lengthAdjust="spacingAndGlyphs" textLength="93" x="233" y="310.8433">transition(): void</text><ellipse cx="224" cy="321.3398" fill="#84BE84" rx="3" ry="3" style="stroke: #038048; stroke-width: 1.0;"/><text fill="#000000" font-family="sans-serif" font-size="11" lengthAdjust="spacingAndGlyphs" textLength="225" x="233" y="323.6479">keyHandler(event: KeyboardEvent): void</text><ellipse cx="224" cy="334.1445" fill="#84BE84" rx="3" ry="3" style="stroke: #038048; stroke-width: 1.0;"/><text fill="#000000" font-family="sans-serif" font-size="11" lengthAdjust="spacingAndGlyphs" textLength="151" x="233" y="336.4526">updateCurrentState(): void</text><!--class Base--><rect fill="#FEFECE" filter="url(#f2aq14feko6h8)" height="73.6094" id="Base" style="stroke: #A80036; stroke-width: 1.5;" width="409" x="2688" y="20.5"/><ellipse cx="2873.25" cy="36.5" fill="#A9DCDF" rx="11" ry="11" style="stroke: #A80036; stroke-width: 1.0;"/><path d="M2874.8281,38.3125 L2870.7813,38.3125 L2870.3906,39.2969 L2870.7813,39.2969 C2871.2344,39.2969 2871.375,39.3281 2871.5469,39.4531 C2871.7656,39.625 2871.8906,39.875 2871.8906,40.1563 C2871.8906,40.4375 2871.75,40.7344 2871.4844,40.875 C2871.3594,40.9688 2871.1406,41 2870.7813,41 L2868.5156,41 C2867.7656,41 2867.3906,40.7188 2867.3906,40.1563 C2867.3906,39.8594 2867.5469,39.5781 2867.7969,39.4219 C2867.9531,39.3125 2868.1094,39.2969 2868.5313,39.2969 L2871.1719,32.7813 L2870.0938,32.7813 C2869.6563,32.7813 2869.4844,32.75 2869.3125,32.6406 C2869.0938,32.4688 2868.9531,32.2188 2868.9531,31.9375 C2868.9531,31.6563 2869.1094,31.375 2869.3594,31.2031 C2869.5156,31.1094 2869.6406,31.0938 2870.0938,31.0938 L2873.7656,31.0938 L2877.1563,39.2969 C2877.625,39.2969 2877.7813,39.3281 2877.9531,39.4688 C2878.1719,39.625 2878.3125,39.875 2878.3125,40.1563 C2878.3125,40.4375 2878.1563,40.7344 2877.9063,40.875 C2877.7656,40.9688 2877.5469,41 2877.1875,41 L2874.8281,41 C2874.4063,41 2874.2031,40.9531 2874.0625,40.8281 C2873.8438,40.6719 2873.7031,40.4219 2873.7031,40.1563 C2873.7031,39.8594 2873.8594,39.5781 2874.1094,39.4219 C2874.2656,39.3125 2874.375,39.2969 2874.8281,39.2969 L2875.2188,39.2969 Z M2874.125,36.6094 L2872.7969,33.3438 L2871.4531,36.6094 Z "/><text fill="#000000" font-family="sans-serif" font-size="12" font-style="italic" lengthAdjust="spacingAndGlyphs" textLength="30" x="2893.75" y="40.6543">Base</text><line style="stroke: #A80036; stroke-width: 1.5;" x1="2689" x2="3096" y1="52.5" y2="52.5"/><line style="stroke: #A80036; stroke-width: 1.5;" x1="2689" x2="3096" y1="60.5" y2="60.5"/><ellipse cx="2699" cy="72.4023" fill="#84BE84" rx="3" ry="3" style="stroke: #038048; stroke-width: 1.0;"/><text fill="#000000" font-family="sans-serif" font-size="11" lengthAdjust="spacingAndGlyphs" textLength="204" x="2708" y="74.7104">update(context: GameContext): void</text><ellipse cx="2699" cy="85.207" fill="#84BE84" rx="3" ry="3" style="stroke: #038048; stroke-width: 1.0;"/><text fill="#000000" font-family="sans-serif" font-size="11" lengthAdjust="spacingAndGlyphs" textLength="383" x="2708" y="87.5151">keyHandler(event: KeyboardEvent, inGameKeys: InGameKeys): void</text><!--class LevelTwo--><rect fill="#FEFECE" filter="url(#f2aq14feko6h8)" height="73.6094" id="LevelTwo" style="stroke: #A80036; stroke-width: 1.5;" width="245" x="2087" y="218"/><ellipse cx="2177.75" cy="234" fill="#ADD1B2" rx="11" ry="11" style="stroke: #A80036; stroke-width: 1.0;"/><path d="M2180.0938,229.6719 L2180.2656,229.75 C2180.4844,229.4375 2180.6875,229.3438 2180.9844,229.3438 C2181.2813,229.3438 2181.5625,229.4844 2181.7188,229.75 C2181.8125,229.9063 2181.8281,230.0313 2181.8281,230.4688 L2181.8281,231.8906 C2181.8281,232.3125 2181.7969,232.5 2181.6875,232.6563 C2181.5156,232.875 2181.25,233.0156 2180.9844,233.0156 C2180.7656,233.0156 2180.5313,232.9063 2180.3906,232.7656 C2180.25,232.6406 2180.2188,232.5156 2180.1563,232.1094 C2180.0625,231.7031 2179.8906,231.4844 2179.4063,231.2031 C2178.9375,230.9531 2178.3281,230.7969 2177.75,230.7969 C2176.0156,230.7969 2174.7656,232.1094 2174.7656,233.8906 L2174.7656,234.9844 C2174.7656,236.6875 2176.0625,237.7813 2178.1094,237.7813 C2178.875,237.7813 2179.5625,237.6563 2179.9844,237.3906 C2180.1719,237.2969 2180.1719,237.2969 2180.625,236.8125 C2180.8125,236.625 2181.0156,236.5469 2181.2344,236.5469 C2181.7031,236.5469 2182.0938,236.9375 2182.0938,237.3906 C2182.0938,237.7813 2181.7656,238.2344 2181.1875,238.6406 C2180.4375,239.1875 2179.2813,239.4844 2178.0625,239.4844 C2175.1719,239.4844 2173.0625,237.5938 2173.0625,235.0156 L2173.0625,233.8906 C2173.0625,231.1719 2175.0625,229.0938 2177.6875,229.0938 C2178.5625,229.0938 2179.1563,229.2344 2180.0938,229.6719 Z "/><text fill="#000000" font-family="sans-serif" font-size="12" lengthAdjust="spacingAndGlyphs" textLength="55" x="2198.25" y="238.1543">LevelTwo</text><line style="stroke: #A80036; stroke-width: 1.5;" x1="2088" x2="2331" y1="250" y2="250"/><line style="stroke: #A80036; stroke-width: 1.5;" x1="2088" x2="2331" y1="258" y2="258"/><ellipse cx="2098" cy="269.9023" fill="#84BE84" rx="3" ry="3" style="stroke: #038048; stroke-width: 1.0;"/><text fill="#000000" font-family="sans-serif" font-size="11" lengthAdjust="spacingAndGlyphs" textLength="219" x="2107" y="272.2104">transition(context: GameContext): void</text><ellipse cx="2098" cy="282.707" fill="#84BE84" rx="3" ry="3" style="stroke: #038048; stroke-width: 1.0;"/><text fill="#000000" font-family="sans-serif" font-size="11" lengthAdjust="spacingAndGlyphs" textLength="204" x="2107" y="285.0151">update(context: GameContext): void</text><!--class LevelOne--><rect fill="#FEFECE" filter="url(#f2aq14feko6h8)" height="73.6094" id="LevelOne" style="stroke: #A80036; stroke-width: 1.5;" width="245" x="2367" y="218"/><ellipse cx="2457.25" cy="234" fill="#ADD1B2" rx="11" ry="11" style="stroke: #A80036; stroke-width: 1.0;"/><path d="M2459.5938,229.6719 L2459.7656,229.75 C2459.9844,229.4375 2460.1875,229.3438 2460.4844,229.3438 C2460.7813,229.3438 2461.0625,229.4844 2461.2188,229.75 C2461.3125,229.9063 2461.3281,230.0313 2461.3281,230.4688 L2461.3281,231.8906 C2461.3281,232.3125 2461.2969,232.5 2461.1875,232.6563 C2461.0156,232.875 2460.75,233.0156 2460.4844,233.0156 C2460.2656,233.0156 2460.0313,232.9063 2459.8906,232.7656 C2459.75,232.6406 2459.7188,232.5156 2459.6563,232.1094 C2459.5625,231.7031 2459.3906,231.4844 2458.9063,231.2031 C2458.4375,230.9531 2457.8281,230.7969 2457.25,230.7969 C2455.5156,230.7969 2454.2656,232.1094 2454.2656,233.8906 L2454.2656,234.9844 C2454.2656,236.6875 2455.5625,237.7813 2457.6094,237.7813 C2458.375,237.7813 2459.0625,237.6563 2459.4844,237.3906 C2459.6719,237.2969 2459.6719,237.2969 2460.125,236.8125 C2460.3125,236.625 2460.5156,236.5469 2460.7344,236.5469 C2461.2031,236.5469 2461.5938,236.9375 2461.5938,237.3906 C2461.5938,237.7813 2461.2656,238.2344 2460.6875,238.6406 C2459.9375,239.1875 2458.7813,239.4844 2457.5625,239.4844 C2454.6719,239.4844 2452.5625,237.5938 2452.5625,235.0156 L2452.5625,233.8906 C2452.5625,231.1719 2454.5625,229.0938 2457.1875,229.0938 C2458.0625,229.0938 2458.6563,229.2344 2459.5938,229.6719 Z "/><text fill="#000000" font-family="sans-serif" font-size="12" lengthAdjust="spacingAndGlyphs" textLength="56" x="2477.75" y="238.1543">LevelOne</text><line style="stroke: #A80036; stroke-width: 1.5;" x1="2368" x2="2611" y1="250" y2="250"/><line style="stroke: #A80036; stroke-width: 1.5;" x1="2368" x2="2611" y1="258" y2="258"/><ellipse cx="2378" cy="269.9023" fill="#84BE84" rx="3" ry="3" style="stroke: #038048; stroke-width: 1.0;"/><text fill="#000000" font-family="sans-serif" font-size="11" lengthAdjust="spacingAndGlyphs" textLength="219" x="2387" y="272.2104">transition(context: GameContext): void</text><ellipse cx="2378" cy="282.707" fill="#84BE84" rx="3" ry="3" style="stroke: #038048; stroke-width: 1.0;"/><text fill="#000000" font-family="sans-serif" font-size="11" lengthAdjust="spacingAndGlyphs" textLength="204" x="2387" y="285.0151">update(context: GameContext): void</text><!--class StartScreen--><rect fill="#FEFECE" filter="url(#f2aq14feko6h8)" height="86.4141" id="StartScreen" style="stroke: #A80036; stroke-width: 1.5;" width="409" x="2647" y="212"/><ellipse cx="2809.75" cy="228" fill="#ADD1B2" rx="11" ry="11" style="stroke: #A80036; stroke-width: 1.0;"/><path d="M2812.0938,223.6719 L2812.2656,223.75 C2812.4844,223.4375 2812.6875,223.3438 2812.9844,223.3438 C2813.2813,223.3438 2813.5625,223.4844 2813.7188,223.75 C2813.8125,223.9063 2813.8281,224.0313 2813.8281,224.4688 L2813.8281,225.8906 C2813.8281,226.3125 2813.7969,226.5 2813.6875,226.6563 C2813.5156,226.875 2813.25,227.0156 2812.9844,227.0156 C2812.7656,227.0156 2812.5313,226.9063 2812.3906,226.7656 C2812.25,226.6406 2812.2188,226.5156 2812.1563,226.1094 C2812.0625,225.7031 2811.8906,225.4844 2811.4063,225.2031 C2810.9375,224.9531 2810.3281,224.7969 2809.75,224.7969 C2808.0156,224.7969 2806.7656,226.1094 2806.7656,227.8906 L2806.7656,228.9844 C2806.7656,230.6875 2808.0625,231.7813 2810.1094,231.7813 C2810.875,231.7813 2811.5625,231.6563 2811.9844,231.3906 C2812.1719,231.2969 2812.1719,231.2969 2812.625,230.8125 C2812.8125,230.625 2813.0156,230.5469 2813.2344,230.5469 C2813.7031,230.5469 2814.0938,230.9375 2814.0938,231.3906 C2814.0938,231.7813 2813.7656,232.2344 2813.1875,232.6406 C2812.4375,233.1875 2811.2813,233.4844 2810.0625,233.4844 C2807.1719,233.4844 2805.0625,231.5938 2805.0625,229.0156 L2805.0625,227.8906 C2805.0625,225.1719 2807.0625,223.0938 2809.6875,223.0938 C2810.5625,223.0938 2811.1563,223.2344 2812.0938,223.6719 Z "/><text fill="#000000" font-family="sans-serif" font-size="12" lengthAdjust="spacingAndGlyphs" textLength="75" x="2830.25" y="232.1543">StartScreen</text><line style="stroke: #A80036; stroke-width: 1.5;" x1="2648" x2="3055" y1="244" y2="244"/><line style="stroke: #A80036; stroke-width: 1.5;" x1="2648" x2="3055" y1="252" y2="252"/><ellipse cx="2658" cy="263.9023" fill="#84BE84" rx="3" ry="3" style="stroke: #038048; stroke-width: 1.0;"/><text fill="#000000" font-family="sans-serif" font-size="11" lengthAdjust="spacingAndGlyphs" textLength="219" x="2667" y="266.2104">transition(context: GameContext): void</text><ellipse cx="2658" cy="276.707" fill="#84BE84" rx="3" ry="3" style="stroke: #038048; stroke-width: 1.0;"/><text fill="#000000" font-family="sans-serif" font-size="11" lengthAdjust="spacingAndGlyphs" textLength="383" x="2667" y="279.0151">keyHandler(event: KeyboardEvent, inGameKeys: InGameKeys): void</text><ellipse cx="2658" cy="289.5117" fill="#84BE84" rx="3" ry="3" style="stroke: #038048; stroke-width: 1.0;"/><text fill="#000000" font-family="sans-serif" font-size="11" lengthAdjust="spacingAndGlyphs" textLength="204" x="2667" y="291.8198">update(context: GameContext): void</text><!--class Init--><rect fill="#FEFECE" filter="url(#f2aq14feko6h8)" height="99.2188" id="Init" style="stroke: #A80036; stroke-width: 1.5;" width="273" x="3091" y="205.5"/><ellipse cx="3213.75" cy="221.5" fill="#ADD1B2" rx="11" ry="11" style="stroke: #A80036; stroke-width: 1.0;"/><path d="M3216.0938,217.1719 L3216.2656,217.25 C3216.4844,216.9375 3216.6875,216.8438 3216.9844,216.8438 C3217.2813,216.8438 3217.5625,216.9844 3217.7188,217.25 C3217.8125,217.4063 3217.8281,217.5313 3217.8281,217.9688 L3217.8281,219.3906 C3217.8281,219.8125 3217.7969,220 3217.6875,220.1563 C3217.5156,220.375 3217.25,220.5156 3216.9844,220.5156 C3216.7656,220.5156 3216.5313,220.4063 3216.3906,220.2656 C3216.25,220.1406 3216.2188,220.0156 3216.1563,219.6094 C3216.0625,219.2031 3215.8906,218.9844 3215.4063,218.7031 C3214.9375,218.4531 3214.3281,218.2969 3213.75,218.2969 C3212.0156,218.2969 3210.7656,219.6094 3210.7656,221.3906 L3210.7656,222.4844 C3210.7656,224.1875 3212.0625,225.2813 3214.1094,225.2813 C3214.875,225.2813 3215.5625,225.1563 3215.9844,224.8906 C3216.1719,224.7969 3216.1719,224.7969 3216.625,224.3125 C3216.8125,224.125 3217.0156,224.0469 3217.2344,224.0469 C3217.7031,224.0469 3218.0938,224.4375 3218.0938,224.8906 C3218.0938,225.2813 3217.7656,225.7344 3217.1875,226.1406 C3216.4375,226.6875 3215.2813,226.9844 3214.0625,226.9844 C3211.1719,226.9844 3209.0625,225.0938 3209.0625,222.5156 L3209.0625,221.3906 C3209.0625,218.6719 3211.0625,216.5938 3213.6875,216.5938 C3214.5625,216.5938 3215.1563,216.7344 3216.0938,217.1719 Z "/><text fill="#000000" font-family="sans-serif" font-size="12" lengthAdjust="spacingAndGlyphs" textLength="19" x="3234.25" y="225.6543">Init</text><line style="stroke: #A80036; stroke-width: 1.5;" x1="3092" x2="3363" y1="237.5" y2="237.5"/><rect fill="none" height="6" style="stroke: #C82930; stroke-width: 1.0;" width="6" x="3099" y="246.4023"/><text fill="#000000" font-family="sans-serif" font-size="11" lengthAdjust="spacingAndGlyphs" textLength="198" x="3111" y="251.7104">runAsyncInitFunctionOnce: boolean</text><line style="stroke: #A80036; stroke-width: 1.5;" x1="3092" x2="3363" y1="258.3047" y2="258.3047"/><ellipse cx="3102" cy="270.207" fill="#84BE84" rx="3" ry="3" style="stroke: #038048; stroke-width: 1.0;"/><text fill="#000000" font-family="sans-serif" font-size="11" lengthAdjust="spacingAndGlyphs" textLength="219" x="3111" y="272.5151">transition(context: GameContext): void</text><ellipse cx="3102" cy="283.0117" fill="#84BE84" rx="3" ry="3" style="stroke: #038048; stroke-width: 1.0;"/><text fill="#000000" font-family="sans-serif" font-size="11" lengthAdjust="spacingAndGlyphs" textLength="204" x="3111" y="285.3198">update(context: GameContext): void</text><ellipse cx="3102" cy="295.8164" fill="#84BE84" rx="3" ry="3" style="stroke: #038048; stroke-width: 1.0;"/><text fill="#000000" font-family="sans-serif" font-size="11" lengthAdjust="spacingAndGlyphs" text-decoration="underline" textLength="247" x="3111" y="298.1245">init(context: GameContext): Promise&lt;void&gt;</text><!--class Collidable--><rect fill="#FEFECE" filter="url(#f2aq14feko6h8)" height="86.4141" id="Collidable" style="stroke: #A80036; stroke-width: 1.5;" width="204" x="981.5" y="212"/><ellipse cx="1049.25" cy="228" fill="#B4A7E5" rx="11" ry="11" style="stroke: #A80036; stroke-width: 1.0;"/><path d="M1050.2031,224.7813 L1050.2031,231.2969 L1051.9219,231.2969 C1052.375,231.2969 1052.5156,231.3281 1052.6875,231.4531 C1052.9219,231.625 1053.0313,231.875 1053.0313,232.1563 C1053.0313,232.7188 1052.6719,233 1051.9219,233 L1046.7813,233 C1046.375,233 1046.1719,232.9531 1046.0156,232.8281 C1045.7969,232.6719 1045.6563,232.4063 1045.6563,232.1563 C1045.6563,231.8594 1045.8125,231.5781 1046.0625,231.4219 C1046.2188,231.3125 1046.3438,231.2969 1046.7813,231.2969 L1048.5,231.2969 L1048.5,224.7813 L1046.7813,224.7813 C1046.3594,224.7813 1046.1719,224.75 1046.0156,224.6406 C1045.7969,224.4688 1045.6563,224.2188 1045.6563,223.9375 C1045.6563,223.6563 1045.8125,223.3594 1046.0625,223.2031 C1046.2188,223.1094 1046.3438,223.0938 1046.7813,223.0938 L1051.9219,223.0938 C1052.375,223.0938 1052.5156,223.125 1052.6875,223.2344 C1052.9219,223.4063 1053.0313,223.6719 1053.0313,223.9375 C1053.0313,224.2344 1052.8906,224.5156 1052.625,224.6719 C1052.5,224.75 1052.3125,224.7813 1051.9219,224.7813 Z "/><text fill="#000000" font-family="sans-serif" font-size="12" font-style="italic" lengthAdjust="spacingAndGlyphs" textLength="60" x="1069.75" y="232.1543">Collidable</text><line style="stroke: #A80036; stroke-width: 1.5;" x1="982.5" x2="1184.5" y1="244" y2="244"/><ellipse cx="992.5" cy="255.9023" fill="none" rx="3" ry="3" style="stroke: #038048; stroke-width: 1.0;"/><text fill="#000000" font-family="sans-serif" font-size="11" lengthAdjust="spacingAndGlyphs" textLength="58" x="1001.5" y="258.2104">x: number</text><ellipse cx="992.5" cy="268.707" fill="none" rx="3" ry="3" style="stroke: #038048; stroke-width: 1.0;"/><text fill="#000000" font-family="sans-serif" font-size="11" lengthAdjust="spacingAndGlyphs" textLength="58" x="1001.5" y="271.0151">y: number</text><ellipse cx="992.5" cy="281.5117" fill="none" rx="3" ry="3" style="stroke: #038048; stroke-width: 1.0;"/><text fill="#000000" font-family="sans-serif" font-size="11" lengthAdjust="spacingAndGlyphs" textLength="178" x="1001.5" y="283.8198">widthHeight: [number, number]</text><line style="stroke: #A80036; stroke-width: 1.5;" x1="982.5" x2="1184.5" y1="290.4141" y2="290.4141"/><!--link EntityBaseClass to Character--><path d="M1618.13,117.558 C1572.35,145.616 1518.29,178.747 1474.91,205.334 " fill="none" id="EntityBaseClass-Character" style="stroke: #A80036; stroke-width: 1.0;"/><polygon fill="none" points="1614.53,111.559,1635.24,107.077,1621.84,123.496,1614.53,111.559" style="stroke: #A80036; stroke-width: 1.0;"/><!--link Character to VectorCharacter--><path d="M1474.42,316.861 C1525.34,356.127 1590.28,406.209 1635.61,441.172 " fill="none" id="Character-VectorCharacter" style="stroke: #A80036; stroke-width: 1.0;"/><polygon fill="none" points="1469.99,322.282,1458.42,304.525,1478.54,311.196,1469.99,322.282" style="stroke: #A80036; stroke-width: 1.0;"/><!--link Drawable to VectorCharacter--><path d="M1758.06,310.814 C1742.35,350.963 1721.35,404.645 1706.96,441.437 " fill="none" id="Drawable-VectorCharacter" style="stroke: #A80036; stroke-width: 1.0; stroke-dasharray: 7.0,7.0;"/><polygon fill="none" points="1751.59,308.123,1765.4,292.048,1764.63,313.224,1751.59,308.123" style="stroke: #A80036; stroke-width: 1.0;"/><!--link VectorCharacter to Bullet--><path d="M1686.4,547.745 C1684.81,571.797 1682.97,599.744 1681.25,625.736 " fill="none" id="VectorCharacter-Bullet" style="stroke: #A80036; stroke-width: 1.0;"/><polygon fill="none" points="1679.41,547.254,1687.71,527.758,1693.38,548.175,1679.41,547.254" style="stroke: #A80036; stroke-width: 1.0;"/><!--link Character to BitmapCharacter--><path d="M1391.28,324.64 C1388.94,362.568 1386.12,408.479 1384.1,441.172 " fill="none" id="Character-BitmapCharacter" style="stroke: #A80036; stroke-width: 1.0;"/><polygon fill="none" points="1384.3,324.058,1392.51,304.525,1398.27,324.918,1384.3,324.058" style="stroke: #A80036; stroke-width: 1.0;"/><!--link Drawable to BitmapCharacter--><path d="M1699.02,302.002 C1627.65,342.796 1524.29,401.879 1455.09,441.437 " fill="none" id="Drawable-BitmapCharacter" style="stroke: #A80036; stroke-width: 1.0; stroke-dasharray: 7.0,7.0;"/><polygon fill="none" points="1695.6,295.896,1716.44,292.048,1702.55,308.05,1695.6,295.896" style="stroke: #A80036; stroke-width: 1.0;"/><!--link BitmapCharacter to Zombie--><path d="M1381.5,547.759 C1381.5,579.946 1381.5,619.105 1381.5,651.222 " fill="none" id="BitmapCharacter-Zombie" style="stroke: #A80036; stroke-width: 1.0;"/><polygon fill="none" points="1374.5,547.758,1381.5,527.758,1388.5,547.758,1374.5,547.758" style="stroke: #A80036; stroke-width: 1.0;"/><!--link VectorCharacter to Hero--><path d="M1755.24,541.074 C1791.68,572.363 1837.49,611.687 1876.09,644.827 " fill="none" id="VectorCharacter-Hero" style="stroke: #A80036; stroke-width: 1.0;"/><polygon fill="none" points="1750.34,546.097,1739.72,527.758,1759.46,535.474,1750.34,546.097" style="stroke: #A80036; stroke-width: 1.0;"/><!--link EntityBaseClass to ScreenText--><path d="M1825.08,80.813 C1876.53,96.634 1934.41,123.142 1971.5,167 C2027.2,232.862 2043.13,332.81 2046.92,402.718 " fill="none" id="EntityBaseClass-ScreenText" style="stroke: #A80036; stroke-width: 1.0;"/><polygon fill="none" points="1823.02,87.506,1805.73,75.259,1826.89,74.05,1823.02,87.506" style="stroke: #A80036; stroke-width: 1.0;"/><!--link Drawable to ScreenText--><path d="M1837.39,305.325 C1870.8,333.793 1913.64,370.293 1951.83,402.835 " fill="none" id="Drawable-ScreenText" style="stroke: #A80036; stroke-width: 1.0; stroke-dasharray: 7.0,7.0;"/><polygon fill="none" points="1832.49,310.347,1821.81,292.048,1841.57,299.691,1832.49,310.347" style="stroke: #A80036; stroke-width: 1.0;"/><!--link Base to LevelTwo--><path d="M2710.38,98.754 C2696.89,101.591 2683.49,104.368 2670.5,107 C2528.25,135.825 2484.79,114.461 2349.5,167 C2316.96,179.638 2283.63,199.989 2257.67,217.831 " fill="none" id="Base-LevelTwo" style="stroke: #A80036; stroke-width: 1.0;"/><polygon fill="none" points="2709.14,91.861,2730.15,94.562,2712.04,105.557,2709.14,91.861" style="stroke: #A80036; stroke-width: 1.0;"/><!--link State to LevelTwo--><path d="M2381.28,113.488 C2340.47,146.871 2289.52,188.543 2253.75,217.805 " fill="none" id="State-LevelTwo" style="stroke: #A80036; stroke-width: 1.0; stroke-dasharray: 7.0,7.0;"/><polygon fill="none" points="2377.02,107.925,2396.93,100.68,2385.89,118.761,2377.02,107.925" style="stroke: #A80036; stroke-width: 1.0;"/><!--link Base to LevelOne--><path d="M2775.59,101.935 C2729.32,120.357 2676.15,143.089 2629.5,167 C2599.96,182.142 2568.44,201.424 2542.81,217.986 " fill="none" id="Base-LevelOne" style="stroke: #A80036; stroke-width: 1.0;"/><polygon fill="none" points="2773.11,95.387,2794.28,94.574,2778.24,108.414,2773.11,95.387" style="stroke: #A80036; stroke-width: 1.0;"/><!--link State to LevelOne--><path d="M2461.59,120.935 C2468.3,152.934 2476.24,190.766 2481.93,217.895 " fill="none" id="State-LevelOne" style="stroke: #A80036; stroke-width: 1.0; stroke-dasharray: 7.0,7.0;"/><polygon fill="none" points="2454.65,121.932,2457.4,100.921,2468.35,119.058,2454.65,121.932" style="stroke: #A80036; stroke-width: 1.0;"/><!--link Base to StartScreen--><path d="M2880.76,114.475 C2874.27,145.443 2866.33,183.3 2860.36,211.764 " fill="none" id="Base-StartScreen" style="stroke: #A80036; stroke-width: 1.0;"/><polygon fill="none" points="2873.93,112.951,2884.88,94.814,2887.63,115.825,2873.93,112.951" style="stroke: #A80036; stroke-width: 1.0;"/><!--link State to StartScreen--><path d="M2553.47,109.422 C2619.16,141.289 2702.77,181.851 2764.71,211.896 " fill="none" id="State-StartScreen" style="stroke: #A80036; stroke-width: 1.0; stroke-dasharray: 7.0,7.0;"/><polygon fill="none" points="2550.39,115.707,2535.45,100.68,2556.5,103.111,2550.39,115.707" style="stroke: #A80036; stroke-width: 1.0;"/><!--link Base to Init--><path d="M2971.65,104.691 C3023.61,135.016 3091.47,174.615 3144.24,205.412 " fill="none" id="Base-Init" style="stroke: #A80036; stroke-width: 1.0;"/><polygon fill="none" points="2968.08,110.712,2954.33,94.586,2975.14,98.62,2968.08,110.712" style="stroke: #A80036; stroke-width: 1.0;"/><!--link State to Init--><path d="M2656.36,104.357 C2661.12,105.262 2665.83,106.144 2670.5,107 C2848.61,139.677 2902.25,108.146 3073.5,167 C3101.09,176.481 3129.41,190.906 3154.12,205.3 " fill="none" id="State-Init" style="stroke: #A80036; stroke-width: 1.0; stroke-dasharray: 7.0,7.0;"/><polygon fill="none" points="2654.95,111.214,2636.66,100.524,2657.63,97.471,2654.95,111.214" style="stroke: #A80036; stroke-width: 1.0;"/><!--link HeroOptions to ZombieOptions--><!--link ZombieOptions to BulletOptions--><!--link HeroOptions to InGameKeys--><!--link InGameKeys to GameContext--><!--link GameContext to Collidable--><!--
@startuml
interface Drawable {
    +updatePosition(context?: GameContext | undefined): void
    +draw(ctx: CanvasRenderingContext2D): void
}
abstract class EntityBaseClass {
    +rotation: number
    #{abstract} position: [number, number]
    +x: number
    +y: number
}
abstract class Character extends EntityBaseClass {
    #lives: number
    #velocity: [number, number]
    +updatePosition(context?: GameContext | undefined): void
    #directTowards(targetPosition: [number, number]): void
}
abstract class VectorCharacter extends Character implements Drawable {
    +draw(ctx: CanvasRenderingContext2D): void
    #{abstract} color: string
    +{abstract} widthHeight: [number, number]
}
class Bullet extends VectorCharacter {
    +widthHeight: [number, number]
    +color: string
    +velocity: [number, number]
    +tweenVelocity: [number, number]
    +totalFrames: number
    +frameCounter: number
    +position: [number, number]
    +rotation: number
    +updatePosition(): void
    -tween(): void
}
abstract class BitmapCharacter extends Character implements Drawable {
    +draw(ctx: CanvasRenderingContext2D): void
    #{abstract} image: HTMLImageElement
    #{abstract} widthHeight: [number, number]
}
class Zombie extends BitmapCharacter {
    +widthHeight: [number, number]
    +image: HTMLImageElement
    +position: [number, number]
    +updatePosition(context: GameContext): void
    -randomStumble(): void
    +{static} imagesToLoad: HTMLImageElement[]
}
interface HeroOptions {
    +position: [number, number]
}
interface ZombieOptions {
    +image: HTMLImageElement
    +pointToSpawnAround: [number, number]
}
interface BulletOptions {
    +position: [number, number]
    +rotation: number
}
class Hero extends VectorCharacter {
    +lives: number
    +widthHeight: [number, number]
    +color: string
    +firePaused: boolean
    +numberOfBullets: number
    +position: [number, number]
    +updatePosition(context: GameContext): void
}
class ScreenText extends EntityBaseClass implements Drawable {
    +position: [number, number]
    +linesOfText: string[]
    -textStyle: string
    -textAlignment: CanvasTextAlign
    -fontColor: string
    +updatePosition(context: GameContext): void
    +draw(ctx: CanvasRenderingContext2D): void
    -styleText: (ctx: CanvasRenderingContext2D) => void
    -drawLinesOfText: (ctx: CanvasRenderingContext2D) => void
}
interface State {
    +transition(context: GameContext): void
    +keyHandler(event: KeyboardEvent, inGameKeys: InGameKeys): void
    +update(context: GameContext): void
}
interface InGameKeys {
    +startPressed: boolean
    +firePressed: boolean
    +leftPressed: boolean
    +rightPressed: boolean
    +pausePressed: boolean
}
class GameContext {
    +entities: { [key: string]: Drawable | Drawable[]; hero: Hero; zombies: Zombie[]; bullets: Bullet[]; screenText: ScreenText[]; }
    +score: number
    +inGameKeys: InGameKeys
    -state: State
    +ctx: CanvasRenderingContext2D
    +State: State
    +State: State
    +transition(): void
    +keyHandler(event: KeyboardEvent): void
    +updateCurrentState(): void
}
abstract class Base {
    +update(context: GameContext): void
    +keyHandler(event: KeyboardEvent, inGameKeys: InGameKeys): void
}
class LevelTwo extends Base implements State {
    +transition(context: GameContext): void
    +update(context: GameContext): void
}
class LevelOne extends Base implements State {
    +transition(context: GameContext): void
    +update(context: GameContext): void
}
class StartScreen extends Base implements State {
    +transition(context: GameContext): void
    +keyHandler(event: KeyboardEvent, inGameKeys: InGameKeys): void
    +update(context: GameContext): void
}
class Init extends Base implements State {
    -runAsyncInitFunctionOnce: boolean
    +transition(context: GameContext): void
    +update(context: GameContext): void
    +{static} init(context: GameContext): Promise<void>
}
interface Collidable {
    +x: number
    +y: number
    +widthHeight: [number, number]
}
@enduml

PlantUML version 1.2019.08(Sat Jul 13 19:25:14 UTC 2019)
(GPL source distribution)
Java Runtime: Java(TM) SE Runtime Environment
JVM: Java HotSpot(TM) 64-Bit Server VM
Java Version: 1.7.0_25-b15
Operating System: Linux
Default Encoding: UTF-8
Language: en
Country: US
--></g></svg>